<svg viewBox="0 0 918.75 400" xmlns="http://www.w3.org/2000/svg">
    <g>
        <g>
            <g>
                <g>
                    <g>
                        <line x1="61.953125" y1="378" x2="56.953125" y2="378" style="visibility: inherit;"
                              fill="rgb(0, 0, 0)" stroke="rgb(204, 204, 204)" stroke-width="1px"></line>
                        <line x1="61.953125" y1="351" x2="56.953125" y2="351" style="visibility: inherit;"
                              fill="rgb(0, 0, 0)" stroke="rgb(204, 204, 204)" stroke-width="1px"></line>
                        <line x1="61.953125" y1="324" x2="56.953125" y2="324" style="visibility: inherit;"
                              fill="rgb(0, 0, 0)" stroke="rgb(204, 204, 204)" stroke-width="1px"></line>
                        <line x1="61.953125" y1="297" x2="56.953125" y2="297" style="visibility: inherit;"
                              fill="rgb(0, 0, 0)" stroke="rgb(204, 204, 204)" stroke-width="1px"></line>
                        <line x1="61.953125" y1="269.99999999999994" x2="56.953125" y2="269.99999999999994"
                              style="visibility: inherit;" fill="rgb(0, 0, 0)" stroke="rgb(204, 204, 204)"
                              stroke-width="1px"></line>
                        <line x1="61.953125" y1="242.99999999999997" x2="56.953125" y2="242.99999999999997"
                              style="visibility: inherit;" fill="rgb(0, 0, 0)" stroke="rgb(204, 204, 204)"
                              stroke-width="1px"></line>
                        <line x1="61.953125" y1="216" x2="56.953125" y2="216" style="visibility: inherit;"
                              fill="rgb(0, 0, 0)" stroke="rgb(204, 204, 204)" stroke-width="1px"></line>
                        <line x1="61.953125" y1="189" x2="56.953125" y2="189" style="visibility: inherit;"
                              fill="rgb(0, 0, 0)" stroke="rgb(204, 204, 204)" stroke-width="1px"></line>
                        <line x1="61.953125" y1="161.99999999999997" x2="56.953125" y2="161.99999999999997"
                              style="visibility: inherit;" fill="rgb(0, 0, 0)" stroke="rgb(204, 204, 204)"
                              stroke-width="1px"></line>
                        <line x1="61.953125" y1="135.00000000000003" x2="56.953125" y2="135.00000000000003"
                              style="visibility: inherit;" fill="rgb(0, 0, 0)" stroke="rgb(204, 204, 204)"
                              stroke-width="1px"></line>
                        <line x1="61.953125" y1="108" x2="56.953125" y2="108" style="visibility: inherit;"
                              fill="rgb(0, 0, 0)" stroke="rgb(204, 204, 204)" stroke-width="1px"></line>
                        <line x1="61.953125" y1="80.99999999999996" x2="56.953125" y2="80.99999999999996"
                              style="visibility: inherit;" fill="rgb(0, 0, 0)" stroke="rgb(204, 204, 204)"
                              stroke-width="1px"></line>
                        <line x1="61.953125" y1="53.99999999999998" x2="56.953125" y2="53.99999999999998"
                              style="visibility: inherit;" fill="rgb(0, 0, 0)" stroke="rgb(204, 204, 204)"
                              stroke-width="1px"></line>
                        <line x1="61.953125" y1="26.999999999999947" x2="56.953125" y2="26.999999999999947"
                              style="visibility: inherit;" fill="rgb(0, 0, 0)" stroke="rgb(204, 204, 204)"
                              stroke-width="1px"></line>
                        <line x1="61.953125" y1="0" x2="56.953125" y2="0" style="visibility: inherit;"
                              fill="rgb(0, 0, 0)" stroke="rgb(204, 204, 204)" stroke-width="1px"></line>
                    </g>
                    <g transform="translate(51.953125, 0)">
                        <text x="0" y="378" dx="0em" dy="0.3em"
                              style="text-anchor: end; visibility: hidden; font-family: Roboto, sans-serif; font-size: 12px; font-weight: 200;"
                              fill="rgb(50, 49, 63)" stroke="none" stroke-width="1px">-0.1
                        </text>
                        <text x="0" y="351" dx="0em" dy="0.3em"
                              style="text-anchor: end; visibility: inherit; font-family: Roboto, sans-serif; font-size: 12px; font-weight: 200;"
                              fill="rgb(50, 49, 63)" stroke="none" stroke-width="1px">-0.05
                        </text>
                        <text x="0" y="324" dx="0em" dy="0.3em"
                              style="text-anchor: end; visibility: inherit; font-family: Roboto, sans-serif; font-size: 12px; font-weight: 200;"
                              fill="rgb(50, 49, 63)" stroke="none" stroke-width="1px">0
                        </text>
                        <text x="0" y="297" dx="0em" dy="0.3em"
                              style="text-anchor: end; visibility: inherit; font-family: Roboto, sans-serif; font-size: 12px; font-weight: 200;"
                              fill="rgb(50, 49, 63)" stroke="none" stroke-width="1px">0.05
                        </text>
                        <text x="0" y="269.99999999999994" dx="0em" dy="0.3em"
                              style="text-anchor: end; visibility: inherit; font-family: Roboto, sans-serif; font-size: 12px; font-weight: 200;"
                              fill="rgb(50, 49, 63)" stroke="none" stroke-width="1px">0.1
                        </text>
                        <text x="0" y="242.99999999999997" dx="0em" dy="0.3em"
                              style="text-anchor: end; visibility: inherit; font-family: Roboto, sans-serif; font-size: 12px; font-weight: 200;"
                              fill="rgb(50, 49, 63)" stroke="none" stroke-width="1px">0.15
                        </text>
                        <text x="0" y="216" dx="0em" dy="0.3em"
                              style="text-anchor: end; visibility: inherit; font-family: Roboto, sans-serif; font-size: 12px; font-weight: 200;"
                              fill="rgb(50, 49, 63)" stroke="none" stroke-width="1px">0.2
                        </text>
                        <text x="0" y="189" dx="0em" dy="0.3em"
                              style="text-anchor: end; visibility: inherit; font-family: Roboto, sans-serif; font-size: 12px; font-weight: 200;"
                              fill="rgb(50, 49, 63)" stroke="none" stroke-width="1px">0.25
                        </text>
                        <text x="0" y="161.99999999999997" dx="0em" dy="0.3em"
                              style="text-anchor: end; visibility: inherit; font-family: Roboto, sans-serif; font-size: 12px; font-weight: 200;"
                              fill="rgb(50, 49, 63)" stroke="none" stroke-width="1px">0.3
                        </text>
                        <text x="0" y="135.00000000000003" dx="0em" dy="0.3em"
                              style="text-anchor: end; visibility: inherit; font-family: Roboto, sans-serif; font-size: 12px; font-weight: 200;"
                              fill="rgb(50, 49, 63)" stroke="none" stroke-width="1px">0.35
                        </text>
                        <text x="0" y="108" dx="0em" dy="0.3em"
                              style="text-anchor: end; visibility: inherit; font-family: Roboto, sans-serif; font-size: 12px; font-weight: 200;"
                              fill="rgb(50, 49, 63)" stroke="none" stroke-width="1px">0.4
                        </text>
                        <text x="0" y="80.99999999999996" dx="0em" dy="0.3em"
                              style="text-anchor: end; visibility: inherit; font-family: Roboto, sans-serif; font-size: 12px; font-weight: 200;"
                              fill="rgb(50, 49, 63)" stroke="none" stroke-width="1px">0.45
                        </text>
                        <text x="0" y="53.99999999999998" dx="0em" dy="0.3em"
                              style="text-anchor: end; visibility: inherit; font-family: Roboto, sans-serif; font-size: 12px; font-weight: 200;"
                              fill="rgb(50, 49, 63)" stroke="none" stroke-width="1px">0.5
                        </text>
                        <text x="0" y="26.999999999999947" dx="0em" dy="0.3em"
                              style="text-anchor: end; visibility: inherit; font-family: Roboto, sans-serif; font-size: 12px; font-weight: 200;"
                              fill="rgb(50, 49, 63)" stroke="none" stroke-width="1px">0.55
                        </text>
                        <text x="0" y="0" dx="0em" dy="0.3em"
                              style="text-anchor: end; visibility: hidden; font-family: Roboto, sans-serif; font-size: 12px; font-weight: 200;"
                              fill="rgb(50, 49, 63)" stroke="none" stroke-width="1px">0.6
                        </text>
                    </g>
                    <line x1="61.953125" y1="0" x2="61.953125" y2="378" fill="rgb(0, 0, 0)" stroke="rgb(204, 204, 204)"
                          stroke-width="1px"></line>
                </g>
            </g>
            <g transform="translate(61, 0)" clip-path="url(#clip_0)">
                <clipPath id="clip_0">
                    <rect width="856" height="378"></rect>
                </clipPath>
                <g>
                    <g>
                        <g>
                            <line x1="0" y1="0" x2="0" y2="378" fill="rgb(0, 0, 0)" stroke="rgb(60, 60, 60)"
                                  stroke-width="1px" opacity="0.25"></line>
                            <line x1="77.890625" y1="0" x2="77.890625" y2="378" fill="rgb(0, 0, 0)"
                                  stroke="rgb(60, 60, 60)" stroke-width="1px" opacity="0.25"></line>
                            <line x1="155.78125" y1="0" x2="155.78125" y2="378" fill="rgb(0, 0, 0)"
                                  stroke="rgb(60, 60, 60)" stroke-width="1px" opacity="0.25"></line>
                            <line x1="233.67187499999997" y1="0" x2="233.67187499999997" y2="378" fill="rgb(0, 0, 0)"
                                  stroke="rgb(60, 60, 60)" stroke-width="1px" opacity="0.25"></line>
                            <line x1="311.5625" y1="0" x2="311.5625" y2="378" fill="rgb(0, 0, 0)"
                                  stroke="rgb(60, 60, 60)" stroke-width="1px" opacity="0.25"></line>
                            <line x1="389.453125" y1="0" x2="389.453125" y2="378" fill="rgb(0, 0, 0)"
                                  stroke="rgb(60, 60, 60)" stroke-width="1px" opacity="0.25"></line>
                            <line x1="467.34374999999994" y1="0" x2="467.34374999999994" y2="378" fill="rgb(0, 0, 0)"
                                  stroke="rgb(60, 60, 60)" stroke-width="1px" opacity="0.25"></line>
                            <line x1="545.234375" y1="0" x2="545.234375" y2="378" fill="rgb(0, 0, 0)"
                                  stroke="rgb(60, 60, 60)" stroke-width="1px" opacity="0.25"></line>
                            <line x1="623.125" y1="0" x2="623.125" y2="378" fill="rgb(0, 0, 0)" stroke="rgb(60, 60, 60)"
                                  stroke-width="1px" opacity="0.25"></line>
                            <line x1="701.015625" y1="0" x2="701.015625" y2="378" fill="rgb(0, 0, 0)"
                                  stroke="rgb(60, 60, 60)" stroke-width="1px" opacity="0.25"></line>
                            <line x1="778.90625" y1="0" x2="778.90625" y2="378" fill="rgb(0, 0, 0)"
                                  stroke="rgb(60, 60, 60)" stroke-width="1px" opacity="0.25"></line>
                            <line x1="856.796875" y1="0" x2="856.796875" y2="378" fill="rgb(0, 0, 0)"
                                  stroke="rgb(60, 60, 60)" stroke-width="1px" opacity="0.25"></line>
                        </g>
                        <g>
                            <line x1="0" y1="378" x2="856.796875" y2="378" fill="rgb(0, 0, 0)" stroke="rgb(60, 60, 60)"
                                  stroke-width="1px" opacity="0.25"></line>
                            <line x1="0" y1="351" x2="856.796875" y2="351" fill="rgb(0, 0, 0)" stroke="rgb(60, 60, 60)"
                                  stroke-width="1px" opacity="0.25"></line>
                            <line x1="0" y1="324" x2="856.796875" y2="324" fill="rgb(0, 0, 0)" stroke="rgb(60, 60, 60)"
                                  stroke-width="1px" opacity="0.25"></line>
                            <line x1="0" y1="297" x2="856.796875" y2="297" fill="rgb(0, 0, 0)" stroke="rgb(60, 60, 60)"
                                  stroke-width="1px" opacity="0.25"></line>
                            <line x1="0" y1="269.99999999999994" x2="856.796875" y2="269.99999999999994"
                                  fill="rgb(0, 0, 0)" stroke="rgb(60, 60, 60)" stroke-width="1px" opacity="0.25"></line>
                            <line x1="0" y1="242.99999999999997" x2="856.796875" y2="242.99999999999997"
                                  fill="rgb(0, 0, 0)" stroke="rgb(60, 60, 60)" stroke-width="1px" opacity="0.25"></line>
                            <line x1="0" y1="216" x2="856.796875" y2="216" fill="rgb(0, 0, 0)" stroke="rgb(60, 60, 60)"
                                  stroke-width="1px" opacity="0.25"></line>
                            <line x1="0" y1="189" x2="856.796875" y2="189" fill="rgb(0, 0, 0)" stroke="rgb(60, 60, 60)"
                                  stroke-width="1px" opacity="0.25"></line>
                            <line x1="0" y1="161.99999999999997" x2="856.796875" y2="161.99999999999997"
                                  fill="rgb(0, 0, 0)" stroke="rgb(60, 60, 60)" stroke-width="1px" opacity="0.25"></line>
                            <line x1="0" y1="135.00000000000003" x2="856.796875" y2="135.00000000000003"
                                  fill="rgb(0, 0, 0)" stroke="rgb(60, 60, 60)" stroke-width="1px" opacity="0.25"></line>
                            <line x1="0" y1="108" x2="856.796875" y2="108" fill="rgb(0, 0, 0)" stroke="rgb(60, 60, 60)"
                                  stroke-width="1px" opacity="0.25"></line>
                            <line x1="0" y1="80.99999999999996" x2="856.796875" y2="80.99999999999996"
                                  fill="rgb(0, 0, 0)" stroke="rgb(60, 60, 60)" stroke-width="1px" opacity="0.25"></line>
                            <line x1="0" y1="53.99999999999998" x2="856.796875" y2="53.99999999999998"
                                  fill="rgb(0, 0, 0)" stroke="rgb(60, 60, 60)" stroke-width="1px" opacity="0.25"></line>
                            <line x1="0" y1="26.999999999999947" x2="856.796875" y2="26.999999999999947"
                                  fill="rgb(0, 0, 0)" stroke="rgb(60, 60, 60)" stroke-width="1px" opacity="0.25"></line>
                            <line x1="0" y1="0" x2="856.796875" y2="0" fill="rgb(0, 0, 0)" stroke="rgb(60, 60, 60)"
                                  stroke-width="1px" opacity="0.25"></line>
                        </g>
                    </g>
                </g>
                <g>
                    <g>
                        <line x1="0" y1="324" x2="856.796875" y2="324" fill="rgb(0, 0, 0)" stroke="rgb(153, 153, 153)"
                              stroke-width="1.5px"></line>
                    </g>
                </g>
                <g>
                    <g>
                        <line x1="77.890625" y1="0" x2="77.890625" y2="378" fill="rgb(0, 0, 0)"
                              stroke="rgb(153, 153, 153)" stroke-width="1.5px"></line>
                    </g>
                </g>
                <g>
                    <g>
                        <g>
                            <g>
                                <g>
                                    <path stroke="rgb(51, 187, 238)" stroke-width="2px"
                                          d="M85.52390625,148.9239993095398L93.31296875000001,165.06691718101501L101.10203125,178.3588829040527L108.89109375,184.24624586105347L116.68015625,192.1748127937317L124.46921875,200.84600293636322L132.25828125,207.6134335398674L140.04734375,212.94837945699692L147.83640625,217.70505452156067L155.62546874999998,222.48127484321594L163.41453124999998,225.45197689533234L171.20359374999998,228.31635081768036L178.99265625,230.86141043901443L186.78171875,233.5537313818932L194.57078125,236.15194702148438L202.35984375,237.40791285037994L210.14890625,239.46522617340085L217.93796874999998,240.07380867004395L225.72703124999998,242.13236117362976L233.51609374999998,242.47880870103836L241.30515624999998,243.20632034540176L249.09421875,244.79546481370923L256.88328125,245.3326898217201L264.67234375,246.5626569986343L272.46140625,247.83020192384717L280.25046875,247.75383138656616L288.03953125,250.27603054046628L295.82859375000004,249.21782666444776L303.61765625000004,250.7308259010315L311.40671875000004,251.04140961170197L319.19578125000004,251.99746960401532L326.98484375000004,253.02714014053345L334.77390625,252.60049992799756L342.56296875,252.96696746349332L350.35203125,253.42191570997235L358.14109375,254.3341457247734L365.93015625,253.76853221654892L373.71921875,255.29787415266037L381.50828125,256.1030679345131L389.29734375,255.52049213647842L397.08640625,256.43285089731216L404.87546875,256.38947153091425L412.66453125,256.60603442788124L420.45359375,257.1565162539482L428.24265625,256.6287218928337L436.03171875,257.75626757740974L443.82078125000004,258.09842625260353L451.60984375,258.6252952516079L459.39890625000004,258.70637306571L467.18796875,258.8107901215553L474.97703125000004,260.036886870861L482.76609375,259.9323491156101L490.55515625000004,260.1399319767952L498.34421875,259.9849137067795L506.13328125000004,261.12693125009537L513.92234375,261.1847502887249L521.7114062500001,261.5539979338646"
                                          style="fill: none;" fill="none"></path>
                                </g>
                                <g>
                                    <path stroke="rgb(204, 51, 17)" stroke-width="2px"
                                          d="M85.52390625,247.4724086523056L93.31296875000001,261.8456720709801L101.10203125,267.5913620889187L108.89109375,271.7105149626732L116.68015625,274.65517008304596L124.46921875,277.62242817878723L132.25828125,278.9642877280712L140.04734375,282.17646503448486L147.83640625,284.76741456985474L155.62546874999998,286.9435162246227L163.41453124999998,288.5207315683365L171.20359374999998,290.0329905152321L178.99265625,291.4938476085663L186.78171875,292.6885504424572L194.57078125,294.03542304039L202.35984375,295.079531237483L210.14890625,295.06398314237595L217.93796874999998,295.9667402654886L225.72703124999998,297.0784300714731L233.51609374999998,297.48771572113037L241.30515624999998,297.8468085229397L249.09421875,298.92363430559635L256.88328125,299.0285844504833L264.67234375,299.70808187127113L272.46140625,299.846463739872L280.25046875,300.8563214689493L288.03953125,301.2085162997246L295.82859375000004,301.4665816873312L303.61765625000004,301.98286132514477L311.40671875000004,302.42505164444447L319.19578125000004,302.698910549283L326.98484375000004,302.93584348261356L334.77390625,303.18375603854656L342.56296875,303.5989740639925L350.35203125,303.8122338205576L358.14109375,303.93342004716396L365.93015625,304.1471062749624L373.71921875,304.14104314148426L381.50828125,304.0575251877308L389.29734375,304.61709970235825L397.08640625,304.8449902385473L404.87546875,305.1203498393297L412.66453125,305.39785788953304L420.45359375,305.63435228168964L428.24265625,305.30337439477444L436.03171875,305.4752282202244L443.82078125000004,305.700292378664L451.60984375,305.7461561411619L459.39890625000004,305.7887268215418L467.18796875,306.16950930655L474.97703125000004,306.16127559542656L482.76609375,306.2269219905138L490.55515625000004,306.55680553615093L498.34421875,306.340697273612L506.13328125000004,306.2659722715616L513.92234375,306.3329624533653L521.7114062500001,306.51976288855076L529.50046875,306.64480143785477L537.2895312500001,306.69560784101486L545.07859375,307.1815828755498L552.86765625,307.14768344163895L560.65671875,307.1594053655863L568.44578125,307.2306733354926L576.23484375,307.22292644530535L584.02390625,307.4211279451847L591.81296875,307.3126734942198"
                                          style="fill: none;" fill="none"></path>
                                </g>
                                <g>
                                    <path stroke="rgb(255, 112, 67)" stroke-width="2px"
                                          d="M85.52390625,310.310675740242L93.31296875000001,310.2996005639434L101.10203125,309.67447017878294L108.89109375,310.31146531552076L116.68015625,309.91752357780933L124.46921875,310.24563585966825L132.25828125,310.4047337695956L140.04734375,310.4112636074424L147.83640625,310.7639331892133L155.62546874999998,311.2505620121956L163.41453124999998,312.26473373919725L171.20359374999998,312.144940584898L178.99265625,312.2478438690305L186.78171875,313.27444361150265L194.57078125,313.43907558918L202.35984375,313.8333713784814L210.14890625,314.00510048121214L217.93796874999998,314.37779208272696L225.72703124999998,314.5894787237048L233.51609374999998,314.75726095587015L241.30515624999998,314.89280135929585L249.09421875,315.04874297976494L256.88328125,315.3459602370858L264.67234375,315.4324202388525L272.46140625,315.5007361024618L280.25046875,315.8460797332227L288.03953125,315.9549812749028L295.82859375000004,315.92178240045905L303.61765625000004,316.08222661167383L311.40671875000004,316.3557380028069L319.19578125000004,316.24618216976523L326.98484375000004,316.3783057741821L334.77390625,316.69352182745934L342.56296875,316.89914784953L350.35203125,316.8059417568147L358.14109375,316.8244057483971L365.93015625,316.8097860328853L373.71921875,317.0706823244691L381.50828125,317.2026107981801L389.29734375,317.1562018766999L397.08640625,317.2946174405515L404.87546875,317.2879829965532L412.66453125,317.53226451203227L420.45359375,317.58541801571846L428.24265625,317.3710629120469L436.03171875,317.7285609729588L443.82078125000004,317.60850378870964L451.60984375,317.712553717196L459.39890625000004,317.6951885931194L467.18796875,317.73510237783194L474.97703125000004,317.84126756340265L482.76609375,317.96555978804827L490.55515625000004,318.06402787193656L498.34421875,318.14041651412845L506.13328125000004,317.94725723192096L513.92234375,318.055735822767L521.7114062500001,318.16650669649243L529.50046875,318.2523340322077L537.2895312500001,318.238219242543L545.07859375,318.26113503053784L552.86765625,318.4547092169523L560.65671875,318.4705776683986L568.44578125,318.41486483439803L576.23484375,318.55395882949233L584.02390625,318.53198751434684L591.81296875,318.60470689460635L599.60203125,318.61886091157794L607.39109375,318.6127248555422L615.18015625,318.62229480966926L622.96921875,318.88564079627395L630.75828125,318.7048934362829L638.54734375,318.861350543797L646.33640625,318.8209579847753L654.12546875,318.84325267374516L661.91453125,318.8228077031672L669.7035937500001,318.91499841213226L677.49265625,318.85538145527244L685.2817187500001,318.90696838125587L693.07078125,319.04250878468156L700.85984375,319.01348158344626L708.64890625,318.94548758491874L716.43796875,319.02289060503244L724.22703125,319.1512217335403L732.01609375,318.9406867660582L739.80515625,319.03477949649096L747.59421875,319.18408566713333"
                                          style="fill: none;" fill="none"></path>
                                </g>
                                <g>
                                    <path stroke="rgb(0, 119, 187)" stroke-width="2px"
                                          d="M85.52390625,228.53826874494553L93.31296875000001,238.27433341741565L101.10203125,243.09349054098126L108.89109375,246.19557791948316L116.68015625,249.40185302495956L124.46921875,256.1215429902077L132.25828125,259.00227972865105L140.04734375,263.7339539229869L147.83640625,265.0358217358589L155.62546874999998,268.89097282290453L163.41453124999998,270.44622892141336L171.20359374999998,272.96302074193954L178.99265625,274.1476491987705L186.78171875,277.4742857515812L194.57078125,277.944860547781L202.35984375,279.61812445521355L210.14890625,280.7932257056236L217.93796874999998,282.2814010977745L225.72703124999998,283.0864862501621L233.51609374999998,284.2631203830242L241.30515624999998,285.68239653110504L249.09421875,286.02250331640244L256.88328125,286.3787073791027L264.67234375,288.06722366809845L272.46140625,287.9819133281708L280.25046875,289.22156059741974L288.03953125,289.0919897854328L295.82859375000004,289.6560543179512L303.61765625000004,290.0107697546482L311.40671875000004,290.71884678304195L319.19578125000004,291.4389796704054L326.98484375000004,291.1300917863846L334.77390625,291.3210382461548L342.56296875,291.9208981990814L350.35203125,292.15052077174187L358.14109375,292.3326803147793L365.93015625,292.8872116059065L373.71921875,293.44529347121716L381.50828125,293.2554473876953L389.29734375,293.3352296948433L397.08640625,293.6856904774904L404.87546875,293.84726272523403L412.66453125,294.420882627368L420.45359375,294.39376348257065L428.24265625,294.003087669611L436.03171875,294.50045169889927L443.82078125000004,294.9713141620159L451.60984375,294.69011472165585L459.39890625000004,295.15557588636875L467.18796875,295.21544279158115L474.97703125000004,295.8045584857464L482.76609375,295.3793807476759L490.55515625000004,295.65487714111805L498.34421875,295.6815899312496L506.13328125000004,295.6628513485193L513.92234375,296.2463947534561L521.7114062500001,295.8842864781618L529.50046875,295.7942326515913L537.2895312500001,296.26794965565205L545.07859375,296.8590548783541L552.86765625,296.62224465608597L560.65671875,296.384380325675L568.44578125,296.5342648476362L576.23484375,296.9913152754307L584.02390625,296.83916160464287L591.81296875,297.21578599512577L599.60203125,296.87533320486546L607.39109375,297.33551578223705L615.18015625,297.1753356009722L622.96921875,297.3124742656946L630.75828125,297.51959243416786L638.54734375,297.7726729363203L646.33640625,297.26818361878395L654.12546875,297.868478089571L661.91453125,297.63936848938465L669.7035937500001,297.6629893630743L677.49265625,297.77757132053375L685.2817187500001,297.8639659434557L693.07078125,297.87806966900826L700.85984375,298.15507078170776L708.64890625,298.37139227986336L716.43796875,298.5640144497156L724.22703125,298.0412814170122L732.01609375,298.4135123491287L739.80515625,298.9206932634115L747.59421875,298.5607978105545L755.38328125,298.988359361887L763.17234375,298.8826628923416L770.96140625,298.7325912863016"
                                          style="fill: none;" fill="none"></path>
                                </g>
                                <g>
                                    <path stroke="rgb(238, 51, 119)" stroke-width="2px"
                                          d="M85.52390625,53.60986733436586L93.31296875000001,70.36780500411986L101.10203125,79.67223250865935L108.89109375,85.12580180168152L116.68015625,93.71205174922942L124.46921875,99.66499471664429L132.25828125,106.96428322792052L140.04734375,112.08967888355255L147.83640625,117.61158013343811L155.62546874999998,124.09442567825317L163.41453124999998,128.22332704067227L171.20359374999998,134.33126413822174L178.99265625,140.72072052955627L186.78171875,143.3608671426773L194.57078125,150.65077328681946L202.35984375,153.32574570178983L210.14890625,156.576824426651L217.93796874999998,161.93211221694946L225.72703124999998,164.1160794496536L233.51609374999998,165.88923418521878L241.30515624999998,171.8017026185989L249.09421875,174.984867811203L256.88328125,179.1531332731247L264.67234375,179.37296712398532L272.46140625,181.1329253911972L280.25046875,182.58189761638639L288.03953125,186.3864233493805L295.82859375000004,188.53580617904666L303.61765625000004,192.18376868963242L311.40671875000004,196.82369524240494L319.19578125000004,199.01368135213852L326.98484375000004,199.68415850400925L334.77390625,201.2799977660179L342.56296875,204.4120749235153L350.35203125,206.99679636955264L358.14109375,208.1823622584343L365.93015625,210.5907579660416L373.71921875,210.7159152030945L381.50828125,214.1629936695099L389.29734375,214.77024042606354L397.08640625,217.25655162334442L404.87546875,219.05197942256925L412.66453125,218.0542459487915L420.45359375,224.7732680439949L428.24265625,223.563707113266L436.03171875,224.92926800251007L443.82078125000004,225.9919377565384L451.60984375,227.46455097198483L459.39890625000004,231.6819410920143L467.18796875,230.39638781547546L474.97703125000004,232.07046443223953L482.76609375,232.61731320619583L490.55515625000004,232.78412783145902L498.34421875,233.54457432031631L506.13328125000004,236.93433666229248L513.92234375,237.48176479339602L521.7114062500001,237.87176871299746L529.50046875,238.36987102031708L537.2895312500001,239.44092535972595L545.07859375,241.52049565315247L552.86765625,242.70132207870483L560.65671875,242.32144886255264L568.44578125,241.92779982089996L576.23484375,244.19727051258087L584.02390625,244.0456881523132L591.81296875,244.6777426600456L599.60203125,246.45423674583435L607.39109375,245.82803213596344L615.18015625,249.3397572040558L622.96921875,249.0337842106819L630.75828125,247.3410635590553L638.54734375,247.49507600069043L646.33640625,251.80609667301178L654.12546875,250.74069911241529L661.91453125,250.26977026462552L669.7035937500001,250.73561364412308L677.49265625,252.31631720066068L685.2817187500001,255.61829888820645L693.07078125,252.38868856430054L700.85984375,253.57764208316803L708.64890625,254.56679785251615L716.43796875,254.6735363602638L724.22703125,254.83889454603192"
                                          style="fill: none;" fill="none"></path>
                                </g>
                                <g>
                                    <path stroke="rgb(0, 153, 136)" stroke-width="2px"
                                          d="M85.52390625,217.71893495321274L93.31296875000001,235.31088942289355L101.10203125,240.32196664810184L108.89109375,249.02733081579206L116.68015625,252.83854329586026L124.46921875,255.1189493536949L132.25828125,258.8096475005149L140.04734375,265.3915912806988L147.83640625,268.61540400981903L155.62546874999998,273.40632954239845L163.41453124999998,276.0842751860618L171.20359374999998,279.54879873991007L178.99265625,281.76318222284317L186.78171875,285.0773706436157L194.57078125,287.177065551281L202.35984375,289.70196837186813L210.14890625,290.9622512161732L217.93796874999998,293.2589657753706L225.72703124999998,294.76539896428585L233.51609374999998,296.16236785054207L241.30515624999998,297.006406724453L249.09421875,297.79193253815174L256.88328125,298.9622158706188L264.67234375,299.80201014876366L272.46140625,300.8839555978775L280.25046875,302.10767859220505L288.03953125,302.2954506576061L295.82859375000004,303.4037327170372L303.61765625000004,303.40968722105026L311.40671875000004,304.373822003603L319.19578125000004,304.3480385988951L326.98484375000004,305.2982527166605L334.77390625,305.8306437134743L342.56296875,306.13392309844494L350.35203125,305.8926449865103L358.14109375,306.22308173775673L365.93015625,307.295109719038L373.71921875,307.4665612131357L381.50828125,307.5953565314412L389.29734375,308.48861561715603L397.08640625,308.4618706405163L404.87546875,308.89939894527197L412.66453125,308.9974209442735L420.45359375,309.05187951028347L428.24265625,309.4163434356451L436.03171875,309.05209274590015L443.82078125000004,309.8177272975445L451.60984375,309.6077988445759L459.39890625000004,310.31303541362286L467.18796875,310.7420192062855L474.97703125000004,311.1967823803425L482.76609375,310.91916570067406L490.55515625000004,311.4381872266531L498.34421875,310.93643275648355L506.13328125000004,311.65662498772144L513.92234375,311.8470866382122L521.7114062500001,312.2003114372492L529.50046875,311.56706804037094L537.2895312500001,311.8321309760213L545.07859375,312.42226054519415L552.86765625,312.4838745743036L560.65671875,312.3554956689477L568.44578125,312.86626839637756L576.23484375,312.44447024166584L584.02390625,312.63679368048906L591.81296875,313.2242447286844L599.60203125,313.2619713395834L607.39109375,313.1506040096283L615.18015625,313.50689759105444L622.96921875,313.5940053462982L630.75828125,313.70602847635746L638.54734375,313.29442439228296L646.33640625,314.11445112526417L654.12546875,313.7547075524926L661.91453125,314.62957406044006L669.7035937500001,314.645586848259L677.49265625,314.72068601846695L685.2817187500001,314.61269022524357L693.07078125,314.754874125123L700.85984375,314.38166251033545L708.64890625,314.7196590676904L716.43796875,314.8853733167052L724.22703125,315.06197364628315"
                                          style="fill: none;" fill="none"></path>
                                </g>
                            </g>
                        </g>
                    </g>
                </g>
                <g>
                    <g>
                        <span fill="rgb(0, 0, 0)" stroke="none" stroke-width="1px">Alt + Scroll to Zoom</span>
                    </g>
                </g>
            </g>
            <g transform="translate(61, 378)" clip-path="url(#clip_1)">
                <clipPath id="clip_1">
                    <rect width="856" height="22"></rect>
                </clipPath>
                <g>
                    <g>
                        <line x1="0" y1="0" x2="0" y2="5" style="visibility: inherit;" fill="rgb(0, 0, 0)"
                              stroke="rgb(204, 204, 204)" stroke-width="1px"></line>
                        <line x1="77.890625" y1="0" x2="77.890625" y2="5" style="visibility: inherit;"
                              fill="rgb(0, 0, 0)" stroke="rgb(204, 204, 204)" stroke-width="1px"></line>
                        <line x1="155.78125" y1="0" x2="155.78125" y2="5" style="visibility: inherit;"
                              fill="rgb(0, 0, 0)" stroke="rgb(204, 204, 204)" stroke-width="1px"></line>
                        <line x1="233.67187499999997" y1="0" x2="233.67187499999997" y2="5" style="visibility: inherit;"
                              fill="rgb(0, 0, 0)" stroke="rgb(204, 204, 204)" stroke-width="1px"></line>
                        <line x1="311.5625" y1="0" x2="311.5625" y2="5" style="visibility: inherit;" fill="rgb(0, 0, 0)"
                              stroke="rgb(204, 204, 204)" stroke-width="1px"></line>
                        <line x1="389.453125" y1="0" x2="389.453125" y2="5" style="visibility: inherit;"
                              fill="rgb(0, 0, 0)" stroke="rgb(204, 204, 204)" stroke-width="1px"></line>
                        <line x1="467.34374999999994" y1="0" x2="467.34374999999994" y2="5" style="visibility: inherit;"
                              fill="rgb(0, 0, 0)" stroke="rgb(204, 204, 204)" stroke-width="1px"></line>
                        <line x1="545.234375" y1="0" x2="545.234375" y2="5" style="visibility: inherit;"
                              fill="rgb(0, 0, 0)" stroke="rgb(204, 204, 204)" stroke-width="1px"></line>
                        <line x1="623.125" y1="0" x2="623.125" y2="5" style="visibility: inherit;" fill="rgb(0, 0, 0)"
                              stroke="rgb(204, 204, 204)" stroke-width="1px"></line>
                        <line x1="701.015625" y1="0" x2="701.015625" y2="5" style="visibility: inherit;"
                              fill="rgb(0, 0, 0)" stroke="rgb(204, 204, 204)" stroke-width="1px"></line>
                        <line x1="778.90625" y1="0" x2="778.90625" y2="5" style="visibility: inherit;"
                              fill="rgb(0, 0, 0)" stroke="rgb(204, 204, 204)" stroke-width="1px"></line>
                        <line x1="856.796875" y1="0" x2="856.796875" y2="5" style="visibility: inherit;"
                              fill="rgb(0, 0, 0)" stroke="rgb(204, 204, 204)" stroke-width="1px"></line>
                    </g>
                    <g transform="translate(0, 8)">
                        <text x="0" y="0" dx="0em" dy="0.95em"
                              style="text-anchor: middle; visibility: hidden; font-family: Roboto, sans-serif; font-size: 12px; font-weight: 200;"
                              fill="rgb(50, 49, 63)" stroke="none" stroke-width="1px">-500
                        </text>
                        <text x="77.890625" y="0" dx="0em" dy="0.95em"
                              style="text-anchor: middle; visibility: inherit; font-family: Roboto, sans-serif; font-size: 12px; font-weight: 200;"
                              fill="rgb(50, 49, 63)" stroke="none" stroke-width="1px">0
                        </text>
                        <text x="155.78125" y="0" dx="0em" dy="0.95em"
                              style="text-anchor: middle; visibility: inherit; font-family: Roboto, sans-serif; font-size: 12px; font-weight: 200;"
                              fill="rgb(50, 49, 63)" stroke="none" stroke-width="1px">500
                        </text>
                        <text x="233.67187499999997" y="0" dx="0em" dy="0.95em"
                              style="text-anchor: middle; visibility: inherit; font-family: Roboto, sans-serif; font-size: 12px; font-weight: 200;"
                              fill="rgb(50, 49, 63)" stroke="none" stroke-width="1px">1k
                        </text>
                        <text x="311.5625" y="0" dx="0em" dy="0.95em"
                              style="text-anchor: middle; visibility: inherit; font-family: Roboto, sans-serif; font-size: 12px; font-weight: 200;"
                              fill="rgb(50, 49, 63)" stroke="none" stroke-width="1px">1.5k
                        </text>
                        <text x="389.453125" y="0" dx="0em" dy="0.95em"
                              style="text-anchor: middle; visibility: inherit; font-family: Roboto, sans-serif; font-size: 12px; font-weight: 200;"
                              fill="rgb(50, 49, 63)" stroke="none" stroke-width="1px">2k
                        </text>
                        <text x="467.34374999999994" y="0" dx="0em" dy="0.95em"
                              style="text-anchor: middle; visibility: inherit; font-family: Roboto, sans-serif; font-size: 12px; font-weight: 200;"
                              fill="rgb(50, 49, 63)" stroke="none" stroke-width="1px">2.5k
                        </text>
                        <text x="545.234375" y="0" dx="0em" dy="0.95em"
                              style="text-anchor: middle; visibility: inherit; font-family: Roboto, sans-serif; font-size: 12px; font-weight: 200;"
                              fill="rgb(50, 49, 63)" stroke="none" stroke-width="1px">3k
                        </text>
                        <text x="623.125" y="0" dx="0em" dy="0.95em"
                              style="text-anchor: middle; visibility: inherit; font-family: Roboto, sans-serif; font-size: 12px; font-weight: 200;"
                              fill="rgb(50, 49, 63)" stroke="none" stroke-width="1px">3.5k
                        </text>
                        <text x="701.015625" y="0" dx="0em" dy="0.95em"
                              style="text-anchor: middle; visibility: inherit; font-family: Roboto, sans-serif; font-size: 12px; font-weight: 200;"
                              fill="rgb(50, 49, 63)" stroke="none" stroke-width="1px">4k
                        </text>
                        <text x="778.90625" y="0" dx="0em" dy="0.95em"
                              style="text-anchor: middle; visibility: inherit; font-family: Roboto, sans-serif; font-size: 12px; font-weight: 200;"
                              fill="rgb(50, 49, 63)" stroke="none" stroke-width="1px">4.5k
                        </text>
                        <text x="856.796875" y="0" dx="0em" dy="0.95em"
                              style="text-anchor: middle; visibility: hidden; font-family: Roboto, sans-serif; font-size: 12px; font-weight: 200;"
                              fill="rgb(50, 49, 63)" stroke="none" stroke-width="1px">5k
                        </text>
                    </g>
                    <line x1="0" y1="0" x2="856.796875" y2="0" fill="rgb(0, 0, 0)" stroke="rgb(204, 204, 204)"
                          stroke-width="1px"></line>
                </g>
            </g>
        </g>
    </g>
</svg>