<svg viewBox="0 0 918.75 400" xmlns="http://www.w3.org/2000/svg">
    <g>
        <g>
            <g>
                <g>
                    <g>
                        <line x1="51.5625" y1="349.356133140945" x2="46.5625" y2="349.356133140945"
                              style="visibility: inherit;" fill="rgb(0, 0, 0)" stroke="rgb(204, 204, 204)"
                              stroke-width="1px"></line>
                        <line x1="51.5625" y1="327.916021230486" x2="46.5625" y2="327.916021230486"
                              style="visibility: inherit;" fill="rgb(0, 0, 0)" stroke="rgb(204, 204, 204)"
                              stroke-width="1px"></line>
                        <line x1="51.5625" y1="312.7040197421766" x2="46.5625" y2="312.7040197421766"
                              style="visibility: inherit;" fill="rgb(0, 0, 0)" stroke="rgb(204, 204, 204)"
                              stroke-width="1px"></line>
                        <line x1="51.5625" y1="300.9046747021155" x2="46.5625" y2="300.9046747021155"
                              style="visibility: inherit;" fill="rgb(0, 0, 0)" stroke="rgb(204, 204, 204)"
                              stroke-width="1px"></line>
                        <line x1="51.5625" y1="291.2639078317177" x2="46.5625" y2="291.2639078317177"
                              style="visibility: inherit;" fill="rgb(0, 0, 0)" stroke="rgb(204, 204, 204)"
                              stroke-width="1px"></line>
                        <line x1="51.5625" y1="283.1127555858675" x2="46.5625" y2="283.1127555858675"
                              style="visibility: inherit;" fill="rgb(0, 0, 0)" stroke="rgb(204, 204, 204)"
                              stroke-width="1px"></line>
                        <line x1="51.5625" y1="276.05190634340823" x2="46.5625" y2="276.05190634340823"
                              style="visibility: inherit;" fill="rgb(0, 0, 0)" stroke="rgb(204, 204, 204)"
                              stroke-width="1px"></line>
                        <line x1="51.5625" y1="269.82379592125875" x2="46.5625" y2="269.82379592125875"
                              style="visibility: inherit;" fill="rgb(0, 0, 0)" stroke="rgb(204, 204, 204)"
                              stroke-width="1px"></line>
                        <line x1="51.5625" y1="264.25256130334714" x2="46.5625" y2="264.25256130334714"
                              style="visibility: inherit;" fill="rgb(0, 0, 0)" stroke="rgb(204, 204, 204)"
                              stroke-width="1px"></line>
                        <line x1="51.5625" y1="227.60044790457877" x2="46.5625" y2="227.60044790457877"
                              style="visibility: inherit;" fill="rgb(0, 0, 0)" stroke="rgb(204, 204, 204)"
                              stroke-width="1px"></line>
                        <line x1="51.5625" y1="206.16033599411983" x2="46.5625" y2="206.16033599411983"
                              style="visibility: inherit;" fill="rgb(0, 0, 0)" stroke="rgb(204, 204, 204)"
                              stroke-width="1px"></line>
                        <line x1="51.5625" y1="190.9483345058104" x2="46.5625" y2="190.9483345058104"
                              style="visibility: inherit;" fill="rgb(0, 0, 0)" stroke="rgb(204, 204, 204)"
                              stroke-width="1px"></line>
                        <line x1="51.5625" y1="179.14898946574934" x2="46.5625" y2="179.14898946574934"
                              style="visibility: inherit;" fill="rgb(0, 0, 0)" stroke="rgb(204, 204, 204)"
                              stroke-width="1px"></line>
                        <line x1="51.5625" y1="169.50822259535144" x2="46.5625" y2="169.50822259535144"
                              style="visibility: inherit;" fill="rgb(0, 0, 0)" stroke="rgb(204, 204, 204)"
                              stroke-width="1px"></line>
                        <line x1="51.5625" y1="161.3570703495013" x2="46.5625" y2="161.3570703495013"
                              style="visibility: inherit;" fill="rgb(0, 0, 0)" stroke="rgb(204, 204, 204)"
                              stroke-width="1px"></line>
                        <line x1="51.5625" y1="154.29622110704202" x2="46.5625" y2="154.29622110704202"
                              style="visibility: inherit;" fill="rgb(0, 0, 0)" stroke="rgb(204, 204, 204)"
                              stroke-width="1px"></line>
                        <line x1="51.5625" y1="148.0681106848925" x2="46.5625" y2="148.0681106848925"
                              style="visibility: inherit;" fill="rgb(0, 0, 0)" stroke="rgb(204, 204, 204)"
                              stroke-width="1px"></line>
                        <line x1="51.5625" y1="142.49687606698092" x2="46.5625" y2="142.49687606698092"
                              style="visibility: inherit;" fill="rgb(0, 0, 0)" stroke="rgb(204, 204, 204)"
                              stroke-width="1px"></line>
                        <line x1="51.5625" y1="105.84476266821255" x2="46.5625" y2="105.84476266821255"
                              style="visibility: inherit;" fill="rgb(0, 0, 0)" stroke="rgb(204, 204, 204)"
                              stroke-width="1px"></line>
                        <line x1="51.5625" y1="84.4046507577536" x2="46.5625" y2="84.4046507577536"
                              style="visibility: inherit;" fill="rgb(0, 0, 0)" stroke="rgb(204, 204, 204)"
                              stroke-width="1px"></line>
                        <line x1="51.5625" y1="69.19264926944417" x2="46.5625" y2="69.19264926944417"
                              style="visibility: inherit;" fill="rgb(0, 0, 0)" stroke="rgb(204, 204, 204)"
                              stroke-width="1px"></line>
                        <line x1="51.5625" y1="57.39330422938311" x2="46.5625" y2="57.39330422938311"
                              style="visibility: inherit;" fill="rgb(0, 0, 0)" stroke="rgb(204, 204, 204)"
                              stroke-width="1px"></line>
                        <line x1="51.5625" y1="47.75253735898522" x2="46.5625" y2="47.75253735898522"
                              style="visibility: inherit;" fill="rgb(0, 0, 0)" stroke="rgb(204, 204, 204)"
                              stroke-width="1px"></line>
                        <line x1="51.5625" y1="39.601385113135066" x2="46.5625" y2="39.601385113135066"
                              style="visibility: inherit;" fill="rgb(0, 0, 0)" stroke="rgb(204, 204, 204)"
                              stroke-width="1px"></line>
                        <line x1="51.5625" y1="32.54053587067584" x2="46.5625" y2="32.54053587067584"
                              style="visibility: inherit;" fill="rgb(0, 0, 0)" stroke="rgb(204, 204, 204)"
                              stroke-width="1px"></line>
                        <line x1="51.5625" y1="26.312425448526312" x2="46.5625" y2="26.312425448526312"
                              style="visibility: inherit;" fill="rgb(0, 0, 0)" stroke="rgb(204, 204, 204)"
                              stroke-width="1px"></line>
                        <line x1="51.5625" y1="20.741190830614695" x2="46.5625" y2="20.741190830614695"
                              style="visibility: inherit;" fill="rgb(0, 0, 0)" stroke="rgb(204, 204, 204)"
                              stroke-width="1px"></line>
                    </g>
                    <g transform="translate(41.5625, 0)">
                        <text x="0" y="349.356133140945" dx="0em" dy="0.3em"
                              style="text-anchor: end; visibility: inherit; font-family: Roboto, sans-serif; font-size: 12px; font-weight: 200;"
                              fill="rgb(50, 49, 63)" stroke="none" stroke-width="1px">0.02
                        </text>
                        <text x="0" y="327.916021230486" dx="0em" dy="0.3em"
                              style="text-anchor: end; visibility: hidden; font-family: Roboto, sans-serif; font-size: 12px; font-weight: 200;"
                              fill="rgb(50, 49, 63)" stroke="none" stroke-width="1px">0.03
                        </text>
                        <text x="0" y="312.7040197421766" dx="0em" dy="0.3em"
                              style="text-anchor: end; visibility: hidden; font-family: Roboto, sans-serif; font-size: 12px; font-weight: 200;"
                              fill="rgb(50, 49, 63)" stroke="none" stroke-width="1px">0.04
                        </text>
                        <text x="0" y="300.9046747021155" dx="0em" dy="0.3em"
                              style="text-anchor: end; visibility: inherit; font-family: Roboto, sans-serif; font-size: 12px; font-weight: 200;"
                              fill="rgb(50, 49, 63)" stroke="none" stroke-width="1px">0.05
                        </text>
                        <text x="0" y="291.2639078317177" dx="0em" dy="0.3em"
                              style="text-anchor: end; visibility: hidden; font-family: Roboto, sans-serif; font-size: 12px; font-weight: 200;"
                              fill="rgb(50, 49, 63)" stroke="none" stroke-width="1px">0.06
                        </text>
                        <text x="0" y="283.1127555858675" dx="0em" dy="0.3em"
                              style="text-anchor: end; visibility: hidden; font-family: Roboto, sans-serif; font-size: 12px; font-weight: 200;"
                              fill="rgb(50, 49, 63)" stroke="none" stroke-width="1px">0.07
                        </text>
                        <text x="0" y="276.05190634340823" dx="0em" dy="0.3em"
                              style="text-anchor: end; visibility: inherit; font-family: Roboto, sans-serif; font-size: 12px; font-weight: 200;"
                              fill="rgb(50, 49, 63)" stroke="none" stroke-width="1px">0.08
                        </text>
                        <text x="0" y="269.82379592125875" dx="0em" dy="0.3em"
                              style="text-anchor: end; visibility: hidden; font-family: Roboto, sans-serif; font-size: 12px; font-weight: 200;"
                              fill="rgb(50, 49, 63)" stroke="none" stroke-width="1px">0.09
                        </text>
                        <text x="0" y="264.25256130334714" dx="0em" dy="0.3em"
                              style="text-anchor: end; visibility: hidden; font-family: Roboto, sans-serif; font-size: 12px; font-weight: 200;"
                              fill="rgb(50, 49, 63)" stroke="none" stroke-width="1px">0.1
                        </text>
                        <text x="0" y="227.60044790457877" dx="0em" dy="0.3em"
                              style="text-anchor: end; visibility: inherit; font-family: Roboto, sans-serif; font-size: 12px; font-weight: 200;"
                              fill="rgb(50, 49, 63)" stroke="none" stroke-width="1px">0.2
                        </text>
                        <text x="0" y="206.16033599411983" dx="0em" dy="0.3em"
                              style="text-anchor: end; visibility: hidden; font-family: Roboto, sans-serif; font-size: 12px; font-weight: 200;"
                              fill="rgb(50, 49, 63)" stroke="none" stroke-width="1px">0.3
                        </text>
                        <text x="0" y="190.9483345058104" dx="0em" dy="0.3em"
                              style="text-anchor: end; visibility: hidden; font-family: Roboto, sans-serif; font-size: 12px; font-weight: 200;"
                              fill="rgb(50, 49, 63)" stroke="none" stroke-width="1px">0.4
                        </text>
                        <text x="0" y="179.14898946574934" dx="0em" dy="0.3em"
                              style="text-anchor: end; visibility: inherit; font-family: Roboto, sans-serif; font-size: 12px; font-weight: 200;"
                              fill="rgb(50, 49, 63)" stroke="none" stroke-width="1px">0.5
                        </text>
                        <text x="0" y="169.50822259535144" dx="0em" dy="0.3em"
                              style="text-anchor: end; visibility: hidden; font-family: Roboto, sans-serif; font-size: 12px; font-weight: 200;"
                              fill="rgb(50, 49, 63)" stroke="none" stroke-width="1px">0.6
                        </text>
                        <text x="0" y="161.3570703495013" dx="0em" dy="0.3em"
                              style="text-anchor: end; visibility: hidden; font-family: Roboto, sans-serif; font-size: 12px; font-weight: 200;"
                              fill="rgb(50, 49, 63)" stroke="none" stroke-width="1px">0.7
                        </text>
                        <text x="0" y="154.29622110704202" dx="0em" dy="0.3em"
                              style="text-anchor: end; visibility: inherit; font-family: Roboto, sans-serif; font-size: 12px; font-weight: 200;"
                              fill="rgb(50, 49, 63)" stroke="none" stroke-width="1px">0.8
                        </text>
                        <text x="0" y="148.0681106848925" dx="0em" dy="0.3em"
                              style="text-anchor: end; visibility: hidden; font-family: Roboto, sans-serif; font-size: 12px; font-weight: 200;"
                              fill="rgb(50, 49, 63)" stroke="none" stroke-width="1px">0.9
                        </text>
                        <text x="0" y="142.49687606698092" dx="0em" dy="0.3em"
                              style="text-anchor: end; visibility: hidden; font-family: Roboto, sans-serif; font-size: 12px; font-weight: 200;"
                              fill="rgb(50, 49, 63)" stroke="none" stroke-width="1px">1
                        </text>
                        <text x="0" y="105.84476266821255" dx="0em" dy="0.3em"
                              style="text-anchor: end; visibility: inherit; font-family: Roboto, sans-serif; font-size: 12px; font-weight: 200;"
                              fill="rgb(50, 49, 63)" stroke="none" stroke-width="1px">2
                        </text>
                        <text x="0" y="84.4046507577536" dx="0em" dy="0.3em"
                              style="text-anchor: end; visibility: hidden; font-family: Roboto, sans-serif; font-size: 12px; font-weight: 200;"
                              fill="rgb(50, 49, 63)" stroke="none" stroke-width="1px">3
                        </text>
                        <text x="0" y="69.19264926944417" dx="0em" dy="0.3em"
                              style="text-anchor: end; visibility: hidden; font-family: Roboto, sans-serif; font-size: 12px; font-weight: 200;"
                              fill="rgb(50, 49, 63)" stroke="none" stroke-width="1px">4
                        </text>
                        <text x="0" y="57.39330422938311" dx="0em" dy="0.3em"
                              style="text-anchor: end; visibility: inherit; font-family: Roboto, sans-serif; font-size: 12px; font-weight: 200;"
                              fill="rgb(50, 49, 63)" stroke="none" stroke-width="1px">5
                        </text>
                        <text x="0" y="47.75253735898522" dx="0em" dy="0.3em"
                              style="text-anchor: end; visibility: hidden; font-family: Roboto, sans-serif; font-size: 12px; font-weight: 200;"
                              fill="rgb(50, 49, 63)" stroke="none" stroke-width="1px">6
                        </text>
                        <text x="0" y="39.601385113135066" dx="0em" dy="0.3em"
                              style="text-anchor: end; visibility: hidden; font-family: Roboto, sans-serif; font-size: 12px; font-weight: 200;"
                              fill="rgb(50, 49, 63)" stroke="none" stroke-width="1px">7
                        </text>
                        <text x="0" y="32.54053587067584" dx="0em" dy="0.3em"
                              style="text-anchor: end; visibility: inherit; font-family: Roboto, sans-serif; font-size: 12px; font-weight: 200;"
                              fill="rgb(50, 49, 63)" stroke="none" stroke-width="1px">8
                        </text>
                        <text x="0" y="26.312425448526312" dx="0em" dy="0.3em"
                              style="text-anchor: end; visibility: hidden; font-family: Roboto, sans-serif; font-size: 12px; font-weight: 200;"
                              fill="rgb(50, 49, 63)" stroke="none" stroke-width="1px">9
                        </text>
                        <text x="0" y="20.741190830614695" dx="0em" dy="0.3em"
                              style="text-anchor: end; visibility: hidden; font-family: Roboto, sans-serif; font-size: 12px; font-weight: 200;"
                              fill="rgb(50, 49, 63)" stroke="none" stroke-width="1px">10
                        </text>
                    </g>
                    <line x1="51.5625" y1="0" x2="51.5625" y2="378" fill="rgb(0, 0, 0)" stroke="rgb(204, 204, 204)"
                          stroke-width="1px"></line>
                </g>
            </g>
            <g transform="translate(51, 0)" clip-path="url(#clip_0)">
                <clipPath id="clip_0">
                    <rect width="867" height="378"></rect>
                </clipPath>
                <g>
                    <g>
                        <g>
                            <line x1="0" y1="0" x2="0" y2="378" fill="rgb(0, 0, 0)" stroke="rgb(60, 60, 60)"
                                  stroke-width="1px" opacity="0.25"></line>
                            <line x1="78.83522727272728" y1="0" x2="78.83522727272728" y2="378" fill="rgb(0, 0, 0)"
                                  stroke="rgb(60, 60, 60)" stroke-width="1px" opacity="0.25"></line>
                            <line x1="157.67045454545456" y1="0" x2="157.67045454545456" y2="378" fill="rgb(0, 0, 0)"
                                  stroke="rgb(60, 60, 60)" stroke-width="1px" opacity="0.25"></line>
                            <line x1="236.5056818181818" y1="0" x2="236.5056818181818" y2="378" fill="rgb(0, 0, 0)"
                                  stroke="rgb(60, 60, 60)" stroke-width="1px" opacity="0.25"></line>
                            <line x1="315.3409090909091" y1="0" x2="315.3409090909091" y2="378" fill="rgb(0, 0, 0)"
                                  stroke="rgb(60, 60, 60)" stroke-width="1px" opacity="0.25"></line>
                            <line x1="394.1761363636364" y1="0" x2="394.1761363636364" y2="378" fill="rgb(0, 0, 0)"
                                  stroke="rgb(60, 60, 60)" stroke-width="1px" opacity="0.25"></line>
                            <line x1="473.0113636363636" y1="0" x2="473.0113636363636" y2="378" fill="rgb(0, 0, 0)"
                                  stroke="rgb(60, 60, 60)" stroke-width="1px" opacity="0.25"></line>
                            <line x1="551.8465909090909" y1="0" x2="551.8465909090909" y2="378" fill="rgb(0, 0, 0)"
                                  stroke="rgb(60, 60, 60)" stroke-width="1px" opacity="0.25"></line>
                            <line x1="630.6818181818182" y1="0" x2="630.6818181818182" y2="378" fill="rgb(0, 0, 0)"
                                  stroke="rgb(60, 60, 60)" stroke-width="1px" opacity="0.25"></line>
                            <line x1="709.5170454545455" y1="0" x2="709.5170454545455" y2="378" fill="rgb(0, 0, 0)"
                                  stroke="rgb(60, 60, 60)" stroke-width="1px" opacity="0.25"></line>
                            <line x1="788.3522727272727" y1="0" x2="788.3522727272727" y2="378" fill="rgb(0, 0, 0)"
                                  stroke="rgb(60, 60, 60)" stroke-width="1px" opacity="0.25"></line>
                            <line x1="867.1875" y1="0" x2="867.1875" y2="378" fill="rgb(0, 0, 0)"
                                  stroke="rgb(60, 60, 60)" stroke-width="1px" opacity="0.25"></line>
                        </g>
                        <g>
                            <line x1="0" y1="349.356133140945" x2="867.1875" y2="349.356133140945" fill="rgb(0, 0, 0)"
                                  stroke="rgb(60, 60, 60)" stroke-width="1px" opacity="0.25"></line>
                            <line x1="0" y1="327.916021230486" x2="867.1875" y2="327.916021230486" fill="rgb(0, 0, 0)"
                                  stroke="rgb(60, 60, 60)" stroke-width="1px" opacity="0.25"></line>
                            <line x1="0" y1="312.7040197421766" x2="867.1875" y2="312.7040197421766" fill="rgb(0, 0, 0)"
                                  stroke="rgb(60, 60, 60)" stroke-width="1px" opacity="0.25"></line>
                            <line x1="0" y1="300.9046747021155" x2="867.1875" y2="300.9046747021155" fill="rgb(0, 0, 0)"
                                  stroke="rgb(60, 60, 60)" stroke-width="1px" opacity="0.25"></line>
                            <line x1="0" y1="291.2639078317177" x2="867.1875" y2="291.2639078317177" fill="rgb(0, 0, 0)"
                                  stroke="rgb(60, 60, 60)" stroke-width="1px" opacity="0.25"></line>
                            <line x1="0" y1="283.1127555858675" x2="867.1875" y2="283.1127555858675" fill="rgb(0, 0, 0)"
                                  stroke="rgb(60, 60, 60)" stroke-width="1px" opacity="0.25"></line>
                            <line x1="0" y1="276.05190634340823" x2="867.1875" y2="276.05190634340823"
                                  fill="rgb(0, 0, 0)" stroke="rgb(60, 60, 60)" stroke-width="1px" opacity="0.25"></line>
                            <line x1="0" y1="269.82379592125875" x2="867.1875" y2="269.82379592125875"
                                  fill="rgb(0, 0, 0)" stroke="rgb(60, 60, 60)" stroke-width="1px" opacity="0.25"></line>
                            <line x1="0" y1="264.25256130334714" x2="867.1875" y2="264.25256130334714"
                                  fill="rgb(0, 0, 0)" stroke="rgb(60, 60, 60)" stroke-width="1px" opacity="0.25"></line>
                            <line x1="0" y1="227.60044790457877" x2="867.1875" y2="227.60044790457877"
                                  fill="rgb(0, 0, 0)" stroke="rgb(60, 60, 60)" stroke-width="1px" opacity="0.25"></line>
                            <line x1="0" y1="206.16033599411983" x2="867.1875" y2="206.16033599411983"
                                  fill="rgb(0, 0, 0)" stroke="rgb(60, 60, 60)" stroke-width="1px" opacity="0.25"></line>
                            <line x1="0" y1="190.9483345058104" x2="867.1875" y2="190.9483345058104" fill="rgb(0, 0, 0)"
                                  stroke="rgb(60, 60, 60)" stroke-width="1px" opacity="0.25"></line>
                            <line x1="0" y1="179.14898946574934" x2="867.1875" y2="179.14898946574934"
                                  fill="rgb(0, 0, 0)" stroke="rgb(60, 60, 60)" stroke-width="1px" opacity="0.25"></line>
                            <line x1="0" y1="169.50822259535144" x2="867.1875" y2="169.50822259535144"
                                  fill="rgb(0, 0, 0)" stroke="rgb(60, 60, 60)" stroke-width="1px" opacity="0.25"></line>
                            <line x1="0" y1="161.3570703495013" x2="867.1875" y2="161.3570703495013" fill="rgb(0, 0, 0)"
                                  stroke="rgb(60, 60, 60)" stroke-width="1px" opacity="0.25"></line>
                            <line x1="0" y1="154.29622110704202" x2="867.1875" y2="154.29622110704202"
                                  fill="rgb(0, 0, 0)" stroke="rgb(60, 60, 60)" stroke-width="1px" opacity="0.25"></line>
                            <line x1="0" y1="148.0681106848925" x2="867.1875" y2="148.0681106848925" fill="rgb(0, 0, 0)"
                                  stroke="rgb(60, 60, 60)" stroke-width="1px" opacity="0.25"></line>
                            <line x1="0" y1="142.49687606698092" x2="867.1875" y2="142.49687606698092"
                                  fill="rgb(0, 0, 0)" stroke="rgb(60, 60, 60)" stroke-width="1px" opacity="0.25"></line>
                            <line x1="0" y1="105.84476266821255" x2="867.1875" y2="105.84476266821255"
                                  fill="rgb(0, 0, 0)" stroke="rgb(60, 60, 60)" stroke-width="1px" opacity="0.25"></line>
                            <line x1="0" y1="84.4046507577536" x2="867.1875" y2="84.4046507577536" fill="rgb(0, 0, 0)"
                                  stroke="rgb(60, 60, 60)" stroke-width="1px" opacity="0.25"></line>
                            <line x1="0" y1="69.19264926944417" x2="867.1875" y2="69.19264926944417" fill="rgb(0, 0, 0)"
                                  stroke="rgb(60, 60, 60)" stroke-width="1px" opacity="0.25"></line>
                            <line x1="0" y1="57.39330422938311" x2="867.1875" y2="57.39330422938311" fill="rgb(0, 0, 0)"
                                  stroke="rgb(60, 60, 60)" stroke-width="1px" opacity="0.25"></line>
                            <line x1="0" y1="47.75253735898522" x2="867.1875" y2="47.75253735898522" fill="rgb(0, 0, 0)"
                                  stroke="rgb(60, 60, 60)" stroke-width="1px" opacity="0.25"></line>
                            <line x1="0" y1="39.601385113135066" x2="867.1875" y2="39.601385113135066"
                                  fill="rgb(0, 0, 0)" stroke="rgb(60, 60, 60)" stroke-width="1px" opacity="0.25"></line>
                            <line x1="0" y1="32.54053587067584" x2="867.1875" y2="32.54053587067584" fill="rgb(0, 0, 0)"
                                  stroke="rgb(60, 60, 60)" stroke-width="1px" opacity="0.25"></line>
                            <line x1="0" y1="26.312425448526312" x2="867.1875" y2="26.312425448526312"
                                  fill="rgb(0, 0, 0)" stroke="rgb(60, 60, 60)" stroke-width="1px" opacity="0.25"></line>
                            <line x1="0" y1="20.741190830614695" x2="867.1875" y2="20.741190830614695"
                                  fill="rgb(0, 0, 0)" stroke="rgb(60, 60, 60)" stroke-width="1px" opacity="0.25"></line>
                        </g>
                    </g>
                </g>
                <g>
                    <g>
                        <line x1="78.83522727272728" y1="0" x2="78.83522727272728" y2="378" fill="rgb(0, 0, 0)"
                              stroke="rgb(153, 153, 153)" stroke-width="1.5px"></line>
                    </g>
                </g>
                <g>
                    <g>
                        <g>
                            <g>
                                <g>
                                    <path stroke="rgb(51, 187, 238)" stroke-width="2px"
                                          d="M86.56107954545455,53.99999999999998L94.44460227272728,78.39429636923133L102.328125,93.3352119326526L110.21164772727272,108.40563163054024L118.09517045454545,118.24280038867755L125.97869318181819,130.0602922558621L133.8622159090909,140.2323253696304L141.74573863636365,152.00313425122408L149.62926136363637,158.75572404106182L157.5127840909091,160.7390298169081L165.3963068181818,167.707800714706L173.27982954545453,180.00624368442814L181.16335227272728,184.07658329690668L189.046875,184.95110170884507L196.93039772727272,188.22396880689786L204.81392045454547,197.4414722231769L212.6974431818182,193.32562766869947L220.5809659090909,200.62012225367684L228.46448863636363,202.7824846976596L236.34801136363635,204.64146119571697L244.2315340909091,204.94205810180836L252.1150568181818,211.65947147866544L259.99857954545456,218.65999534375626L267.88210227272725,208.37936525959773L275.765625,215.4413891700958L283.64914772727275,218.06574359190475L291.53267045454544,213.38627332021272L299.4161931818182,220.51296134621649L307.29971590909093,214.97914023472458L315.1832386363636,219.832672263049L323.0667613636364,222.83108823879726L330.9502840909091,227.86721047932025L338.8338068181818,221.82143739785909L346.7173295454545,228.27361670091304L354.60085227272725,230.60499601999516L362.484375,225.68793604652757L370.3678977272727,230.22879840469767L378.25142045454544,236.65922090998555L386.1349431818182,232.348498300154L394.0184659090909,226.37990370968677L401.9019886363636,233.15513187428635L409.7855113636364,233.8539328624293L417.6690340909091,235.66249139018834L425.5525568181818,228.03034522014508L433.43607954545456,231.55737305707365L441.31960227272725,236.27920487421375L449.203125,236.3584126681307L457.0866477272727,238.8869462313654L464.9701704545455,235.7025097970404L472.85369318181813,232.29999186074218L480.73721590909093,239.73966914191496L488.6207386363636,240.71761560137224L496.5042613636364,237.69963936493735L504.38778409090907,242.78401552246808L512.2713068181819,243.24264327521846L520.1548295454545,239.56176683096746L528.0383522727274,244.84135926934516"
                                          style="fill: none;" fill="none"></path>
                                </g>
                                <g>
                                    <path stroke="rgb(204, 51, 17)" stroke-width="2px"
                                          d="M86.56107954545455,60.738975277394L94.44460227272728,83.22830697500598L102.328125,101.40289484813277L110.21164772727272,110.66121637610068L118.09517045454545,126.63156062096417L125.97869318181819,135.38291949216335L133.8622159090909,144.13773064901818L141.74573863636365,156.83060826408558L149.62926136363637,170.0348464526865L157.5127840909091,168.8971137039474L165.3963068181818,187.94043472752494L173.27982954545453,190.3624442037844L181.16335227272728,210.32944990197942L189.046875,203.79218049800488L196.93039772727272,207.62959234297196L204.81392045454547,209.1607670473121L212.6974431818182,218.57935395094486L220.5809659090909,220.14448685556098L228.46448863636363,223.2782687495812L236.34801136363635,223.39158503568189L244.2315340909091,234.65336970456812L252.1150568181818,233.44754775095754L259.99857954545456,235.53722473123014L267.88210227272725,239.4168262435288L275.765625,235.8617078523485L283.64914772727275,247.83167027516845L291.53267045454544,247.62650148601662L299.4161931818182,242.2965542553135L307.29971590909093,243.33608632882883L315.1832386363636,249.6961029324408L323.0667613636364,245.03096372217635L330.9502840909091,261.5970083369799L338.8338068181818,243.6091013944719L346.7173295454545,259.0398818451928L354.60085227272725,256.9981831354997L362.484375,262.70525610188093L370.3678977272727,261.61809168017174L378.25142045454544,271.52613707838657L386.1349431818182,271.2848416725811L394.0184659090909,258.2853500084608L401.9019886363636,267.5689958549669L409.7855113636364,270.20109836723776L417.6690340909091,273.5909192438747L425.5525568181818,279.1530770950288L433.43607954545456,270.8383567392859L441.31960227272725,272.47588682546467L449.203125,271.9014609567011L457.0866477272727,286.03256725407505L464.9701704545455,280.7920940373531L472.85369318181813,274.86008759703446L480.73721590909093,279.48633335354765L488.6207386363636,286.03779551060995L496.5042613636364,271.9076076903159L504.38778409090907,280.71175100704005L512.2713068181819,281.1827992042745L520.1548295454545,284.3135969448749L528.0383522727274,281.73775957011395L535.921875,282.99040035290767L543.8053977272727,281.41565481410555L551.6889204545455,293.81857325512544L559.5724431818181,284.1340516434543L567.4559659090909,281.9854501153044L575.3394886363636,287.1137750764364L583.2230113636364,297.60973331650996L591.106534090909,290.520597661454L598.9900568181819,292.6168909685835"
                                          style="fill: none;" fill="none"></path>
                                </g>
                                <g>
                                    <path stroke="rgb(255, 112, 67)" stroke-width="2px"
                                          d="M86.56107954545455,65.00788018299525L94.44460227272728,81.18434050503801L102.328125,97.99168189766606L110.21164772727272,114.87554661844239L118.09517045454545,127.97324495493378L125.97869318181819,136.33792553128617L133.8622159090909,151.79102092723943L141.74573863636365,162.31597018695322L149.62926136363637,172.40485177693196L157.5127840909091,178.60189709909645L165.3963068181818,184.66434273258378L173.27982954545453,189.14284846592827L181.16335227272728,205.51207685436762L189.046875,201.09572244542377L196.93039772727272,209.90719760419736L204.81392045454547,222.60875045650906L212.6974431818182,220.15345557548153L220.5809659090909,223.01851113099923L228.46448863636363,237.69613440556842L236.34801136363635,224.04127382424912L244.2315340909091,248.4381128580366L252.1150568181818,244.87241036503121L259.99857954545456,244.3691707125079L267.88210227272725,244.5570214236884L275.765625,246.02894575728897L283.64914772727275,262.92678342843215L291.53267045454544,251.23313866725906L299.4161931818182,258.82539764143564L307.29971590909093,256.340034067425L315.1832386363636,264.2807566187556L323.0667613636364,263.2203575309766L330.9502840909091,265.6833323824609L338.8338068181818,271.2985687218677L346.7173295454545,261.3968771813799L354.60085227272725,277.70429566261936L362.484375,294.2375073012047L370.3678977272727,270.78095874148124L378.25142045454544,281.72982527205687L386.1349431818182,285.22203024677833L394.0184659090909,277.3235315111144L401.9019886363636,289.4004793177298L409.7855113636364,286.8354525958926L417.6690340909091,288.017982452512L425.5525568181818,292.1507516527001L433.43607954545456,281.7805715806018L441.31960227272725,287.9937625752813L449.203125,288.9783401189005L457.0866477272727,301.97707202154845L464.9701704545455,282.673517887245L472.85369318181813,301.6028119607983L480.73721590909093,308.13425554348237L488.6207386363636,294.6977007299164L496.5042613636364,295.87075789331L504.38778409090907,298.4026684132877L512.2713068181819,305.4982280957359L520.1548295454545,300.30541401139305L528.0383522727274,293.43153669360566L535.921875,304.7795237645389L543.8053977272727,309.02778618142673L551.6889204545455,299.26716601802246L559.5724431818181,307.53492837319675L567.4559659090909,297.74225368733966L575.3394886363636,303.9331267364368L583.2230113636364,301.68129828813875L591.106534090909,301.4672038921076L598.9900568181819,302.9355755712845L606.8735795454545,305.66700549515855L614.7571022727273,321.3482089999676L622.640625,319.8845741916724L630.5241477272727,301.9691724857407L638.4076704545454,324L646.2911931818182,306.91614508726207L654.1747159090909,311.2339987432393L662.0582386363636,316.1713697085818L669.9417613636364,305.04852558572674L677.8252840909091,323.5355407722764L685.7088068181819,318.87683880643516L693.5923295454546,311.959472953285L701.4758522727273,304.01587907978274L709.359375,313.90294319349306L717.2428977272727,304.4023836754302L725.1264204545454,313.3165596003796L733.0099431818182,323.8993169741804L740.8934659090909,319.62739433708003L748.7769886363636,321.9207229749103L756.6605113636364,309.88991894285243"
                                          style="fill: none;" fill="none"></path>
                                </g>
                                <g>
                                    <path stroke="rgb(0, 119, 187)" stroke-width="2px"
                                          d="M86.56107954545455,54.24645371783884L94.44460227272728,77.52101926240955L102.328125,93.14372198844119L110.21164772727272,108.32945328962272L118.09517045454545,117.09198957180064L125.97869318181819,129.45317112013092L133.8622159090909,136.75488572864958L141.74573863636365,151.6548027204178L149.62926136363637,159.31056439421636L157.5127840909091,170.37169260366915L165.3963068181818,171.79461476813455L173.27982954545453,184.37679234603567L181.16335227272728,193.06876829504125L189.046875,198.66862582590008L196.93039772727272,199.26739787903657L204.81392045454547,191.05420099902085L212.6974431818182,206.25854995991784L220.5809659090909,216.61890743517688L228.46448863636363,213.90928397518363L236.34801136363635,214.37927235215076L244.2315340909091,222.83135823303377L252.1150568181818,230.067499673426L259.99857954545456,238.55089659827357L267.88210227272725,232.65490826448166L275.765625,231.62332643155472L283.64914772727275,235.39666496049063L291.53267045454544,237.82500250421486L299.4161931818182,242.05411788304076L307.29971590909093,236.76390088697937L315.1832386363636,253.771061337161L323.0667613636364,246.15310416283566L330.9502840909091,249.60583853715855L338.8338068181818,247.8194958985344L346.7173295454545,248.3701252271382L354.60085227272725,248.63927046350864L362.484375,256.10059500819597L370.3678977272727,252.96511193609692L378.25142045454544,259.2026391917438L386.1349431818182,257.29942014172224L394.0184659090909,258.4889977415689L401.9019886363636,258.6558208856617L409.7855113636364,259.7725356809447L417.6690340909091,267.5567361340668L425.5525568181818,255.89683125261604L433.43607954545456,253.0835096040978L441.31960227272725,267.7129401746389L449.203125,267.9834805919581L457.0866477272727,268.6324789943137L464.9701704545455,267.03385025214794L472.85369318181813,256.75975242212445L480.73721590909093,275.86628947644346L488.6207386363636,270.7890718486493L496.5042613636364,276.1887478711178L504.38778409090907,267.7273566023588L512.2713068181819,273.94909020466196L520.1548295454545,277.8789569801255L528.0383522727274,264.47942586018377L535.921875,264.149086985441L543.8053977272727,273.76036812479686L551.6889204545455,272.36197099766684L559.5724431818181,264.0903558309213L567.4559659090909,267.9045445670837L575.3394886363636,273.05499275729164L583.2230113636364,272.86405536810184L591.106534090909,277.70306100583707L598.9900568181819,268.94981458147805L606.8735795454545,268.7882794771641L614.7571022727273,276.6292251604682L622.640625,271.44324778912716L630.5241477272727,279.06114909318376L638.4076704545454,282.3756261674621L646.2911931818182,284.7186884041445L654.1747159090909,281.346719714095L662.0582386363636,275.7814109857213L669.9417613636364,277.04034658072845L677.8252840909091,283.6547225697775L685.7088068181819,283.9389844206852L693.5923295454546,277.5058609944205L701.4758522727273,270.04342822783616L709.359375,284.62011079823395L717.2428977272727,278.7684159144889L725.1264204545454,275.1861139884295L733.0099431818182,280.6164257736707L740.8934659090909,276.63247634664674L748.7769886363636,278.0663356751332L756.6605113636364,280.66822075838445L764.5440340909091,277.73192801418116L772.4275568181818,274.9218117960654L780.3110795454546,288.0317611843069"
                                          style="fill: none;" fill="none"></path>
                                </g>
                                <g>
                                    <path stroke="rgb(238, 51, 119)" stroke-width="2px"
                                          d="M86.56107954545455,55.65160473374834L94.44460227272728,77.0852420417267L102.328125,91.53919093518027L110.21164772727272,104.02034477665228L118.09517045454545,113.81294469303067L125.97869318181819,124.83446921665218L133.8622159090909,130.98988343947426L141.74573863636365,129.5739649185514L149.62926136363637,143.67037257971631L157.5127840909091,148.91653634261957L165.3963068181818,156.72395715208643L173.27982954545453,157.77368389709892L181.16335227272728,164.20186738552363L189.046875,169.7434495206212L196.93039772727272,169.4503700110178L204.81392045454547,175.07279013561228L212.6974431818182,181.84678165562238L220.5809659090909,179.1265347652295L228.46448863636363,179.8647234806198L236.34801136363635,181.38469551399788L244.2315340909091,182.2328061004751L252.1150568181818,191.70341328994988L259.99857954545456,192.64724820220206L267.88210227272725,191.62653914954618L275.765625,190.12904220387983L283.64914772727275,194.5432033331847L291.53267045454544,196.9087590201762L299.4161931818182,194.04616113845785L307.29971590909093,200.67969286261408L315.1832386363636,199.29643172100154L323.0667613636364,199.30236498050192L330.9502840909091,202.78130694900824L338.8338068181818,199.55754281984676L346.7173295454545,206.52889034873826L354.60085227272725,208.28361315032663L362.484375,204.65590805359662L370.3678977272727,207.56328873484148L378.25142045454544,205.8713257150815L386.1349431818182,212.64249614630708L394.0184659090909,205.94272226013197L401.9019886363636,211.50802716639996L409.7855113636364,211.32669091776262L417.6690340909091,212.50306546375833L425.5525568181818,212.69828355098556L433.43607954545456,214.03340485807678L441.31960227272725,218.06538501809405L449.203125,218.7190467608038L457.0866477272727,217.33161978561813L464.9701704545455,222.55928531156388L472.85369318181813,216.95829608349624L480.73721590909093,218.71264578290928L488.6207386363636,222.44252272353745L496.5042613636364,223.82983638891162L504.38778409090907,221.2280520580619L512.2713068181819,222.8436210244092L520.1548295454545,225.86685741757307L528.0383522727274,221.92466750883602L535.921875,225.009715729881L543.8053977272727,226.1532437826269L551.6889204545455,224.94994578048255L559.5724431818181,229.74509484819322L567.4559659090909,227.00383608991982L575.3394886363636,229.01780640555413L583.2230113636364,233.34500914783L591.106534090909,230.2436648200152L598.9900568181819,227.89913077284098L606.8735795454545,230.8762345485547L614.7571022727273,234.48508420631583L622.640625,234.42300413018657L630.5241477272727,234.56322960948404L638.4076704545454,230.81095470557005L646.2911931818182,233.36610727734498L654.1747159090909,237.39273365045864L662.0582386363636,234.13857230424247L669.9417613636364,234.7780285525072L677.8252840909091,230.93018975594816L685.7088068181819,234.06724418362103L693.5923295454546,237.8829646508184L701.4758522727273,233.7730821195402L709.359375,238.14310466529074L717.2428977272727,242.64249394937374L725.1264204545454,237.32554123242213L733.0099431818182,240.9882466729047"
                                          style="fill: none;" fill="none"></path>
                                </g>
                                <g>
                                    <path stroke="rgb(0, 153, 136)" stroke-width="2px"
                                          d="M86.56107954545455,55.05348895683232L94.44460227272728,79.98748008810195L102.328125,90.89721771621736L110.21164772727272,109.24082747315704L118.09517045454545,123.06759341052198L125.97869318181819,125.83918541510393L133.8622159090909,136.44396866549044L141.74573863636365,144.02596226108304L149.62926136363637,159.02577694367358L157.5127840909091,167.41773608965372L165.3963068181818,161.80377018920922L173.27982954545453,183.87108898158803L181.16335227272728,184.1161896915641L189.046875,201.125018662219L196.93039772727272,201.3182804605996L204.81392045454547,204.68478296561048L212.6974431818182,211.50393569271998L220.5809659090909,218.61395504753344L228.46448863636363,214.42661047286657L236.34801136363635,222.5058626408841L244.2315340909091,229.57015898956286L252.1150568181818,224.02873015162456L259.99857954545456,227.74107259723147L267.88210227272725,226.78042633063706L275.765625,219.17309618685658L283.64914772727275,234.40799960301575L291.53267045454544,236.65800986660395L299.4161931818182,249.10616427402172L307.29971590909093,237.2920172382016L315.1832386363636,252.86307693263367L323.0667613636364,259.12302493476403L330.9502840909091,246.94283623554438L338.8338068181818,256.19741987515397L346.7173295454545,252.66220614226387L354.60085227272725,257.92556540974346L362.484375,253.70826277257842L370.3678977272727,261.94093959209357L378.25142045454544,262.8021449385312L386.1349431818182,259.94770603953094L394.0184659090909,271.4407112130126L401.9019886363636,264.3154361725525L409.7855113636364,267.2075716686836L417.6690340909091,266.43604299011497L425.5525568181818,273.00254834591965L433.43607954545456,267.68608234151793L441.31960227272725,277.11515598773764L449.203125,269.8166152900882L457.0866477272727,275.6679036165382L464.9701704545455,282.3841631199017L472.85369318181813,281.3111978988554L480.73721590909093,284.4723253595189L488.6207386363636,287.0290498116783L496.5042613636364,286.7181368794908L504.38778409090907,283.6476892928035L512.2713068181819,295.46662905559907L520.1548295454545,280.06950098135763L528.0383522727274,291.64262331573644L535.921875,275.23126605987517L543.8053977272727,290.41575619038684L551.6889204545455,297.3731027579663L559.5724431818181,279.7461364579836L567.4559659090909,281.05015372699904L575.3394886363636,295.1901204966254L583.2230113636364,296.500492006544L591.106534090909,296.29044306197306L598.9900568181819,297.0528377665958L606.8735795454545,292.0589827169724L614.7571022727273,286.97499076683897L622.640625,289.2060676816181L630.5241477272727,295.0628279224842L638.4076704545454,298.5614787378239L646.2911931818182,289.85114088609805L654.1747159090909,307.6745680199862L662.0582386363636,306.5049508165691L669.9417613636364,302.43327345215295L677.8252840909091,305.0781511592953L685.7088068181819,305.1688998587855L693.5923295454546,298.92370894163804L701.4758522727273,306.71601182618195L709.359375,307.1654102297551L717.2428977272727,312.43901701310193L725.1264204545454,309.275179690693L733.0099431818182,303.3289006573453"
                                          style="fill: none;" fill="none"></path>
                                </g>
                            </g>
                        </g>
                    </g>
                </g>
            </g>
            <g transform="translate(51, 378)" clip-path="url(#clip_1)">
                <clipPath id="clip_1">
                    <rect width="867" height="22"></rect>
                </clipPath>
                <g>
                    <g>
                        <line x1="0" y1="0" x2="0" y2="5" style="visibility: inherit;" fill="rgb(0, 0, 0)"
                              stroke="rgb(204, 204, 204)" stroke-width="1px"></line>
                        <line x1="78.83522727272728" y1="0" x2="78.83522727272728" y2="5" style="visibility: inherit;"
                              fill="rgb(0, 0, 0)" stroke="rgb(204, 204, 204)" stroke-width="1px"></line>
                        <line x1="157.67045454545456" y1="0" x2="157.67045454545456" y2="5" style="visibility: inherit;"
                              fill="rgb(0, 0, 0)" stroke="rgb(204, 204, 204)" stroke-width="1px"></line>
                        <line x1="236.5056818181818" y1="0" x2="236.5056818181818" y2="5" style="visibility: inherit;"
                              fill="rgb(0, 0, 0)" stroke="rgb(204, 204, 204)" stroke-width="1px"></line>
                        <line x1="315.3409090909091" y1="0" x2="315.3409090909091" y2="5" style="visibility: inherit;"
                              fill="rgb(0, 0, 0)" stroke="rgb(204, 204, 204)" stroke-width="1px"></line>
                        <line x1="394.1761363636364" y1="0" x2="394.1761363636364" y2="5" style="visibility: inherit;"
                              fill="rgb(0, 0, 0)" stroke="rgb(204, 204, 204)" stroke-width="1px"></line>
                        <line x1="473.0113636363636" y1="0" x2="473.0113636363636" y2="5" style="visibility: inherit;"
                              fill="rgb(0, 0, 0)" stroke="rgb(204, 204, 204)" stroke-width="1px"></line>
                        <line x1="551.8465909090909" y1="0" x2="551.8465909090909" y2="5" style="visibility: inherit;"
                              fill="rgb(0, 0, 0)" stroke="rgb(204, 204, 204)" stroke-width="1px"></line>
                        <line x1="630.6818181818182" y1="0" x2="630.6818181818182" y2="5" style="visibility: inherit;"
                              fill="rgb(0, 0, 0)" stroke="rgb(204, 204, 204)" stroke-width="1px"></line>
                        <line x1="709.5170454545455" y1="0" x2="709.5170454545455" y2="5" style="visibility: inherit;"
                              fill="rgb(0, 0, 0)" stroke="rgb(204, 204, 204)" stroke-width="1px"></line>
                        <line x1="788.3522727272727" y1="0" x2="788.3522727272727" y2="5" style="visibility: inherit;"
                              fill="rgb(0, 0, 0)" stroke="rgb(204, 204, 204)" stroke-width="1px"></line>
                        <line x1="867.1875" y1="0" x2="867.1875" y2="5" style="visibility: inherit;" fill="rgb(0, 0, 0)"
                              stroke="rgb(204, 204, 204)" stroke-width="1px"></line>
                    </g>
                    <g transform="translate(0, 8)">
                        <text x="0" y="0" dx="0em" dy="0.95em"
                              style="text-anchor: middle; visibility: hidden; font-family: Roboto, sans-serif; font-size: 12px; font-weight: 200;"
                              fill="rgb(50, 49, 63)" stroke="none" stroke-width="1px">-500
                        </text>
                        <text x="78.83522727272728" y="0" dx="0em" dy="0.95em"
                              style="text-anchor: middle; visibility: inherit; font-family: Roboto, sans-serif; font-size: 12px; font-weight: 200;"
                              fill="rgb(50, 49, 63)" stroke="none" stroke-width="1px">0
                        </text>
                        <text x="157.67045454545456" y="0" dx="0em" dy="0.95em"
                              style="text-anchor: middle; visibility: inherit; font-family: Roboto, sans-serif; font-size: 12px; font-weight: 200;"
                              fill="rgb(50, 49, 63)" stroke="none" stroke-width="1px">500
                        </text>
                        <text x="236.5056818181818" y="0" dx="0em" dy="0.95em"
                              style="text-anchor: middle; visibility: inherit; font-family: Roboto, sans-serif; font-size: 12px; font-weight: 200;"
                              fill="rgb(50, 49, 63)" stroke="none" stroke-width="1px">1k
                        </text>
                        <text x="315.3409090909091" y="0" dx="0em" dy="0.95em"
                              style="text-anchor: middle; visibility: inherit; font-family: Roboto, sans-serif; font-size: 12px; font-weight: 200;"
                              fill="rgb(50, 49, 63)" stroke="none" stroke-width="1px">1.5k
                        </text>
                        <text x="394.1761363636364" y="0" dx="0em" dy="0.95em"
                              style="text-anchor: middle; visibility: inherit; font-family: Roboto, sans-serif; font-size: 12px; font-weight: 200;"
                              fill="rgb(50, 49, 63)" stroke="none" stroke-width="1px">2k
                        </text>
                        <text x="473.0113636363636" y="0" dx="0em" dy="0.95em"
                              style="text-anchor: middle; visibility: inherit; font-family: Roboto, sans-serif; font-size: 12px; font-weight: 200;"
                              fill="rgb(50, 49, 63)" stroke="none" stroke-width="1px">2.5k
                        </text>
                        <text x="551.8465909090909" y="0" dx="0em" dy="0.95em"
                              style="text-anchor: middle; visibility: inherit; font-family: Roboto, sans-serif; font-size: 12px; font-weight: 200;"
                              fill="rgb(50, 49, 63)" stroke="none" stroke-width="1px">3k
                        </text>
                        <text x="630.6818181818182" y="0" dx="0em" dy="0.95em"
                              style="text-anchor: middle; visibility: inherit; font-family: Roboto, sans-serif; font-size: 12px; font-weight: 200;"
                              fill="rgb(50, 49, 63)" stroke="none" stroke-width="1px">3.5k
                        </text>
                        <text x="709.5170454545455" y="0" dx="0em" dy="0.95em"
                              style="text-anchor: middle; visibility: inherit; font-family: Roboto, sans-serif; font-size: 12px; font-weight: 200;"
                              fill="rgb(50, 49, 63)" stroke="none" stroke-width="1px">4k
                        </text>
                        <text x="788.3522727272727" y="0" dx="0em" dy="0.95em"
                              style="text-anchor: middle; visibility: inherit; font-family: Roboto, sans-serif; font-size: 12px; font-weight: 200;"
                              fill="rgb(50, 49, 63)" stroke="none" stroke-width="1px">4.5k
                        </text>
                        <text x="867.1875" y="0" dx="0em" dy="0.95em"
                              style="text-anchor: middle; visibility: hidden; font-family: Roboto, sans-serif; font-size: 12px; font-weight: 200;"
                              fill="rgb(50, 49, 63)" stroke="none" stroke-width="1px">5k
                        </text>
                    </g>
                    <line x1="0" y1="0" x2="867.1875" y2="0" fill="rgb(0, 0, 0)" stroke="rgb(204, 204, 204)"
                          stroke-width="1px"></line>
                </g>
            </g>
        </g>
    </g>
</svg>