<svg viewBox="0 0 330 200" xmlns="http://www.w3.org/2000/svg">
    <g>
        <g>
            <g>
                <g>
                    <g>
                        <line x1="51.5625" y1="178" x2="46.5625" y2="178" style="visibility: inherit;"
                              fill="rgb(0, 0, 0)" stroke="rgb(204, 204, 204)" stroke-width="1px"></line>
                        <line x1="51.5625" y1="164.30769230769232" x2="46.5625" y2="164.30769230769232"
                              style="visibility: inherit;" fill="rgb(0, 0, 0)" stroke="rgb(204, 204, 204)"
                              stroke-width="1px"></line>
                        <line x1="51.5625" y1="150.6153846153846" x2="46.5625" y2="150.6153846153846"
                              style="visibility: inherit;" fill="rgb(0, 0, 0)" stroke="rgb(204, 204, 204)"
                              stroke-width="1px"></line>
                        <line x1="51.5625" y1="136.9230769230769" x2="46.5625" y2="136.9230769230769"
                              style="visibility: inherit;" fill="rgb(0, 0, 0)" stroke="rgb(204, 204, 204)"
                              stroke-width="1px"></line>
                        <line x1="51.5625" y1="123.23076923076923" x2="46.5625" y2="123.23076923076923"
                              style="visibility: inherit;" fill="rgb(0, 0, 0)" stroke="rgb(204, 204, 204)"
                              stroke-width="1px"></line>
                        <line x1="51.5625" y1="109.53846153846155" x2="46.5625" y2="109.53846153846155"
                              style="visibility: inherit;" fill="rgb(0, 0, 0)" stroke="rgb(204, 204, 204)"
                              stroke-width="1px"></line>
                        <line x1="51.5625" y1="95.84615384615384" x2="46.5625" y2="95.84615384615384"
                              style="visibility: inherit;" fill="rgb(0, 0, 0)" stroke="rgb(204, 204, 204)"
                              stroke-width="1px"></line>
                        <line x1="51.5625" y1="82.15384615384616" x2="46.5625" y2="82.15384615384616"
                              style="visibility: inherit;" fill="rgb(0, 0, 0)" stroke="rgb(204, 204, 204)"
                              stroke-width="1px"></line>
                        <line x1="51.5625" y1="68.46153846153845" x2="46.5625" y2="68.46153846153845"
                              style="visibility: inherit;" fill="rgb(0, 0, 0)" stroke="rgb(204, 204, 204)"
                              stroke-width="1px"></line>
                        <line x1="51.5625" y1="54.769230769230774" x2="46.5625" y2="54.769230769230774"
                              style="visibility: inherit;" fill="rgb(0, 0, 0)" stroke="rgb(204, 204, 204)"
                              stroke-width="1px"></line>
                        <line x1="51.5625" y1="41.076923076923066" x2="46.5625" y2="41.076923076923066"
                              style="visibility: inherit;" fill="rgb(0, 0, 0)" stroke="rgb(204, 204, 204)"
                              stroke-width="1px"></line>
                        <line x1="51.5625" y1="27.384615384615387" x2="46.5625" y2="27.384615384615387"
                              style="visibility: inherit;" fill="rgb(0, 0, 0)" stroke="rgb(204, 204, 204)"
                              stroke-width="1px"></line>
                        <line x1="51.5625" y1="13.692307692307683" x2="46.5625" y2="13.692307692307683"
                              style="visibility: inherit;" fill="rgb(0, 0, 0)" stroke="rgb(204, 204, 204)"
                              stroke-width="1px"></line>
                        <line x1="51.5625" y1="0" x2="46.5625" y2="0" style="visibility: inherit;" fill="rgb(0, 0, 0)"
                              stroke="rgb(204, 204, 204)" stroke-width="1px"></line>
                    </g>
                    <g transform="translate(41.5625, 0)">
                        <text x="0" y="178" dx="0em" dy="0.3em"
                              style="text-anchor: end; visibility: hidden; font-family: Roboto, sans-serif; font-size: 12px; font-weight: 200;"
                              fill="rgb(50, 49, 63)" stroke="none" stroke-width="1px">-0.5
                        </text>
                        <text x="0" y="164.30769230769232" dx="0em" dy="0.3em"
                              style="text-anchor: end; visibility: inherit; font-family: Roboto, sans-serif; font-size: 12px; font-weight: 200;"
                              fill="rgb(50, 49, 63)" stroke="none" stroke-width="1px">0
                        </text>
                        <text x="0" y="150.6153846153846" dx="0em" dy="0.3em"
                              style="text-anchor: end; visibility: hidden; font-family: Roboto, sans-serif; font-size: 12px; font-weight: 200;"
                              fill="rgb(50, 49, 63)" stroke="none" stroke-width="1px">0.5
                        </text>
                        <text x="0" y="136.9230769230769" dx="0em" dy="0.3em"
                              style="text-anchor: end; visibility: inherit; font-family: Roboto, sans-serif; font-size: 12px; font-weight: 200;"
                              fill="rgb(50, 49, 63)" stroke="none" stroke-width="1px">1
                        </text>
                        <text x="0" y="123.23076923076923" dx="0em" dy="0.3em"
                              style="text-anchor: end; visibility: hidden; font-family: Roboto, sans-serif; font-size: 12px; font-weight: 200;"
                              fill="rgb(50, 49, 63)" stroke="none" stroke-width="1px">1.5
                        </text>
                        <text x="0" y="109.53846153846155" dx="0em" dy="0.3em"
                              style="text-anchor: end; visibility: inherit; font-family: Roboto, sans-serif; font-size: 12px; font-weight: 200;"
                              fill="rgb(50, 49, 63)" stroke="none" stroke-width="1px">2
                        </text>
                        <text x="0" y="95.84615384615384" dx="0em" dy="0.3em"
                              style="text-anchor: end; visibility: hidden; font-family: Roboto, sans-serif; font-size: 12px; font-weight: 200;"
                              fill="rgb(50, 49, 63)" stroke="none" stroke-width="1px">2.5
                        </text>
                        <text x="0" y="82.15384615384616" dx="0em" dy="0.3em"
                              style="text-anchor: end; visibility: inherit; font-family: Roboto, sans-serif; font-size: 12px; font-weight: 200;"
                              fill="rgb(50, 49, 63)" stroke="none" stroke-width="1px">3
                        </text>
                        <text x="0" y="68.46153846153845" dx="0em" dy="0.3em"
                              style="text-anchor: end; visibility: hidden; font-family: Roboto, sans-serif; font-size: 12px; font-weight: 200;"
                              fill="rgb(50, 49, 63)" stroke="none" stroke-width="1px">3.5
                        </text>
                        <text x="0" y="54.769230769230774" dx="0em" dy="0.3em"
                              style="text-anchor: end; visibility: inherit; font-family: Roboto, sans-serif; font-size: 12px; font-weight: 200;"
                              fill="rgb(50, 49, 63)" stroke="none" stroke-width="1px">4
                        </text>
                        <text x="0" y="41.076923076923066" dx="0em" dy="0.3em"
                              style="text-anchor: end; visibility: hidden; font-family: Roboto, sans-serif; font-size: 12px; font-weight: 200;"
                              fill="rgb(50, 49, 63)" stroke="none" stroke-width="1px">4.5
                        </text>
                        <text x="0" y="27.384615384615387" dx="0em" dy="0.3em"
                              style="text-anchor: end; visibility: inherit; font-family: Roboto, sans-serif; font-size: 12px; font-weight: 200;"
                              fill="rgb(50, 49, 63)" stroke="none" stroke-width="1px">5
                        </text>
                        <text x="0" y="13.692307692307683" dx="0em" dy="0.3em"
                              style="text-anchor: end; visibility: hidden; font-family: Roboto, sans-serif; font-size: 12px; font-weight: 200;"
                              fill="rgb(50, 49, 63)" stroke="none" stroke-width="1px">5.5
                        </text>
                        <text x="0" y="0" dx="0em" dy="0.3em"
                              style="text-anchor: end; visibility: hidden; font-family: Roboto, sans-serif; font-size: 12px; font-weight: 200;"
                              fill="rgb(50, 49, 63)" stroke="none" stroke-width="1px">6
                        </text>
                    </g>
                    <line x1="51.5625" y1="0" x2="51.5625" y2="178" fill="rgb(0, 0, 0)" stroke="rgb(204, 204, 204)"
                          stroke-width="1px"></line>
                </g>
            </g>
            <g transform="translate(51, 0)" clip-path="url(#clip_0)">
                <clipPath id="clip_0">
                    <rect width="278" height="178"></rect>
                </clipPath>
                <g>
                    <g>
                        <g>
                            <line x1="0" y1="0" x2="0" y2="178" fill="rgb(0, 0, 0)" stroke="rgb(60, 60, 60)"
                                  stroke-width="1px" opacity="0.25"></line>
                            <line x1="27.84375" y1="0" x2="27.84375" y2="178" fill="rgb(0, 0, 0)"
                                  stroke="rgb(60, 60, 60)" stroke-width="1px" opacity="0.25"></line>
                            <line x1="55.6875" y1="0" x2="55.6875" y2="178" fill="rgb(0, 0, 0)" stroke="rgb(60, 60, 60)"
                                  stroke-width="1px" opacity="0.25"></line>
                            <line x1="83.53125" y1="0" x2="83.53125" y2="178" fill="rgb(0, 0, 0)"
                                  stroke="rgb(60, 60, 60)" stroke-width="1px" opacity="0.25"></line>
                            <line x1="111.375" y1="0" x2="111.375" y2="178" fill="rgb(0, 0, 0)" stroke="rgb(60, 60, 60)"
                                  stroke-width="1px" opacity="0.25"></line>
                            <line x1="139.21875" y1="0" x2="139.21875" y2="178" fill="rgb(0, 0, 0)"
                                  stroke="rgb(60, 60, 60)" stroke-width="1px" opacity="0.25"></line>
                            <line x1="167.0625" y1="0" x2="167.0625" y2="178" fill="rgb(0, 0, 0)"
                                  stroke="rgb(60, 60, 60)" stroke-width="1px" opacity="0.25"></line>
                            <line x1="194.90625" y1="0" x2="194.90625" y2="178" fill="rgb(0, 0, 0)"
                                  stroke="rgb(60, 60, 60)" stroke-width="1px" opacity="0.25"></line>
                            <line x1="222.75" y1="0" x2="222.75" y2="178" fill="rgb(0, 0, 0)" stroke="rgb(60, 60, 60)"
                                  stroke-width="1px" opacity="0.25"></line>
                            <line x1="250.59375" y1="0" x2="250.59375" y2="178" fill="rgb(0, 0, 0)"
                                  stroke="rgb(60, 60, 60)" stroke-width="1px" opacity="0.25"></line>
                            <line x1="278.4375" y1="0" x2="278.4375" y2="178" fill="rgb(0, 0, 0)"
                                  stroke="rgb(60, 60, 60)" stroke-width="1px" opacity="0.25"></line>
                        </g>
                        <g>
                            <line x1="0" y1="178" x2="278.4375" y2="178" fill="rgb(0, 0, 0)" stroke="rgb(60, 60, 60)"
                                  stroke-width="1px" opacity="0.25"></line>
                            <line x1="0" y1="164.30769230769232" x2="278.4375" y2="164.30769230769232"
                                  fill="rgb(0, 0, 0)" stroke="rgb(60, 60, 60)" stroke-width="1px" opacity="0.25"></line>
                            <line x1="0" y1="150.6153846153846" x2="278.4375" y2="150.6153846153846" fill="rgb(0, 0, 0)"
                                  stroke="rgb(60, 60, 60)" stroke-width="1px" opacity="0.25"></line>
                            <line x1="0" y1="136.9230769230769" x2="278.4375" y2="136.9230769230769" fill="rgb(0, 0, 0)"
                                  stroke="rgb(60, 60, 60)" stroke-width="1px" opacity="0.25"></line>
                            <line x1="0" y1="123.23076923076923" x2="278.4375" y2="123.23076923076923"
                                  fill="rgb(0, 0, 0)" stroke="rgb(60, 60, 60)" stroke-width="1px" opacity="0.25"></line>
                            <line x1="0" y1="109.53846153846155" x2="278.4375" y2="109.53846153846155"
                                  fill="rgb(0, 0, 0)" stroke="rgb(60, 60, 60)" stroke-width="1px" opacity="0.25"></line>
                            <line x1="0" y1="95.84615384615384" x2="278.4375" y2="95.84615384615384" fill="rgb(0, 0, 0)"
                                  stroke="rgb(60, 60, 60)" stroke-width="1px" opacity="0.25"></line>
                            <line x1="0" y1="82.15384615384616" x2="278.4375" y2="82.15384615384616" fill="rgb(0, 0, 0)"
                                  stroke="rgb(60, 60, 60)" stroke-width="1px" opacity="0.25"></line>
                            <line x1="0" y1="68.46153846153845" x2="278.4375" y2="68.46153846153845" fill="rgb(0, 0, 0)"
                                  stroke="rgb(60, 60, 60)" stroke-width="1px" opacity="0.25"></line>
                            <line x1="0" y1="54.769230769230774" x2="278.4375" y2="54.769230769230774"
                                  fill="rgb(0, 0, 0)" stroke="rgb(60, 60, 60)" stroke-width="1px" opacity="0.25"></line>
                            <line x1="0" y1="41.076923076923066" x2="278.4375" y2="41.076923076923066"
                                  fill="rgb(0, 0, 0)" stroke="rgb(60, 60, 60)" stroke-width="1px" opacity="0.25"></line>
                            <line x1="0" y1="27.384615384615387" x2="278.4375" y2="27.384615384615387"
                                  fill="rgb(0, 0, 0)" stroke="rgb(60, 60, 60)" stroke-width="1px" opacity="0.25"></line>
                            <line x1="0" y1="13.692307692307683" x2="278.4375" y2="13.692307692307683"
                                  fill="rgb(0, 0, 0)" stroke="rgb(60, 60, 60)" stroke-width="1px" opacity="0.25"></line>
                            <line x1="0" y1="0" x2="278.4375" y2="0" fill="rgb(0, 0, 0)" stroke="rgb(60, 60, 60)"
                                  stroke-width="1px" opacity="0.25"></line>
                        </g>
                    </g>
                </g>
                <g>
                    <g>
                        <line x1="0" y1="164.30769230769232" x2="278.4375" y2="164.30769230769232" fill="rgb(0, 0, 0)"
                              stroke="rgb(153, 153, 153)" stroke-width="1.5px"></line>
                    </g>
                </g>
                <g>
                    <g>
                        <line x1="27.84375" y1="0" x2="27.84375" y2="178" fill="rgb(0, 0, 0)"
                              stroke="rgb(153, 153, 153)" stroke-width="1.5px"></line>
                    </g>
                </g>
                <g>
                    <g>
                        <g>
                            <g>
                                <g>
                                    <path stroke="rgb(51, 187, 238)" stroke-width="2px"
                                          d="M30.5724375,27.188353611872742L33.356812500000004,80.32429599761963L36.1411875,102.30622827089749L38.925562500000005,119.21495367930487L41.709937499999995,127.67074786699735L44.4943125,135.90732431411743L47.278687500000004,141.62704918934747L50.063062499999994,147.060733630107L52.8474375,149.56229754594656L55.6318125,150.06133847970227L58.4161875,152.30543531821326L61.2005625,155.68790756739102L63.9849375,156.55696739600256L66.7693125,156.62503794523386L69.5536875,157.22966425235455L72.33806249999999,159.01089898439554L75.12243749999999,158.12235416815832L77.9068125,159.4409267443877L80.6911875,159.70207372995523L83.47556250000001,159.98702830993213L86.2599375,159.9980615056478L89.04431249999999,160.920397575085L91.8286875,161.81125059723854L94.6130625,160.35695620683524L97.3974375,161.2775488289503L100.1818125,161.61516878008842L102.9661875,160.8803470501533L105.7505625,161.8375700207857L108.5349375,161.06993087896933L111.3193125,161.66400244373543L114.10368749999999,161.96522056139432L116.8880625,162.45752356602594L119.6724375,161.81909253964056L122.45681250000001,162.50229721115187L125.2411875,162.71246861265257L128.0255625,162.16196343990472L130.8099375,162.65794625075964L133.5943125,163.1771173190612L136.3786875,162.7443309540932L139.1630625,162.1756286391845L141.9474375,162.80340066322913L144.73181250000002,162.87033384006756L147.5161875,163.02296892954752L150.30056249999998,162.26489967107773L153.0849375,162.64220523719604L155.86931249999998,163.0191634400533L158.6536875,163.008768760241L161.4380625,163.19875024602965L164.22243749999998,162.92001341741818L167.0068125,162.6024213811526L169.7911875,163.19793962973816L172.57556250000002,163.28301608447845L175.3599375,163.0214750124858L178.1443125,163.4441397935152L180.92868750000002,163.42171767354012L183.7130625,163.12505741073534L186.4974375,163.52140307426453"
                                          style="fill: none;" fill="none"></path>
                                </g>
                                <g>
                                    <path stroke="rgb(204, 51, 17)" stroke-width="2px"
                                          d="M30.5724375,39.66048240661621L33.356812500000004,83.45772031637338L36.1411875,107.59955714299127L38.925562500000005,116.95845581935004L41.709937499999995,129.8433382694538L44.4943125,135.3314500955435L47.278687500000004,140.04366359343896L50.063062499999994,145.5462159376878L52.8474375,150.0293218906109L55.6318125,149.5651490871723L58.4161875,154.51191858144907L61.2005625,154.9543449145097L63.9849375,158.3636268744102L66.7693125,157.3038892012376L69.5536875,157.8370086642412L72.33806249999999,158.01211402507928L75.12243749999999,159.27936620437183L77.9068125,159.42303524109033L80.6911875,159.72953919722482L83.47556250000001,159.72150648557223L86.2599375,160.84095309789365L89.04431249999999,160.67578936540164L91.8286875,160.86047236277506L94.6130625,161.15946307090613L97.3974375,160.8478322166663L100.1818125,161.74564148141786L102.9661875,161.7132580440778L105.7505625,161.30244819476053L108.5349375,161.3570155455516L111.3193125,161.79551101189392L114.10368749999999,161.44900121367894L116.8880625,162.49640254332468L119.6724375,161.3170609153234L122.45681250000001,162.32010155916214L125.2411875,162.19031358682193L128.0255625,162.50553579972342L130.8099375,162.43612476495596L133.5943125,162.9282510784956L136.3786875,162.92157119627183L139.1630625,162.22503665089607L141.9474375,162.70710218181978L144.73181250000002,162.81802980831037L147.5161875,162.95590915129736L150.30056249999998,163.1730752552931L153.0849375,162.83806241590244L155.86931249999998,162.9030740261078L158.6536875,162.86605765040105L161.4380625,163.41944221464487L164.22243749999998,163.22830213720982L167.0068125,162.97120874317793L169.7911875,163.15933354428182L172.57556250000002,163.39524094187297L175.3599375,162.8228974846693L178.1443125,163.19726479626618L180.92868750000002,163.21884457308514L183.7130625,163.32974659364956L186.4974375,163.2267315043853L189.2818125,163.26644966235528L192.06618749999998,163.20579289587644L194.8505625,163.59500950231L197.6349375,163.2820567293809L200.4193125,163.20348795446066L203.2036875,163.38087265078838L205.9880625,163.70123043312475L208.7724375,163.4821072610525L211.5568125,163.55237532922854"
                                          style="fill: none;" fill="none"></path>
                                </g>
                                <g>
                                    <path stroke="rgb(255, 112, 67)" stroke-width="2px"
                                          d="M30.5724375,46.442273360032296L33.356812500000004,77.6898832321167L36.1411875,101.49591394571158L38.925562500000005,118.83129325279822L41.709937499999995,128.98127508163452L44.4943125,134.2377836520855L47.278687500000004,142.02654244349554L50.063062499999994,146.17206313059881L52.8474375,149.42401656737695L55.6318125,151.1195369408681L58.4161875,152.5667071709266L61.2005625,153.57457111432L63.9849375,156.5869493851295L66.7693125,155.81044385983392L69.5536875,157.1898626455894L72.33806249999999,158.8041271521495L75.12243749999999,158.50933908040707L77.9068125,158.82298127504495L80.6911875,160.25991607170837L83.47556250000001,158.9181512594223L86.2599375,161.07641927783305L89.04431249999999,160.81088459950226L91.8286875,160.75803355987256L94.6130625,160.76779319231326L97.3974375,160.87343528637518L100.1818125,161.91320645809174L102.9661875,161.212695649037L105.7505625,161.68290084141952L108.5349375,161.52873378304335L111.3193125,161.95834837968533L114.10368749999999,161.90846293476912L116.8880625,162.02884792135313L119.6724375,162.2813937641107L122.45681250000001,161.77737303880545L125.2411875,162.54915115924982L128.0255625,163.11835477902338L130.8099375,162.25192042497488L133.5943125,162.69137534843043L136.3786875,162.81044035462233L139.1630625,162.5160434108514L141.9474375,162.94572564386405L144.73181250000002,162.86146470216605L147.5161875,162.88858790695667L150.30056249999998,163.01724044520122L153.0849375,162.67802986617272L155.86931249999998,162.8778329078968L158.6536875,162.9161655914325L161.4380625,163.28480125619814L164.22243749999998,162.69451090120353L167.0068125,163.2741274615893L169.7911875,163.42575545265123L172.57556250000002,163.07394328942667L175.3599375,163.10273240965145L178.1443125,163.16926945975194L180.92868750000002,163.35933623061732L183.7130625,163.22430292001138L186.4974375,163.0264379714544L189.2818125,163.32668673648283L192.06618749999998,163.42563629838136L194.8505625,163.18642685848934L197.6349375,163.38103352945583L200.4193125,163.1344842681518L203.2036875,163.29791240852612L205.9880625,163.2346056837302L208.7724375,163.2302458412372L211.5568125,163.26366055470245L214.34118750000002,163.32927803580577L217.1255625,163.65070575819567L219.90993749999998,163.62411364683737L222.6943125,163.2251109859118L225.47868749999998,163.6915296127017L228.2630625,163.34619416754978L231.0474375,163.44406930070656L233.83181249999998,163.54334113001823L236.6161875,163.30421371070238L239.4005625,163.67306967824697L242.18493750000002,163.5938936552176L244.9693125,163.45505409000012L247.7536875,163.26810507017834L250.53806250000002,163.48974195867777L253.3224375,163.2824272501927L256.1068125,163.47732390062168L258.8911875,163.6672092366677L261.6755625,163.60330480222518L264.45993749999997,163.63931928231165L267.2443125,163.39665926534397"
                                          style="fill: none;" fill="none"></path>
                                </g>
                                <g>
                                    <path stroke="rgb(0, 119, 187)" stroke-width="2px"
                                          d="M30.5724375,23.829822393564083L33.356812500000004,75.0790662765503L36.1411875,98.77165559621957L38.925562500000005,115.99813769413873L41.709937499999995,123.81545760081366L44.4943125,132.70409518021802L47.278687500000004,137.07810642169073L50.063062499999994,144.33407260821417L52.8474375,147.37222574307367L55.6318125,150.93775322804083L58.4161875,151.28806678148416L61.2005625,154.49251928696265L63.9849375,156.31253628547375L66.7693125,157.20128839749557L69.5536875,157.28400839292087L72.33806249999999,155.62645987363962L75.12243749999999,158.2986649458225L77.9068125,159.682250050398L80.6911875,159.28698432445526L83.47556250000001,159.2901015144128L86.2599375,160.2570127065365L89.04431249999999,161.006354118769L91.8286875,161.76310574320647L94.6130625,161.15228402614594L97.3974375,161.05854919782053L100.1818125,161.34526252746582L102.9661875,161.5639657011399L105.7505625,161.88232509906476L108.5349375,161.42587467569572L111.3193125,162.65663473766583L114.10368749999999,162.1027262210846L116.8880625,162.3621426133009L119.6724375,162.2283368569154L122.45681250000001,162.23662440364177L125.2411875,162.24375407283122L128.0255625,162.71869248495653L130.8099375,162.49539279249998L133.5943125,162.84430556916274L136.3786875,162.74351574709783L139.1630625,162.8089496000455L141.9474375,162.80079620388838L144.73181250000002,162.85621824172827L147.5161875,163.23513585902177L150.30056249999998,162.60183499524226L153.0849375,162.4463865183867L155.86931249999998,163.2386890638333L158.6536875,163.22790039961154L161.4380625,163.2732901171996L164.22243749999998,163.172312688369L167.0068125,162.61208063020155L169.7911875,163.5390736116813L172.57556250000002,163.33907592411225L175.3599375,163.5600301239353L178.1443125,163.17949010087892L180.92868750000002,163.46508692033015L183.7130625,163.59877428756312L186.4974375,163.00676568310993L189.2818125,162.99424469127104L192.06618749999998,163.4262504325463L194.8505625,163.33496418366065L197.6349375,162.94920519338206L200.4193125,163.1524283095048L203.2036875,163.3820217549801L205.9880625,163.3504566871203L208.7724375,163.5616618131216L211.5568125,163.16029014495703L214.34118750000002,163.1698892047772L217.1255625,163.49292775415458L219.90993749999998,163.27775401564745L222.6943125,163.59150164345135L225.47868749999998,163.70674080802843L228.2630625,163.77815905156044L231.0474375,163.68129657667416L233.83181249999998,163.43087571973984L236.6161875,163.49430149679L239.4005625,163.7459252711672L242.18493750000002,163.75028715397303L244.9693125,163.5017580240965L247.7536875,163.17799455156694L250.53806250000002,163.7552966830822L253.3224375,163.5263125260289L256.1068125,163.37067333093057L258.8911875,163.61452728796465L261.6755625,163.43839345643153L264.45993749999997,163.47064080490514L267.2443125,163.590148967046L270.0286875,163.45383015733498L272.8130625,163.34335527626368L275.5974375,163.8424168171791"
                                          style="fill: none;" fill="none"></path>
                                </g>
                                <g>
                                    <path stroke="rgb(238, 51, 119)" stroke-width="2px"
                                          d="M30.5724375,36.51161047128531L33.356812500000004,82.81962145291843L36.1411875,104.9135979138888L38.925562500000005,119.72965442217313L41.709937499999995,128.87833558596097L44.4943125,137.43955028974094L47.278687500000004,141.27202822611883L50.063062499999994,140.08824198062604L52.8474375,147.99054010097797L55.6318125,150.19149248416608L58.4161875,153.31136422890881L61.2005625,153.41291631185092L63.9849375,155.43700948128333L66.7693125,157.1104699923442L69.5536875,156.64986610412598L72.33806249999999,158.17341054861362L75.12243749999999,159.7868421994723L77.9068125,158.82839585726077L80.6911875,158.90754285684L83.47556250000001,159.20038895882092L86.2599375,159.10939467870273L89.04431249999999,161.0660453071961L91.8286875,161.04570012367688L94.6130625,160.82780368969992L97.3974375,160.42791583904852L100.1818125,161.24541777830856L102.9661875,161.5002181667548L105.7505625,160.8468312391868L108.5349375,161.8798102094577L111.3193125,161.40298216159528L114.10368749999999,161.29297318596107L116.8880625,161.85452236808263L119.6724375,161.2230704357991L122.45681250000001,162.2139420417639L125.2411875,162.34915173741487L128.0255625,161.72858813863533L130.8099375,162.05864954682497L133.5943125,161.79217346814963L136.3786875,162.61021068348333L139.1630625,161.59771574002045L141.9474375,162.2957224731262L144.73181250000002,162.17916552149333L147.5161875,162.39368768609486L150.30056249999998,162.07980289826025L153.0849375,162.32215411387958L155.86931249999998,162.77260938401406L158.6536875,162.7993031029518L161.4380625,162.5523856671957L164.22243749999998,162.96457752241537L167.0068125,162.35658398499857L169.7911875,162.49026262989412L172.57556250000002,162.90382445317047L175.3599375,163.05172142615686L178.1443125,162.71651649131223L180.92868750000002,162.73052629943078L183.7130625,163.03576770997964L186.4974375,162.57793507667688L189.2818125,162.89824327941125L192.06618749999998,162.96698315326984L194.8505625,162.7319626796704L197.6349375,163.17129957102813L200.4193125,162.91072723957208L203.2036875,163.1376909258274L205.9880625,163.44156838724246L208.7724375,163.1524788072476L211.5568125,162.88422877857317L214.34118750000002,163.09228957845613L217.1255625,163.46366426119437L219.90993749999998,163.2799282750258L222.6943125,163.30819385097578L225.47868749999998,163.04095724568919L228.2630625,163.27628907102806L231.0474375,163.4177646694275L233.83181249999998,163.18291935668543L236.6161875,163.26497829075043L239.4005625,162.88042104473482L242.18493750000002,163.09648313545264L244.9693125,163.2664371144313L247.7536875,163.06577652922044L250.53806250000002,163.3920518308878L253.3224375,163.70789026927488L256.1068125,163.26656371584306L258.8911875,163.563133592789"
                                          style="fill: none;" fill="none"></path>
                                </g>
                                <g>
                                    <path stroke="rgb(0, 153, 136)" stroke-width="2px"
                                          d="M30.5724375,26.57955037630521L33.356812500000004,79.49392458108755L36.1411875,95.88986550844632L38.925562500000005,116.74745809114896L41.709937499999995,128.37226618253268L44.4943125,130.27594661712646L47.278687500000004,136.9078578215379L50.063062499999994,140.67579168539783L52.8474375,147.0830921943371L55.6318125,149.780052790275L58.4161875,147.7296314239502L61.2005625,154.03934948260968L63.9849375,153.98496290353629L66.7693125,157.24538853535284L69.5536875,157.17187361533826L72.33806249999999,157.59916001099808L75.12243749999999,158.55736641241953L77.9068125,159.3751519551644L80.6911875,158.76380036885922L83.47556250000001,159.68854033488495L86.2599375,160.39993866131857L89.04431249999999,159.77711113141135L91.8286875,160.1150375375381L94.6130625,159.97230663666357L97.3974375,159.0567521590453L100.1818125,160.60258212456336L102.9661875,160.793659054316L105.7505625,161.70542038633272L108.5349375,160.79215371150238L111.3193125,161.90633305219504L114.10368749999999,162.28686323074194L116.8880625,161.45705575667895L119.6724375,162.04002516315535L122.45681250000001,161.8041466359909L125.2411875,162.13942124751898L128.0255625,161.86641249519127L130.8099375,162.29400269343301L133.5943125,162.33152425059905L136.3786875,162.16887887624594L139.1630625,162.7039174575072L141.9474375,162.36045853908246L144.73181250000002,162.48385421129373L147.5161875,162.44082156511453L150.30056249999998,162.74492488916104L153.0849375,162.48096757668716L155.86931249999998,162.91857652710036L158.6536875,162.56195718279253L161.4380625,162.83081665291235L164.22243749999998,163.05827042231192L167.0068125,162.99667613208294L169.7911875,163.0887079112805L172.57556250000002,163.19097104324743L175.3599375,163.15415267990187L178.1443125,163.0725466952874L180.92868750000002,163.41611232207373L183.7130625,162.89351056974667L186.4974375,163.27472996597106L189.2818125,162.71315997265853L192.06618749999998,163.25510827738506L194.8505625,163.4310244585459L197.6349375,162.84876242853127L200.4193125,162.9050374191541L203.2036875,163.3468122803248L205.9880625,163.4055415632633L208.7724375,163.38986512560112L211.5568125,163.38146138305848L214.34118750000002,163.23368560465482L217.1255625,163.07598900909608L219.90993749999998,163.1315403007544L222.6943125,163.3062303559138L225.47868749999998,163.3984522922681L228.2630625,163.1630284488201L231.0474375,163.6043233263951L233.83181249999998,163.59562307538894L236.6161875,163.45267217778243L239.4005625,163.5167590672007L242.18493750000002,163.5151203389351L244.9693125,163.36224459455565L247.7536875,163.54980866668316L250.53806250000002,163.57911658745545L253.3224375,163.67743125500587L256.1068125,163.60114768147469L258.8911875,163.45308523911697"
                                          style="fill: none;" fill="none"></path>
                                </g>
                            </g>
                        </g>
                    </g>
                </g>
            </g>
            <g transform="translate(51, 178)" clip-path="url(#clip_1)">
                <clipPath id="clip_1">
                    <rect width="278" height="22"></rect>
                </clipPath>
                <g>
                    <g>
                        <line x1="0" y1="0" x2="0" y2="5" style="visibility: inherit;" fill="rgb(0, 0, 0)"
                              stroke="rgb(204, 204, 204)" stroke-width="1px"></line>
                        <line x1="27.84375" y1="0" x2="27.84375" y2="5" style="visibility: inherit;" fill="rgb(0, 0, 0)"
                              stroke="rgb(204, 204, 204)" stroke-width="1px"></line>
                        <line x1="55.6875" y1="0" x2="55.6875" y2="5" style="visibility: inherit;" fill="rgb(0, 0, 0)"
                              stroke="rgb(204, 204, 204)" stroke-width="1px"></line>
                        <line x1="83.53125" y1="0" x2="83.53125" y2="5" style="visibility: inherit;" fill="rgb(0, 0, 0)"
                              stroke="rgb(204, 204, 204)" stroke-width="1px"></line>
                        <line x1="111.375" y1="0" x2="111.375" y2="5" style="visibility: inherit;" fill="rgb(0, 0, 0)"
                              stroke="rgb(204, 204, 204)" stroke-width="1px"></line>
                        <line x1="139.21875" y1="0" x2="139.21875" y2="5" style="visibility: inherit;"
                              fill="rgb(0, 0, 0)" stroke="rgb(204, 204, 204)" stroke-width="1px"></line>
                        <line x1="167.0625" y1="0" x2="167.0625" y2="5" style="visibility: inherit;" fill="rgb(0, 0, 0)"
                              stroke="rgb(204, 204, 204)" stroke-width="1px"></line>
                        <line x1="194.90625" y1="0" x2="194.90625" y2="5" style="visibility: inherit;"
                              fill="rgb(0, 0, 0)" stroke="rgb(204, 204, 204)" stroke-width="1px"></line>
                        <line x1="222.75" y1="0" x2="222.75" y2="5" style="visibility: inherit;" fill="rgb(0, 0, 0)"
                              stroke="rgb(204, 204, 204)" stroke-width="1px"></line>
                        <line x1="250.59375" y1="0" x2="250.59375" y2="5" style="visibility: inherit;"
                              fill="rgb(0, 0, 0)" stroke="rgb(204, 204, 204)" stroke-width="1px"></line>
                        <line x1="278.4375" y1="0" x2="278.4375" y2="5" style="visibility: inherit;" fill="rgb(0, 0, 0)"
                              stroke="rgb(204, 204, 204)" stroke-width="1px"></line>
                    </g>
                    <g transform="translate(0, 8)">
                        <text x="0" y="0" dx="0em" dy="0.95em"
                              style="text-anchor: middle; visibility: hidden; font-family: Roboto, sans-serif; font-size: 12px; font-weight: 200;"
                              fill="rgb(50, 49, 63)" stroke="none" stroke-width="1px">-500
                        </text>
                        <text x="27.84375" y="0" dx="0em" dy="0.95em"
                              style="text-anchor: middle; visibility: inherit; font-family: Roboto, sans-serif; font-size: 12px; font-weight: 200;"
                              fill="rgb(50, 49, 63)" stroke="none" stroke-width="1px">0
                        </text>
                        <text x="55.6875" y="0" dx="0em" dy="0.95em"
                              style="text-anchor: middle; visibility: inherit; font-family: Roboto, sans-serif; font-size: 12px; font-weight: 200;"
                              fill="rgb(50, 49, 63)" stroke="none" stroke-width="1px">500
                        </text>
                        <text x="83.53125" y="0" dx="0em" dy="0.95em"
                              style="text-anchor: middle; visibility: inherit; font-family: Roboto, sans-serif; font-size: 12px; font-weight: 200;"
                              fill="rgb(50, 49, 63)" stroke="none" stroke-width="1px">1k
                        </text>
                        <text x="111.375" y="0" dx="0em" dy="0.95em"
                              style="text-anchor: middle; visibility: inherit; font-family: Roboto, sans-serif; font-size: 12px; font-weight: 200;"
                              fill="rgb(50, 49, 63)" stroke="none" stroke-width="1px">1.5k
                        </text>
                        <text x="139.21875" y="0" dx="0em" dy="0.95em"
                              style="text-anchor: middle; visibility: inherit; font-family: Roboto, sans-serif; font-size: 12px; font-weight: 200;"
                              fill="rgb(50, 49, 63)" stroke="none" stroke-width="1px">2k
                        </text>
                        <text x="167.0625" y="0" dx="0em" dy="0.95em"
                              style="text-anchor: middle; visibility: inherit; font-family: Roboto, sans-serif; font-size: 12px; font-weight: 200;"
                              fill="rgb(50, 49, 63)" stroke="none" stroke-width="1px">2.5k
                        </text>
                        <text x="194.90625" y="0" dx="0em" dy="0.95em"
                              style="text-anchor: middle; visibility: inherit; font-family: Roboto, sans-serif; font-size: 12px; font-weight: 200;"
                              fill="rgb(50, 49, 63)" stroke="none" stroke-width="1px">3k
                        </text>
                        <text x="222.75" y="0" dx="0em" dy="0.95em"
                              style="text-anchor: middle; visibility: inherit; font-family: Roboto, sans-serif; font-size: 12px; font-weight: 200;"
                              fill="rgb(50, 49, 63)" stroke="none" stroke-width="1px">3.5k
                        </text>
                        <text x="250.59375" y="0" dx="0em" dy="0.95em"
                              style="text-anchor: middle; visibility: inherit; font-family: Roboto, sans-serif; font-size: 12px; font-weight: 200;"
                              fill="rgb(50, 49, 63)" stroke="none" stroke-width="1px">4k
                        </text>
                        <text x="278.4375" y="0" dx="0em" dy="0.95em"
                              style="text-anchor: middle; visibility: hidden; font-family: Roboto, sans-serif; font-size: 12px; font-weight: 200;"
                              fill="rgb(50, 49, 63)" stroke="none" stroke-width="1px">4.5k
                        </text>
                    </g>
                    <line x1="0" y1="0" x2="278.4375" y2="0" fill="rgb(0, 0, 0)" stroke="rgb(204, 204, 204)"
                          stroke-width="1px"></line>
                </g>
            </g>
        </g>
    </g>
</svg>