<svg viewBox="0 0 918.75 400" xmlns="http://www.w3.org/2000/svg">
    <g>
        <g>
            <g>
                <g>
                    <g>
                        <line x1="51.5625" y1="361.97057523054025" x2="46.5625" y2="361.97057523054025"
                              style="visibility: inherit;" fill="rgb(0, 0, 0)" stroke="rgb(204, 204, 204)"
                              stroke-width="1px"></line>
                        <line x1="51.5625" y1="347.48630364186454" x2="46.5625" y2="347.48630364186454"
                              style="visibility: inherit;" fill="rgb(0, 0, 0)" stroke="rgb(204, 204, 204)"
                              stroke-width="1px"></line>
                        <line x1="51.5625" y1="337.2095494026981" x2="46.5625" y2="337.2095494026981"
                              style="visibility: inherit;" fill="rgb(0, 0, 0)" stroke="rgb(204, 204, 204)"
                              stroke-width="1px"></line>
                        <line x1="51.5625" y1="329.238279530484" x2="46.5625" y2="329.238279530484"
                              style="visibility: inherit;" fill="rgb(0, 0, 0)" stroke="rgb(204, 204, 204)"
                              stroke-width="1px"></line>
                        <line x1="51.5625" y1="322.7252778140224" x2="46.5625" y2="322.7252778140224"
                              style="visibility: inherit;" fill="rgb(0, 0, 0)" stroke="rgb(204, 204, 204)"
                              stroke-width="1px"></line>
                        <line x1="51.5625" y1="317.2186133253942" x2="46.5625" y2="317.2186133253942"
                              style="visibility: inherit;" fill="rgb(0, 0, 0)" stroke="rgb(204, 204, 204)"
                              stroke-width="1px"></line>
                        <line x1="51.5625" y1="312.44852357485587" x2="46.5625" y2="312.44852357485587"
                              style="visibility: inherit;" fill="rgb(0, 0, 0)" stroke="rgb(204, 204, 204)"
                              stroke-width="1px"></line>
                        <line x1="51.5625" y1="308.24100622534667" x2="46.5625" y2="308.24100622534667"
                              style="visibility: inherit;" fill="rgb(0, 0, 0)" stroke="rgb(204, 204, 204)"
                              stroke-width="1px"></line>
                        <line x1="51.5625" y1="304.4772537026418" x2="46.5625" y2="304.4772537026418"
                              style="visibility: inherit;" fill="rgb(0, 0, 0)" stroke="rgb(204, 204, 204)"
                              stroke-width="1px"></line>
                        <line x1="51.5625" y1="279.7162278747996" x2="46.5625" y2="279.7162278747996"
                              style="visibility: inherit;" fill="rgb(0, 0, 0)" stroke="rgb(204, 204, 204)"
                              stroke-width="1px"></line>
                        <line x1="51.5625" y1="265.2319562861239" x2="46.5625" y2="265.2319562861239"
                              style="visibility: inherit;" fill="rgb(0, 0, 0)" stroke="rgb(204, 204, 204)"
                              stroke-width="1px"></line>
                        <line x1="51.5625" y1="254.9552020469574" x2="46.5625" y2="254.9552020469574"
                              style="visibility: inherit;" fill="rgb(0, 0, 0)" stroke="rgb(204, 204, 204)"
                              stroke-width="1px"></line>
                        <line x1="51.5625" y1="246.98393217474342" x2="46.5625" y2="246.98393217474342"
                              style="visibility: inherit;" fill="rgb(0, 0, 0)" stroke="rgb(204, 204, 204)"
                              stroke-width="1px"></line>
                        <line x1="51.5625" y1="240.47093045828169" x2="46.5625" y2="240.47093045828169"
                              style="visibility: inherit;" fill="rgb(0, 0, 0)" stroke="rgb(204, 204, 204)"
                              stroke-width="1px"></line>
                        <line x1="51.5625" y1="234.96426596965355" x2="46.5625" y2="234.96426596965355"
                              style="visibility: inherit;" fill="rgb(0, 0, 0)" stroke="rgb(204, 204, 204)"
                              stroke-width="1px"></line>
                        <line x1="51.5625" y1="230.19417621911518" x2="46.5625" y2="230.19417621911518"
                              style="visibility: inherit;" fill="rgb(0, 0, 0)" stroke="rgb(204, 204, 204)"
                              stroke-width="1px"></line>
                        <line x1="51.5625" y1="225.98665886960592" x2="46.5625" y2="225.98665886960592"
                              style="visibility: inherit;" fill="rgb(0, 0, 0)" stroke="rgb(204, 204, 204)"
                              stroke-width="1px"></line>
                        <line x1="51.5625" y1="222.22290634690114" x2="46.5625" y2="222.22290634690114"
                              style="visibility: inherit;" fill="rgb(0, 0, 0)" stroke="rgb(204, 204, 204)"
                              stroke-width="1px"></line>
                        <line x1="51.5625" y1="197.46188051905898" x2="46.5625" y2="197.46188051905898"
                              style="visibility: inherit;" fill="rgb(0, 0, 0)" stroke="rgb(204, 204, 204)"
                              stroke-width="1px"></line>
                        <line x1="51.5625" y1="182.97760893038324" x2="46.5625" y2="182.97760893038324"
                              style="visibility: inherit;" fill="rgb(0, 0, 0)" stroke="rgb(204, 204, 204)"
                              stroke-width="1px"></line>
                        <line x1="51.5625" y1="172.70085469121673" x2="46.5625" y2="172.70085469121673"
                              style="visibility: inherit;" fill="rgb(0, 0, 0)" stroke="rgb(204, 204, 204)"
                              stroke-width="1px"></line>
                        <line x1="51.5625" y1="164.72958481900272" x2="46.5625" y2="164.72958481900272"
                              style="visibility: inherit;" fill="rgb(0, 0, 0)" stroke="rgb(204, 204, 204)"
                              stroke-width="1px"></line>
                        <line x1="51.5625" y1="158.21658310254102" x2="46.5625" y2="158.21658310254102"
                              style="visibility: inherit;" fill="rgb(0, 0, 0)" stroke="rgb(204, 204, 204)"
                              stroke-width="1px"></line>
                        <line x1="51.5625" y1="152.7099186139129" x2="46.5625" y2="152.7099186139129"
                              style="visibility: inherit;" fill="rgb(0, 0, 0)" stroke="rgb(204, 204, 204)"
                              stroke-width="1px"></line>
                        <line x1="51.5625" y1="147.93982886337452" x2="46.5625" y2="147.93982886337452"
                              style="visibility: inherit;" fill="rgb(0, 0, 0)" stroke="rgb(204, 204, 204)"
                              stroke-width="1px"></line>
                        <line x1="51.5625" y1="143.7323115138653" x2="46.5625" y2="143.7323115138653"
                              style="visibility: inherit;" fill="rgb(0, 0, 0)" stroke="rgb(204, 204, 204)"
                              stroke-width="1px"></line>
                        <line x1="51.5625" y1="139.96855899116053" x2="46.5625" y2="139.96855899116053"
                              style="visibility: inherit;" fill="rgb(0, 0, 0)" stroke="rgb(204, 204, 204)"
                              stroke-width="1px"></line>
                        <line x1="51.5625" y1="115.20753316331827" x2="46.5625" y2="115.20753316331827"
                              style="visibility: inherit;" fill="rgb(0, 0, 0)" stroke="rgb(204, 204, 204)"
                              stroke-width="1px"></line>
                        <line x1="51.5625" y1="100.7232615746426" x2="46.5625" y2="100.7232615746426"
                              style="visibility: inherit;" fill="rgb(0, 0, 0)" stroke="rgb(204, 204, 204)"
                              stroke-width="1px"></line>
                        <line x1="51.5625" y1="90.44650733547606" x2="46.5625" y2="90.44650733547606"
                              style="visibility: inherit;" fill="rgb(0, 0, 0)" stroke="rgb(204, 204, 204)"
                              stroke-width="1px"></line>
                        <line x1="51.5625" y1="82.47523746326206" x2="46.5625" y2="82.47523746326206"
                              style="visibility: inherit;" fill="rgb(0, 0, 0)" stroke="rgb(204, 204, 204)"
                              stroke-width="1px"></line>
                        <line x1="51.5625" y1="75.96223574680039" x2="46.5625" y2="75.96223574680039"
                              style="visibility: inherit;" fill="rgb(0, 0, 0)" stroke="rgb(204, 204, 204)"
                              stroke-width="1px"></line>
                        <line x1="51.5625" y1="70.45557125817221" x2="46.5625" y2="70.45557125817221"
                              style="visibility: inherit;" fill="rgb(0, 0, 0)" stroke="rgb(204, 204, 204)"
                              stroke-width="1px"></line>
                        <line x1="51.5625" y1="65.68548150763385" x2="46.5625" y2="65.68548150763385"
                              style="visibility: inherit;" fill="rgb(0, 0, 0)" stroke="rgb(204, 204, 204)"
                              stroke-width="1px"></line>
                        <line x1="51.5625" y1="61.4779641581246" x2="46.5625" y2="61.4779641581246"
                              style="visibility: inherit;" fill="rgb(0, 0, 0)" stroke="rgb(204, 204, 204)"
                              stroke-width="1px"></line>
                        <line x1="51.5625" y1="57.71421163541986" x2="46.5625" y2="57.71421163541986"
                              style="visibility: inherit;" fill="rgb(0, 0, 0)" stroke="rgb(204, 204, 204)"
                              stroke-width="1px"></line>
                        <line x1="51.5625" y1="32.95318580757765" x2="46.5625" y2="32.95318580757765"
                              style="visibility: inherit;" fill="rgb(0, 0, 0)" stroke="rgb(204, 204, 204)"
                              stroke-width="1px"></line>
                        <line x1="51.5625" y1="18.468914218901894" x2="46.5625" y2="18.468914218901894"
                              style="visibility: inherit;" fill="rgb(0, 0, 0)" stroke="rgb(204, 204, 204)"
                              stroke-width="1px"></line>
                        <line x1="51.5625" y1="8.192159979735436" x2="46.5625" y2="8.192159979735436"
                              style="visibility: inherit;" fill="rgb(0, 0, 0)" stroke="rgb(204, 204, 204)"
                              stroke-width="1px"></line>
                        <line x1="51.5625" y1="0.22089010752140203" x2="46.5625" y2="0.22089010752140203"
                              style="visibility: inherit;" fill="rgb(0, 0, 0)" stroke="rgb(204, 204, 204)"
                              stroke-width="1px"></line>
                    </g>
                    <g transform="translate(41.5625, 0)">
                        <text x="0" y="361.97057523054025" dx="0em" dy="0.3em"
                              style="text-anchor: end; visibility: inherit; font-family: Roboto, sans-serif; font-size: 12px; font-weight: 200;"
                              fill="rgb(50, 49, 63)" stroke="none" stroke-width="1px">2e-3
                        </text>
                        <text x="0" y="347.48630364186454" dx="0em" dy="0.3em"
                              style="text-anchor: end; visibility: hidden; font-family: Roboto, sans-serif; font-size: 12px; font-weight: 200;"
                              fill="rgb(50, 49, 63)" stroke="none" stroke-width="1px">3e-3
                        </text>
                        <text x="0" y="337.2095494026981" dx="0em" dy="0.3em"
                              style="text-anchor: end; visibility: hidden; font-family: Roboto, sans-serif; font-size: 12px; font-weight: 200;"
                              fill="rgb(50, 49, 63)" stroke="none" stroke-width="1px">4e-3
                        </text>
                        <text x="0" y="329.238279530484" dx="0em" dy="0.3em"
                              style="text-anchor: end; visibility: hidden; font-family: Roboto, sans-serif; font-size: 12px; font-weight: 200;"
                              fill="rgb(50, 49, 63)" stroke="none" stroke-width="1px">5e-3
                        </text>
                        <text x="0" y="322.7252778140224" dx="0em" dy="0.3em"
                              style="text-anchor: end; visibility: hidden; font-family: Roboto, sans-serif; font-size: 12px; font-weight: 200;"
                              fill="rgb(50, 49, 63)" stroke="none" stroke-width="1px">6e-3
                        </text>
                        <text x="0" y="317.2186133253942" dx="0em" dy="0.3em"
                              style="text-anchor: end; visibility: inherit; font-family: Roboto, sans-serif; font-size: 12px; font-weight: 200;"
                              fill="rgb(50, 49, 63)" stroke="none" stroke-width="1px">7e-3
                        </text>
                        <text x="0" y="312.44852357485587" dx="0em" dy="0.3em"
                              style="text-anchor: end; visibility: hidden; font-family: Roboto, sans-serif; font-size: 12px; font-weight: 200;"
                              fill="rgb(50, 49, 63)" stroke="none" stroke-width="1px">8e-3
                        </text>
                        <text x="0" y="308.24100622534667" dx="0em" dy="0.3em"
                              style="text-anchor: end; visibility: hidden; font-family: Roboto, sans-serif; font-size: 12px; font-weight: 200;"
                              fill="rgb(50, 49, 63)" stroke="none" stroke-width="1px">9e-3
                        </text>
                        <text x="0" y="304.4772537026418" dx="0em" dy="0.3em"
                              style="text-anchor: end; visibility: hidden; font-family: Roboto, sans-serif; font-size: 12px; font-weight: 200;"
                              fill="rgb(50, 49, 63)" stroke="none" stroke-width="1px">0.01
                        </text>
                        <text x="0" y="279.7162278747996" dx="0em" dy="0.3em"
                              style="text-anchor: end; visibility: hidden; font-family: Roboto, sans-serif; font-size: 12px; font-weight: 200;"
                              fill="rgb(50, 49, 63)" stroke="none" stroke-width="1px">0.02
                        </text>
                        <text x="0" y="265.2319562861239" dx="0em" dy="0.3em"
                              style="text-anchor: end; visibility: inherit; font-family: Roboto, sans-serif; font-size: 12px; font-weight: 200;"
                              fill="rgb(50, 49, 63)" stroke="none" stroke-width="1px">0.03
                        </text>
                        <text x="0" y="254.9552020469574" dx="0em" dy="0.3em"
                              style="text-anchor: end; visibility: hidden; font-family: Roboto, sans-serif; font-size: 12px; font-weight: 200;"
                              fill="rgb(50, 49, 63)" stroke="none" stroke-width="1px">0.04
                        </text>
                        <text x="0" y="246.98393217474342" dx="0em" dy="0.3em"
                              style="text-anchor: end; visibility: hidden; font-family: Roboto, sans-serif; font-size: 12px; font-weight: 200;"
                              fill="rgb(50, 49, 63)" stroke="none" stroke-width="1px">0.05
                        </text>
                        <text x="0" y="240.47093045828169" dx="0em" dy="0.3em"
                              style="text-anchor: end; visibility: hidden; font-family: Roboto, sans-serif; font-size: 12px; font-weight: 200;"
                              fill="rgb(50, 49, 63)" stroke="none" stroke-width="1px">0.06
                        </text>
                        <text x="0" y="234.96426596965355" dx="0em" dy="0.3em"
                              style="text-anchor: end; visibility: hidden; font-family: Roboto, sans-serif; font-size: 12px; font-weight: 200;"
                              fill="rgb(50, 49, 63)" stroke="none" stroke-width="1px">0.07
                        </text>
                        <text x="0" y="230.19417621911518" dx="0em" dy="0.3em"
                              style="text-anchor: end; visibility: inherit; font-family: Roboto, sans-serif; font-size: 12px; font-weight: 200;"
                              fill="rgb(50, 49, 63)" stroke="none" stroke-width="1px">0.08
                        </text>
                        <text x="0" y="225.98665886960592" dx="0em" dy="0.3em"
                              style="text-anchor: end; visibility: hidden; font-family: Roboto, sans-serif; font-size: 12px; font-weight: 200;"
                              fill="rgb(50, 49, 63)" stroke="none" stroke-width="1px">0.09
                        </text>
                        <text x="0" y="222.22290634690114" dx="0em" dy="0.3em"
                              style="text-anchor: end; visibility: hidden; font-family: Roboto, sans-serif; font-size: 12px; font-weight: 200;"
                              fill="rgb(50, 49, 63)" stroke="none" stroke-width="1px">0.1
                        </text>
                        <text x="0" y="197.46188051905898" dx="0em" dy="0.3em"
                              style="text-anchor: end; visibility: hidden; font-family: Roboto, sans-serif; font-size: 12px; font-weight: 200;"
                              fill="rgb(50, 49, 63)" stroke="none" stroke-width="1px">0.2
                        </text>
                        <text x="0" y="182.97760893038324" dx="0em" dy="0.3em"
                              style="text-anchor: end; visibility: hidden; font-family: Roboto, sans-serif; font-size: 12px; font-weight: 200;"
                              fill="rgb(50, 49, 63)" stroke="none" stroke-width="1px">0.3
                        </text>
                        <text x="0" y="172.70085469121673" dx="0em" dy="0.3em"
                              style="text-anchor: end; visibility: inherit; font-family: Roboto, sans-serif; font-size: 12px; font-weight: 200;"
                              fill="rgb(50, 49, 63)" stroke="none" stroke-width="1px">0.4
                        </text>
                        <text x="0" y="164.72958481900272" dx="0em" dy="0.3em"
                              style="text-anchor: end; visibility: hidden; font-family: Roboto, sans-serif; font-size: 12px; font-weight: 200;"
                              fill="rgb(50, 49, 63)" stroke="none" stroke-width="1px">0.5
                        </text>
                        <text x="0" y="158.21658310254102" dx="0em" dy="0.3em"
                              style="text-anchor: end; visibility: hidden; font-family: Roboto, sans-serif; font-size: 12px; font-weight: 200;"
                              fill="rgb(50, 49, 63)" stroke="none" stroke-width="1px">0.6
                        </text>
                        <text x="0" y="152.7099186139129" dx="0em" dy="0.3em"
                              style="text-anchor: end; visibility: hidden; font-family: Roboto, sans-serif; font-size: 12px; font-weight: 200;"
                              fill="rgb(50, 49, 63)" stroke="none" stroke-width="1px">0.7
                        </text>
                        <text x="0" y="147.93982886337452" dx="0em" dy="0.3em"
                              style="text-anchor: end; visibility: hidden; font-family: Roboto, sans-serif; font-size: 12px; font-weight: 200;"
                              fill="rgb(50, 49, 63)" stroke="none" stroke-width="1px">0.8
                        </text>
                        <text x="0" y="143.7323115138653" dx="0em" dy="0.3em"
                              style="text-anchor: end; visibility: inherit; font-family: Roboto, sans-serif; font-size: 12px; font-weight: 200;"
                              fill="rgb(50, 49, 63)" stroke="none" stroke-width="1px">0.9
                        </text>
                        <text x="0" y="139.96855899116053" dx="0em" dy="0.3em"
                              style="text-anchor: end; visibility: hidden; font-family: Roboto, sans-serif; font-size: 12px; font-weight: 200;"
                              fill="rgb(50, 49, 63)" stroke="none" stroke-width="1px">1
                        </text>
                        <text x="0" y="115.20753316331827" dx="0em" dy="0.3em"
                              style="text-anchor: end; visibility: hidden; font-family: Roboto, sans-serif; font-size: 12px; font-weight: 200;"
                              fill="rgb(50, 49, 63)" stroke="none" stroke-width="1px">2
                        </text>
                        <text x="0" y="100.7232615746426" dx="0em" dy="0.3em"
                              style="text-anchor: end; visibility: hidden; font-family: Roboto, sans-serif; font-size: 12px; font-weight: 200;"
                              fill="rgb(50, 49, 63)" stroke="none" stroke-width="1px">3
                        </text>
                        <text x="0" y="90.44650733547606" dx="0em" dy="0.3em"
                              style="text-anchor: end; visibility: hidden; font-family: Roboto, sans-serif; font-size: 12px; font-weight: 200;"
                              fill="rgb(50, 49, 63)" stroke="none" stroke-width="1px">4
                        </text>
                        <text x="0" y="82.47523746326206" dx="0em" dy="0.3em"
                              style="text-anchor: end; visibility: inherit; font-family: Roboto, sans-serif; font-size: 12px; font-weight: 200;"
                              fill="rgb(50, 49, 63)" stroke="none" stroke-width="1px">5
                        </text>
                        <text x="0" y="75.96223574680039" dx="0em" dy="0.3em"
                              style="text-anchor: end; visibility: hidden; font-family: Roboto, sans-serif; font-size: 12px; font-weight: 200;"
                              fill="rgb(50, 49, 63)" stroke="none" stroke-width="1px">6
                        </text>
                        <text x="0" y="70.45557125817221" dx="0em" dy="0.3em"
                              style="text-anchor: end; visibility: hidden; font-family: Roboto, sans-serif; font-size: 12px; font-weight: 200;"
                              fill="rgb(50, 49, 63)" stroke="none" stroke-width="1px">7
                        </text>
                        <text x="0" y="65.68548150763385" dx="0em" dy="0.3em"
                              style="text-anchor: end; visibility: hidden; font-family: Roboto, sans-serif; font-size: 12px; font-weight: 200;"
                              fill="rgb(50, 49, 63)" stroke="none" stroke-width="1px">8
                        </text>
                        <text x="0" y="61.4779641581246" dx="0em" dy="0.3em"
                              style="text-anchor: end; visibility: hidden; font-family: Roboto, sans-serif; font-size: 12px; font-weight: 200;"
                              fill="rgb(50, 49, 63)" stroke="none" stroke-width="1px">9
                        </text>
                        <text x="0" y="57.71421163541986" dx="0em" dy="0.3em"
                              style="text-anchor: end; visibility: inherit; font-family: Roboto, sans-serif; font-size: 12px; font-weight: 200;"
                              fill="rgb(50, 49, 63)" stroke="none" stroke-width="1px">10
                        </text>
                        <text x="0" y="32.95318580757765" dx="0em" dy="0.3em"
                              style="text-anchor: end; visibility: hidden; font-family: Roboto, sans-serif; font-size: 12px; font-weight: 200;"
                              fill="rgb(50, 49, 63)" stroke="none" stroke-width="1px">20
                        </text>
                        <text x="0" y="18.468914218901894" dx="0em" dy="0.3em"
                              style="text-anchor: end; visibility: hidden; font-family: Roboto, sans-serif; font-size: 12px; font-weight: 200;"
                              fill="rgb(50, 49, 63)" stroke="none" stroke-width="1px">30
                        </text>
                        <text x="0" y="8.192159979735436" dx="0em" dy="0.3em"
                              style="text-anchor: end; visibility: hidden; font-family: Roboto, sans-serif; font-size: 12px; font-weight: 200;"
                              fill="rgb(50, 49, 63)" stroke="none" stroke-width="1px">40
                        </text>
                        <text x="0" y="0.22089010752140203" dx="0em" dy="0.3em"
                              style="text-anchor: end; visibility: hidden; font-family: Roboto, sans-serif; font-size: 12px; font-weight: 200;"
                              fill="rgb(50, 49, 63)" stroke="none" stroke-width="1px">50
                        </text>
                    </g>
                    <line x1="51.5625" y1="0" x2="51.5625" y2="378" fill="rgb(0, 0, 0)" stroke="rgb(204, 204, 204)"
                          stroke-width="1px"></line>
                </g>
            </g>
            <g transform="translate(51, 0)" clip-path="url(#clip_0)">
                <clipPath id="clip_0">
                    <rect width="867" height="378"></rect>
                </clipPath>
                <g>
                    <g>
                        <g>
                            <line x1="0" y1="0" x2="0" y2="378" fill="rgb(0, 0, 0)" stroke="rgb(60, 60, 60)"
                                  stroke-width="1px" opacity="0.25"></line>
                            <line x1="66.70673076923077" y1="0" x2="66.70673076923077" y2="378" fill="rgb(0, 0, 0)"
                                  stroke="rgb(60, 60, 60)" stroke-width="1px" opacity="0.25"></line>
                            <line x1="133.41346153846155" y1="0" x2="133.41346153846155" y2="378" fill="rgb(0, 0, 0)"
                                  stroke="rgb(60, 60, 60)" stroke-width="1px" opacity="0.25"></line>
                            <line x1="200.12019230769232" y1="0" x2="200.12019230769232" y2="378" fill="rgb(0, 0, 0)"
                                  stroke="rgb(60, 60, 60)" stroke-width="1px" opacity="0.25"></line>
                            <line x1="266.8269230769231" y1="0" x2="266.8269230769231" y2="378" fill="rgb(0, 0, 0)"
                                  stroke="rgb(60, 60, 60)" stroke-width="1px" opacity="0.25"></line>
                            <line x1="333.53365384615387" y1="0" x2="333.53365384615387" y2="378" fill="rgb(0, 0, 0)"
                                  stroke="rgb(60, 60, 60)" stroke-width="1px" opacity="0.25"></line>
                            <line x1="400.24038461538464" y1="0" x2="400.24038461538464" y2="378" fill="rgb(0, 0, 0)"
                                  stroke="rgb(60, 60, 60)" stroke-width="1px" opacity="0.25"></line>
                            <line x1="466.94711538461536" y1="0" x2="466.94711538461536" y2="378" fill="rgb(0, 0, 0)"
                                  stroke="rgb(60, 60, 60)" stroke-width="1px" opacity="0.25"></line>
                            <line x1="533.6538461538462" y1="0" x2="533.6538461538462" y2="378" fill="rgb(0, 0, 0)"
                                  stroke="rgb(60, 60, 60)" stroke-width="1px" opacity="0.25"></line>
                            <line x1="600.3605769230769" y1="0" x2="600.3605769230769" y2="378" fill="rgb(0, 0, 0)"
                                  stroke="rgb(60, 60, 60)" stroke-width="1px" opacity="0.25"></line>
                            <line x1="667.0673076923077" y1="0" x2="667.0673076923077" y2="378" fill="rgb(0, 0, 0)"
                                  stroke="rgb(60, 60, 60)" stroke-width="1px" opacity="0.25"></line>
                            <line x1="733.7740384615385" y1="0" x2="733.7740384615385" y2="378" fill="rgb(0, 0, 0)"
                                  stroke="rgb(60, 60, 60)" stroke-width="1px" opacity="0.25"></line>
                            <line x1="800.4807692307693" y1="0" x2="800.4807692307693" y2="378" fill="rgb(0, 0, 0)"
                                  stroke="rgb(60, 60, 60)" stroke-width="1px" opacity="0.25"></line>
                            <line x1="867.1875" y1="0" x2="867.1875" y2="378" fill="rgb(0, 0, 0)"
                                  stroke="rgb(60, 60, 60)" stroke-width="1px" opacity="0.25"></line>
                        </g>
                        <g>
                            <line x1="0" y1="361.97057523054025" x2="867.1875" y2="361.97057523054025"
                                  fill="rgb(0, 0, 0)" stroke="rgb(60, 60, 60)" stroke-width="1px" opacity="0.25"></line>
                            <line x1="0" y1="347.48630364186454" x2="867.1875" y2="347.48630364186454"
                                  fill="rgb(0, 0, 0)" stroke="rgb(60, 60, 60)" stroke-width="1px" opacity="0.25"></line>
                            <line x1="0" y1="337.2095494026981" x2="867.1875" y2="337.2095494026981" fill="rgb(0, 0, 0)"
                                  stroke="rgb(60, 60, 60)" stroke-width="1px" opacity="0.25"></line>
                            <line x1="0" y1="329.238279530484" x2="867.1875" y2="329.238279530484" fill="rgb(0, 0, 0)"
                                  stroke="rgb(60, 60, 60)" stroke-width="1px" opacity="0.25"></line>
                            <line x1="0" y1="322.7252778140224" x2="867.1875" y2="322.7252778140224" fill="rgb(0, 0, 0)"
                                  stroke="rgb(60, 60, 60)" stroke-width="1px" opacity="0.25"></line>
                            <line x1="0" y1="317.2186133253942" x2="867.1875" y2="317.2186133253942" fill="rgb(0, 0, 0)"
                                  stroke="rgb(60, 60, 60)" stroke-width="1px" opacity="0.25"></line>
                            <line x1="0" y1="312.44852357485587" x2="867.1875" y2="312.44852357485587"
                                  fill="rgb(0, 0, 0)" stroke="rgb(60, 60, 60)" stroke-width="1px" opacity="0.25"></line>
                            <line x1="0" y1="308.24100622534667" x2="867.1875" y2="308.24100622534667"
                                  fill="rgb(0, 0, 0)" stroke="rgb(60, 60, 60)" stroke-width="1px" opacity="0.25"></line>
                            <line x1="0" y1="304.4772537026418" x2="867.1875" y2="304.4772537026418" fill="rgb(0, 0, 0)"
                                  stroke="rgb(60, 60, 60)" stroke-width="1px" opacity="0.25"></line>
                            <line x1="0" y1="279.7162278747996" x2="867.1875" y2="279.7162278747996" fill="rgb(0, 0, 0)"
                                  stroke="rgb(60, 60, 60)" stroke-width="1px" opacity="0.25"></line>
                            <line x1="0" y1="265.2319562861239" x2="867.1875" y2="265.2319562861239" fill="rgb(0, 0, 0)"
                                  stroke="rgb(60, 60, 60)" stroke-width="1px" opacity="0.25"></line>
                            <line x1="0" y1="254.9552020469574" x2="867.1875" y2="254.9552020469574" fill="rgb(0, 0, 0)"
                                  stroke="rgb(60, 60, 60)" stroke-width="1px" opacity="0.25"></line>
                            <line x1="0" y1="246.98393217474342" x2="867.1875" y2="246.98393217474342"
                                  fill="rgb(0, 0, 0)" stroke="rgb(60, 60, 60)" stroke-width="1px" opacity="0.25"></line>
                            <line x1="0" y1="240.47093045828169" x2="867.1875" y2="240.47093045828169"
                                  fill="rgb(0, 0, 0)" stroke="rgb(60, 60, 60)" stroke-width="1px" opacity="0.25"></line>
                            <line x1="0" y1="234.96426596965355" x2="867.1875" y2="234.96426596965355"
                                  fill="rgb(0, 0, 0)" stroke="rgb(60, 60, 60)" stroke-width="1px" opacity="0.25"></line>
                            <line x1="0" y1="230.19417621911518" x2="867.1875" y2="230.19417621911518"
                                  fill="rgb(0, 0, 0)" stroke="rgb(60, 60, 60)" stroke-width="1px" opacity="0.25"></line>
                            <line x1="0" y1="225.98665886960592" x2="867.1875" y2="225.98665886960592"
                                  fill="rgb(0, 0, 0)" stroke="rgb(60, 60, 60)" stroke-width="1px" opacity="0.25"></line>
                            <line x1="0" y1="222.22290634690114" x2="867.1875" y2="222.22290634690114"
                                  fill="rgb(0, 0, 0)" stroke="rgb(60, 60, 60)" stroke-width="1px" opacity="0.25"></line>
                            <line x1="0" y1="197.46188051905898" x2="867.1875" y2="197.46188051905898"
                                  fill="rgb(0, 0, 0)" stroke="rgb(60, 60, 60)" stroke-width="1px" opacity="0.25"></line>
                            <line x1="0" y1="182.97760893038324" x2="867.1875" y2="182.97760893038324"
                                  fill="rgb(0, 0, 0)" stroke="rgb(60, 60, 60)" stroke-width="1px" opacity="0.25"></line>
                            <line x1="0" y1="172.70085469121673" x2="867.1875" y2="172.70085469121673"
                                  fill="rgb(0, 0, 0)" stroke="rgb(60, 60, 60)" stroke-width="1px" opacity="0.25"></line>
                            <line x1="0" y1="164.72958481900272" x2="867.1875" y2="164.72958481900272"
                                  fill="rgb(0, 0, 0)" stroke="rgb(60, 60, 60)" stroke-width="1px" opacity="0.25"></line>
                            <line x1="0" y1="158.21658310254102" x2="867.1875" y2="158.21658310254102"
                                  fill="rgb(0, 0, 0)" stroke="rgb(60, 60, 60)" stroke-width="1px" opacity="0.25"></line>
                            <line x1="0" y1="152.7099186139129" x2="867.1875" y2="152.7099186139129" fill="rgb(0, 0, 0)"
                                  stroke="rgb(60, 60, 60)" stroke-width="1px" opacity="0.25"></line>
                            <line x1="0" y1="147.93982886337452" x2="867.1875" y2="147.93982886337452"
                                  fill="rgb(0, 0, 0)" stroke="rgb(60, 60, 60)" stroke-width="1px" opacity="0.25"></line>
                            <line x1="0" y1="143.7323115138653" x2="867.1875" y2="143.7323115138653" fill="rgb(0, 0, 0)"
                                  stroke="rgb(60, 60, 60)" stroke-width="1px" opacity="0.25"></line>
                            <line x1="0" y1="139.96855899116053" x2="867.1875" y2="139.96855899116053"
                                  fill="rgb(0, 0, 0)" stroke="rgb(60, 60, 60)" stroke-width="1px" opacity="0.25"></line>
                            <line x1="0" y1="115.20753316331827" x2="867.1875" y2="115.20753316331827"
                                  fill="rgb(0, 0, 0)" stroke="rgb(60, 60, 60)" stroke-width="1px" opacity="0.25"></line>
                            <line x1="0" y1="100.7232615746426" x2="867.1875" y2="100.7232615746426" fill="rgb(0, 0, 0)"
                                  stroke="rgb(60, 60, 60)" stroke-width="1px" opacity="0.25"></line>
                            <line x1="0" y1="90.44650733547606" x2="867.1875" y2="90.44650733547606" fill="rgb(0, 0, 0)"
                                  stroke="rgb(60, 60, 60)" stroke-width="1px" opacity="0.25"></line>
                            <line x1="0" y1="82.47523746326206" x2="867.1875" y2="82.47523746326206" fill="rgb(0, 0, 0)"
                                  stroke="rgb(60, 60, 60)" stroke-width="1px" opacity="0.25"></line>
                            <line x1="0" y1="75.96223574680039" x2="867.1875" y2="75.96223574680039" fill="rgb(0, 0, 0)"
                                  stroke="rgb(60, 60, 60)" stroke-width="1px" opacity="0.25"></line>
                            <line x1="0" y1="70.45557125817221" x2="867.1875" y2="70.45557125817221" fill="rgb(0, 0, 0)"
                                  stroke="rgb(60, 60, 60)" stroke-width="1px" opacity="0.25"></line>
                            <line x1="0" y1="65.68548150763385" x2="867.1875" y2="65.68548150763385" fill="rgb(0, 0, 0)"
                                  stroke="rgb(60, 60, 60)" stroke-width="1px" opacity="0.25"></line>
                            <line x1="0" y1="61.4779641581246" x2="867.1875" y2="61.4779641581246" fill="rgb(0, 0, 0)"
                                  stroke="rgb(60, 60, 60)" stroke-width="1px" opacity="0.25"></line>
                            <line x1="0" y1="57.71421163541986" x2="867.1875" y2="57.71421163541986" fill="rgb(0, 0, 0)"
                                  stroke="rgb(60, 60, 60)" stroke-width="1px" opacity="0.25"></line>
                            <line x1="0" y1="32.95318580757765" x2="867.1875" y2="32.95318580757765" fill="rgb(0, 0, 0)"
                                  stroke="rgb(60, 60, 60)" stroke-width="1px" opacity="0.25"></line>
                            <line x1="0" y1="18.468914218901894" x2="867.1875" y2="18.468914218901894"
                                  fill="rgb(0, 0, 0)" stroke="rgb(60, 60, 60)" stroke-width="1px" opacity="0.25"></line>
                            <line x1="0" y1="8.192159979735436" x2="867.1875" y2="8.192159979735436" fill="rgb(0, 0, 0)"
                                  stroke="rgb(60, 60, 60)" stroke-width="1px" opacity="0.25"></line>
                            <line x1="0" y1="0.22089010752140203" x2="867.1875" y2="0.22089010752140203"
                                  fill="rgb(0, 0, 0)" stroke="rgb(60, 60, 60)" stroke-width="1px" opacity="0.25"></line>
                        </g>
                    </g>
                </g>
                <g>
                    <g>
                        <line x1="66.70673076923077" y1="0" x2="66.70673076923077" y2="378" fill="rgb(0, 0, 0)"
                              stroke="rgb(153, 153, 153)" stroke-width="1.5px"></line>
                    </g>
                </g>
                <g>
                    <g>
                        <g>
                            <g>
                                <g>
                                    <path stroke="rgb(187, 187, 187)" stroke-width="2px"
                                          d="M69.97536057692308,81.9271708546617L73.31069711538461,100.73398600384702L76.64603365384615,112.49152588260054L79.9813701923077,119.06130803149675L83.31670673076923,126.48066169399473L86.65204326923077,136.31270249800133L89.9873798076923,141.42850031998188L93.32271634615384,150.66372681998868L96.65805288461539,159.74794618744764L99.99338942307692,163.43989668281947L103.32872596153845,166.60784912663442L106.6640625,168.8359395458037L109.99939903846155,185.6056028795811L113.33473557692308,190.53033184198534L116.67007211538463,187.3697059599233L120.00540865384615,190.82419572571595L123.34074519230771,191.25315283049883L126.67608173076923,195.37276887889118L130.01141826923077,197.8534443262609L133.34675480769232,198.81067185724484L136.68209134615384,217.40338353237829L140.0174278846154,207.4993618475234L143.3527644230769,210.96391242096314L146.68810096153845,209.80174502577674L150.0234375,215.41308919840924L153.35877403846155,219.01782568253915L156.69411057692307,217.88525901861556L160.0294471153846,212.59868484907093L163.36478365384613,225.15021871210232L166.7001201923077,237.25905466920264L170.03545673076923,226.94021248182304L173.37079326923077,228.39502059431692L176.7061298076923,226.25352502404348L180.04146634615384,237.35914958587335L183.3768028846154,238.59162746421475L186.71213942307693,246.55160910445252L190.04747596153845,241.2403865898199L193.3828125,247.85593376458456L196.71814903846152,241.8161610774824L200.0534855769231,247.64187162892782L203.3888221153846,238.34365838550656L206.72415865384616,246.79773984025152L210.05949519230768,247.04182714249976L213.39483173076923,244.81064216371874L216.73016826923077,241.0409122784924L220.0655048076923,250.0961363693816L223.40084134615387,248.30737597697066L226.7361778846154,254.0495307057114L230.0715144230769,251.70820041287487L233.40685096153845,248.42521455050553L236.74218750000003,251.58117651942143L240.07752403846155,260.5202921242606L243.41286057692307,259.91358541030536L246.74819711538458,243.66605889350214L250.08353365384616,251.216920708195L253.4188701923077,254.27511331642856L256.7542067307692,254.10863653458802L260.0895432692308,259.90843714744784L263.4248798076923,260.9246017635398L266.76021634615387,253.4817365268919L270.09555288461536,256.63850777237633L273.4308894230769,262.80642038988293L276.7662259615385,267.3631779292586L280.1015625,258.3073010185339L283.43689903846155,260.43381627307195L286.77223557692304,255.34126545429802L290.10757211538464,262.2460967572812L293.4429086538462,257.54057332231616L296.7782451923077,260.9948849453085L300.1135817307692,262.67981284686493L303.4489182692308,253.76527299379066L306.7842548076923,272.98968334973995L310.11959134615387,259.64508683801864L313.45492788461536,258.12739650435867L316.79026442307696,260.00979593022686L320.12560096153845,272.0027266904121L323.4609375,269.08701184200254L326.79627403846155,267.53656625858264L330.1316105769231,263.6503376663828L333.46694711538464,263.96776167647903L336.80228365384613,262.12220432807123L340.1376201923077,268.9140943160025L343.4729567307692,277.259130513644L346.8082932692308,281.64553594854857L350.1436298076923,271.5632193863123L353.4789663461538,253.64033349415843L356.81430288461536,259.6870087776869L360.14963942307696,262.76645462479866L363.48497596153845,278.6717683886469L366.8203125,269.73792123132364L370.1556490384615,272.2192192796758L373.4909855769231,269.5824262078027L376.82632211538464,265.9888981451246L380.16165865384613,255.84236797362215L383.4969951923077,261.4858882298275L386.8323317307692,286.01921982081836L390.1676682692308,262.95939701877796L393.5030048076923,280.0432978378118L396.8383413461538,269.4297802516792L400.1736778846154,269.57646933757934L403.5090144230769,276.26799191568455L406.84435096153845,283.75550586474117L410.1796875,286.48244118170646L413.51502403846155,261.3497509661591L416.8503605769231,280.4924935849763L420.1856971153846,277.42221115389583L423.52103365384613,282.0023968005405L426.85637019230774,270.785225615423L430.1917067307692,257.2300371849793L433.5270432692308,281.84425134175063L436.86237980769226,278.55310137475857L440.1977163461538,288.64746641398017L443.53305288461536,269.42907430993523L446.86838942307696,282.34462336516833L450.2037259615385,284.9475619264923L453.5390625,285.7466771596062L456.87439903846155,272.0535589509158L460.2097355769231,280.0270745900202L463.5450721153846,281.66809423539644L466.88040865384613,279.98352679605415L470.2157451923077,267.1401369382191L473.5510817307693,288.2489880744834L476.8864182692308,283.89325361223615L480.2217548076923,284.39799512295707L483.55709134615387,289.5995634501665L486.89242788461536,280.96286105553907L490.2277644230769,281.60539341765406L493.56310096153845,276.56563825295564L496.89843749999994,282.6699069215641L500.2337740384616,299.6896731388072L503.5691105769231,290.4003794048882L506.90444711538464,291.9001333356342L510.2397836538462,281.9264022905453L513.5751201923077,272.5160771425693L516.9104567307692,288.49597015224384L520.2457932692307,291.6296097739807L523.5811298076923,283.18566673046496L526.9164663461539,275.14829461248576L530.2518028846155,285.2761748046465L533.5871394230769,276.5933743728334L536.9224759615385,276.2363841903852L540.2578125,276.920314206797L543.5931490384615,274.2878498046164L546.9284855769231,292.52926561458077L550.2638221153845,281.4351302910561L553.5991586538462,285.9686440855009L556.9344951923077,296.8234022047669L560.2698317307693,290.39887187806187L563.6051682692308,288.8099830128877L566.9405048076923,284.5493755921581L570.2758413461538,296.29955552030964L573.6111778846154,292.192635838866L576.9465144230769,273.9882746171573L580.2818509615385,302.47633982715416L583.6171875,305.9808228080742L586.9525240384615,294.69792211636485L590.2878605769231,296.3837033474363L593.6231971153846,284.7475615863486L596.9585336538462,281.6831046869903L600.2938701923076,277.36487423219864L603.6292067307692,300.31156336103777L606.9645432692307,278.38357620170416L610.2998798076924,292.3455900411836L613.6352163461539,277.3548765072469L616.9705528846154,295.7676390044995L620.3058894230769,298.1838369957562L623.6412259615385,294.176974158469L626.9765625,292.75393203069086L630.3118990384615,284.6463145179047L633.647235576923,289.5579038456324L636.9825721153846,296.63430017843575L640.3179086538462,306.0723522450557L643.6532451923077,304.9807130388695L646.9885817307693,307.3376260488121L650.3239182692307,293.5806686610838L653.6592548076923,308.6761403488598L656.9945913461538,311.1420840173782L660.3299278846154,285.14007500074257L663.665264423077,284.1745100441172L667.0006009615385,301.78409708067574L670.3359375,292.8634899202497L673.6712740384615,303.1617598494326L677.0066105769231,291.75237661821694L680.3419471153846,302.18025751010043L683.6772836538461,291.27427236630723L687.0126201923076,297.9508300460832L690.3479567307693,309.56616588166236L693.6832932692308,298.738546876036L697.0186298076924,293.8756237711948L700.3539663461538,301.10603741570355L703.6893028846154,299.0556981107588L707.0246394230769,295.5141557499279L710.3599759615385,286.86287304831654L713.6953125,293.9285024790945L717.0306490384615,289.05086544776736L720.3659855769231,300.7618689724476L723.7013221153846,294.2736077275989L727.0366586538462,306.2221031239099L730.3719951923077,309.9025375279169L733.7073317307692,313.43874176081465L737.0426682692307,298.5522160573328L740.3780048076923,303.12747807523516L743.7133413461539,312.95711113983845L747.0486778846155,307.0324080352462L750.3840144230769,303.5781091618146L753.7193509615385,295.4758434060687L757.0546875,290.86119930651023L760.3900240384615,294.5365578199365L763.7253605769231,305.77793624921156L767.0606971153845,301.59000277448143L770.3960336538462,299.1554429252883L773.7313701923077,289.81213280738166L777.0667067307693,323.0026109839393L780.4020432692308,300.9556153193467L783.7373798076923,310.14509740626926L787.0727163461538,324L790.4080528846154,279.1164009682512L793.7433894230769,296.11506558650245L797.0787259615385,290.269902326121L800.4140625,308.52497028421254L803.7493990384615,310.9864371091736"
                                          style="fill: none;" fill="none"></path>
                                </g>
                                <g>
                                    <path stroke="rgb(0, 153, 136)" stroke-width="2px"
                                          d="M69.97536057692308,85.60202994153856L73.31069711538461,101.76564117508732L76.64603365384615,116.40785634673026L79.9813701923077,124.6560227575766L83.31670673076923,138.54232477685474L86.65204326923077,142.33858048622372L89.9873798076923,154.8199873321881L93.32271634615384,157.249340230301L96.65805288461539,166.57404081616798L99.99338942307692,173.30549197471535L103.32872596153845,180.17950611571106L106.6640625,179.6567273801644L109.99939903846155,192.74896529520217L113.33473557692308,190.31016040147404L116.67007211538463,196.95366849851015L120.00540865384615,191.45451677983345L123.34074519230771,201.52654960453475L126.67608173076923,201.95471016315236L130.01141826923077,210.8438762719589L133.34675480769232,199.39836200237167L136.68209134615384,214.72523103176286L140.0174278846154,222.95027457892115L143.3527644230769,221.64169209898392L146.68810096153845,213.9297625862672L150.0234375,215.70858133637282L153.35877403846155,223.52827470146815L156.69411057692307,224.209153183989L160.0294471153846,221.65981994762956L163.36478365384613,224.1173105309901L166.7001201923077,226.99458454089367L170.03545673076923,222.02548950485493L173.37079326923077,241.93658623204664L176.7061298076923,238.70042036604852L180.04146634615384,231.48128443403658L183.3768028846154,231.09174253488663L186.71213942307693,235.18590556987206L190.04747596153845,231.05647399293255L193.3828125,249.59563146705736L196.71814903846152,243.21525480845455L200.0534855769231,250.33841159254487L203.3888221153846,243.86138656642603L206.72415865384616,239.5905911963416L210.05949519230768,244.44032242365267L213.39483173076923,244.08798524850747L216.73016826923077,246.22358502651397L220.0655048076923,257.37899993039576L223.40084134615387,232.60509099358728L226.7361778846154,252.3296564760169L230.0715144230769,240.3834913762775L233.40685096153845,253.408696803084L236.74218750000003,261.87602012220594L240.07752403846155,251.97729367744034L243.41286057692307,240.59755424712986L246.74819711538458,252.51562250069057L250.08353365384616,254.48104603879003L253.4188701923077,251.4600567217927L256.7542067307692,254.5190216712629L260.0895432692308,260.05593578788756L263.4248798076923,256.23837863623436L266.76021634615387,272.2835250441153L270.09555288461536,256.85620771826666L273.4308894230769,266.22510063458867L276.7662259615385,266.4847991865616L280.1015625,257.5392106500449L283.43689903846155,275.99930205606876L286.77223557692304,264.50351849289063L290.10757211538464,260.5582958304966L293.4429086538462,258.88057734138346L296.7782451923077,275.4907570828118L300.1135817307692,269.9558701086792L303.4489182692308,270.6717652495707L306.7842548076923,275.23005299880475L310.11959134615387,261.26481475021797L313.45492788461536,271.2001082633792L316.79026442307696,258.8460598823905L320.12560096153845,266.88303391931976L323.4609375,274.23907576067137L326.79627403846155,250.52266516003235L330.1316105769231,263.8817951651569L333.46694711538464,265.0275091571927L336.80228365384613,264.22180130278906L340.1376201923077,263.0359272985911L343.4729567307692,278.59683791017574L346.8082932692308,284.50744115039214L350.1436298076923,273.63054526615747L353.4789663461538,262.6854838460951L356.81430288461536,271.54487585820203L360.14963942307696,287.48791086534266L363.48497596153845,265.30184429971433L366.8203125,269.37561046919626L370.1556490384615,272.2171479572463L373.4909855769231,266.94201844309L376.82632211538464,283.0794081972506L380.16165865384613,271.12828472449775L383.4969951923077,272.96526601577347L386.8323317307692,289.1807730036903L390.1676682692308,279.4945295891281L393.5030048076923,292.1948296054846L396.8383413461538,272.9979355144121L400.1736778846154,274.94042746100973L403.5090144230769,270.6388036304114L406.84435096153845,270.71675445967225L410.1796875,275.01033557153045L413.51502403846155,273.1544033002183L416.8503605769231,262.69682441408975L420.1856971153846,269.5589902303464L423.52103365384613,277.1998840284458L426.85637019230774,288.1965999470719L430.1917067307692,272.69967642716927L433.5270432692308,290.1245898777555L436.86237980769226,273.64074862232826L440.1977163461538,285.1775758992925L443.53305288461536,280.57456211785717L446.86838942307696,288.6768223545769L450.2037259615385,286.58298373403477L453.5390625,265.05928392874995L456.87439903846155,268.5621426764114L460.2097355769231,278.9743297545398L463.5450721153846,303.30615129312054L466.88040865384613,270.42275969284987L470.2157451923077,288.62274904082835L473.5510817307693,275.6467486959562L476.8864182692308,268.4924916712126L480.2217548076923,261.2680541288568L483.55709134615387,268.3358966820141L486.89242788461536,269.6465341601575L490.2277644230769,294.13204616067634L493.56310096153845,275.1608385755326L496.89843749999994,288.71247808361363L500.2337740384616,287.61132000093363L503.5691105769231,276.63486942550924L506.90444711538464,289.30635907642767L510.2397836538462,277.1265269889821L513.5751201923077,275.2611729577387L516.9104567307692,279.74922040686926L520.2457932692307,276.00161671216176L523.5811298076923,283.325157431387L526.9164663461539,281.7190555919934L530.2518028846155,285.21797630172193L533.5871394230769,286.59665497953534L536.9224759615385,298.5966709179846L540.2578125,290.43389792380407L543.5931490384615,276.88705463028026L546.9284855769231,296.234964490348L550.2638221153845,280.21329714720787L553.5991586538462,274.0256468270186L556.9344951923077,283.5980498725446L560.2698317307693,285.2160824819986L563.6051682692308,275.0954469556974L566.9405048076923,295.38139475027134L570.2758413461538,286.97172397229303L573.6111778846154,284.41067295471703L576.9465144230769,293.18115981836206L580.2818509615385,303.47763718947357L583.6171875,286.64232824190185L586.9525240384615,292.20445782384354L590.2878605769231,298.08682332987706L593.6231971153846,286.0454639612539L596.9585336538462,278.27437881693317L600.2938701923076,298.7274679937705L603.6292067307692,279.59473981906575L606.9645432692307,290.50407796218565L610.2998798076924,303.08037829262304L613.6352163461539,311.5505421104766L616.9705528846154,291.66591999383974L620.3058894230769,305.31198286495027L623.6412259615385,302.7286615456381L626.9765625,303.66190533326966L630.3118990384615,287.4390173721495L633.647235576923,298.2534310852874L636.9825721153846,305.70966498520846L640.3179086538462,278.4344356747199L643.6532451923077,292.5145507598094L646.9885817307693,291.69913794097636L650.3239182692307,292.77289078385394L653.6592548076923,302.71200492621625L656.9945913461538,294.6862143480918L660.3299278846154,287.6541383925323L663.665264423077,286.42029887275953L667.0006009615385,285.10780902501017L670.3359375,297.61649773013494L673.6712740384615,296.11317544773567L677.0066105769231,281.6081961038996L680.3419471153846,304.226170802145L683.6772836538461,283.588119022672L687.0126201923076,296.7445147983311L690.3479567307693,295.2718188812014L693.6832932692308,292.0723807993679L697.0186298076924,292.75342404576844L700.3539663461538,314.21419748451723L703.6893028846154,299.32249960816137L707.0246394230769,291.349699974895L710.3599759615385,299.85179296031293L713.6953125,298.41236533827356L717.0306490384615,291.5412350557825L720.3659855769231,293.8707950980501L723.7013221153846,304.7404367097006L727.0366586538462,316.26321499896187L730.3719951923077,303.5900434439131L733.7073317307692,319.0931586557013L737.0426682692307,305.15164061205036L740.3780048076923,309.36249971286077L743.7133413461539,295.71006340492437L747.0486778846155,292.3593040855686L750.3840144230769,298.68338480906226L753.7193509615385,301.9946824622919L757.0546875,307.48445200363193L760.3900240384615,296.13619034717976L763.7253605769231,303.8039224806797L767.0606971153845,302.54448403118056L770.3960336538462,301.0493172306234L773.7313701923077,318.78564014075613L777.0667067307693,318.3975862828195L780.4020432692308,310.76570651745374L783.7373798076923,301.18103312066296L787.0727163461538,300.4919566395882L790.4080528846154,305.0161524127945"
                                          style="fill: none;" fill="none"></path>
                                </g>
                                <g>
                                    <path stroke="rgb(238, 51, 119)" stroke-width="2px"
                                          d="M69.97536057692308,84.30616564293811L73.31069711538461,100.32002640790213L76.64603365384615,112.37794707472916L79.9813701923077,128.71836814831184L83.31670673076923,133.00106454497748L86.65204326923077,138.635887446445L89.9873798076923,149.27214805908554L93.32271634615384,157.9980222341653L96.65805288461539,161.4490780300181L99.99338942307692,173.8478677659333L103.32872596153845,176.45834876222267L106.6640625,175.19084008359536L109.99939903846155,180.81277827053069L113.33473557692308,185.36136822910856L116.67007211538463,198.99196013646818L120.00540865384615,200.31522017354933L123.34074519230771,201.09332624363168L126.67608173076923,204.5461575694433L130.01141826923077,208.8049255131226L133.34675480769232,206.72259019561528L136.68209134615384,212.27746288016255L140.0174278846154,208.76919262109905L143.3527644230769,220.8456502205905L146.68810096153845,211.72404714407716L150.0234375,213.92670302237727L153.35877403846155,221.71820271324455L156.69411057692307,230.9240720488058L160.0294471153846,226.4591910396844L163.36478365384613,227.17507748914244L166.7001201923077,230.31522585845974L170.03545673076923,237.20175829393335L173.37079326923077,241.62351174240573L176.7061298076923,228.7944886965819L180.04146634615384,236.93984557645504L183.3768028846154,235.96408069083324L186.71213942307693,240.94154632417445L190.04747596153845,233.87704451015108L193.3828125,234.609899789769L196.71814903846152,244.50648591815107L200.0534855769231,245.7330842958259L203.3888221153846,243.156009528293L206.72415865384616,250.04457852621744L210.05949519230768,248.40722341933568L213.39483173076923,240.09623080182453L216.73016826923077,247.3562694658307L220.0655048076923,251.41513114343886L223.40084134615387,244.45587169859698L226.7361778846154,251.30237444204167L230.0715144230769,259.38629254630166L233.40685096153845,256.32226435006737L236.74218750000003,262.08465758989826L240.07752403846155,249.29244302034488L243.41286057692307,253.9053277102325L246.74819711538458,262.10053058661447L250.08353365384616,251.19729088834643L253.4188701923077,257.8462383123918L256.7542067307692,256.6221205184064L260.0895432692308,255.870929399885L263.4248798076923,264.33495192174433L266.76021634615387,261.6973635131794L270.09555288461536,259.87141597506053L273.4308894230769,263.929341554493L276.7662259615385,266.3644081643426L280.1015625,259.97462992931287L283.43689903846155,267.13133158726544L286.77223557692304,257.7082418765619L290.10757211538464,265.9210263460114L293.4429086538462,252.2392644501551L296.7782451923077,255.55754592020008L300.1135817307692,257.969653801917L303.4489182692308,277.58766959712784L306.7842548076923,276.0400103011782L310.11959134615387,258.26938291029006L313.45492788461536,269.0160991390521L316.79026442307696,250.54858507158772L320.12560096153845,269.417344747456L323.4609375,263.68683165630614L326.79627403846155,268.28728027698486L330.1316105769231,272.3875455596279L333.46694711538464,262.62032783071504L336.80228365384613,274.7450157685771L340.1376201923077,270.70838964291244L343.4729567307692,274.50231527917884L346.8082932692308,261.92865579630535L350.1436298076923,286.5088710538751L353.4789663461538,265.2310477360296L356.81430288461536,268.6747062211692L360.14963942307696,271.23806322676904L363.48497596153845,273.5994676870677L366.8203125,267.5556985265441L370.1556490384615,260.97290782346647L373.4909855769231,268.4696383092617L376.82632211538464,264.07890660006797L380.16165865384613,274.8054187781175L383.4969951923077,261.9171845116501L386.8323317307692,263.2550175461618L390.1676682692308,285.3638611501988L393.5030048076923,288.8907247729965L396.8383413461538,267.1805280565651L400.1736778846154,270.131607402348L403.5090144230769,273.44800396116693L406.84435096153845,284.52160412625784L410.1796875,293.8532116846916L413.51502403846155,276.0040244734337L416.8503605769231,277.2775214928025L420.1856971153846,271.6583919952711L423.52103365384613,282.53557828976125L426.85637019230774,278.2580129499227L430.1917067307692,289.08669340519174L433.5270432692308,277.888798433107L436.86237980769226,268.38784756369756L440.1977163461538,279.02146636814433L443.53305288461536,270.9008670231236L446.86838942307696,288.8574431700291L450.2037259615385,286.0393200716993L453.5390625,266.91476679712804L456.87439903846155,272.0674626909266L460.2097355769231,275.85245450499247L463.5450721153846,293.9056464027016L466.88040865384613,291.586032832661L470.2157451923077,291.74380818598746L473.5510817307693,273.99076866078616L476.8864182692308,273.9667480567194L480.2217548076923,290.15722437774355L483.55709134615387,290.062556785342L486.89242788461536,293.69553619869487L490.2277644230769,280.8383560972921L493.56310096153845,289.6932039447966L496.89843749999994,286.79332047217514"
                                          style="fill: none;" fill="none"></path>
                                </g>
                                <g>
                                    <path stroke="rgb(51, 187, 238)" stroke-width="2px"
                                          d="M69.97536057692308,79.6616449841383L73.31069711538461,97.3994381322586L76.64603365384615,110.79228165428432L79.9813701923077,121.60122388130138L83.31670673076923,128.48472283465162L86.65204326923077,137.87695314958938L89.9873798076923,143.29049799440347L93.32271634615384,154.20579180990927L96.65805288461539,161.74831679224764L99.99338942307692,169.97634575950195L103.32872596153845,168.43792658340013L106.6640625,178.46289129810472L109.99939903846155,184.52183887105807L113.33473557692308,186.3667252022707L116.67007211538463,191.56107340386782L120.00540865384615,185.57866171123274L123.34074519230771,209.01237514243763L126.67608173076923,197.40768953577953L130.01141826923077,203.72316530888207L133.34675480769232,209.50752216746898L136.68209134615384,208.79571296220644L140.0174278846154,215.53664735489562L143.3527644230769,216.68166904452667L146.68810096153845,216.26178992349995L150.0234375,218.1583698319464L153.35877403846155,223.19928991348317L156.69411057692307,229.3232384400674L160.0294471153846,221.9156465456705L163.36478365384613,216.97360076649773L166.7001201923077,237.30810685693385L170.03545673076923,236.08447661635395L173.37079326923077,237.61821092559197L176.7061298076923,229.73304648387062L180.04146634615384,227.80703367783713L183.3768028846154,234.24905505900813L186.71213942307693,239.14866375311414L190.04747596153845,236.18417779777732L193.3828125,233.05091924382754L196.71814903846152,251.49840315205785L200.0534855769231,242.24687125330755L203.3888221153846,238.18506201538457L206.72415865384616,244.15450935447151L210.05949519230768,246.05678336432138L213.39483173076923,251.26469680572745L216.73016826923077,245.79589274114446L220.0655048076923,244.0734048268649L223.40084134615387,247.19609712536646L226.7361778846154,255.7431317086091L230.0715144230769,259.5056307500976L233.40685096153845,256.8772103568519L236.74218750000003,252.3499186851147L240.07752403846155,243.4207249860745L243.41286057692307,251.03873424192315L246.74819711538458,253.28409757409364L250.08353365384616,253.0895479489829L253.4188701923077,255.40523124514897L256.7542067307692,238.26373632210937L260.0895432692308,257.58849302613237L263.4248798076923,269.25397335186136L266.76021634615387,244.92678411526865L270.09555288461536,257.35603499827135L273.4308894230769,259.3344382397549L276.7662259615385,263.6773765806992L280.1015625,257.9538023522815L283.43689903846155,254.40118957432756L286.77223557692304,259.08677196504215L290.10757211538464,255.77954569142923L293.4429086538462,265.7133948513141L296.7782451923077,272.25577036294357L300.1135817307692,265.249261297039L303.4489182692308,257.1091958706578L306.7842548076923,264.97853229320884L310.11959134615387,241.48083569908593L313.45492788461536,265.28647599179607L316.79026442307696,273.9655641606144L320.12560096153845,258.5668185421258L323.4609375,266.2611435408415L326.79627403846155,257.0126161062337L330.1316105769231,270.7086611131667L333.46694711538464,270.4323893667934L336.80228365384613,269.66553011311436L340.1376201923077,274.97410145961675L343.4729567307692,263.04761335968345L346.8082932692308,255.79826223627055L350.1436298076923,266.1322826756345L353.4789663461538,267.8948075407869L356.81430288461536,272.37083781325583L360.14963942307696,274.0706559320997L363.48497596153845,270.11998570310203L366.8203125,262.4262259361428L370.1556490384615,265.7977646376433L373.4909855769231,260.50632221623516L376.82632211538464,284.32320333631935L380.16165865384613,274.7801691438592L383.4969951923077,268.36659130085746L386.8323317307692,267.46865083174373L390.1676682692308,275.9035851604026L393.5030048076923,277.52130537378815L396.8383413461538,277.0214977696763L400.1736778846154,267.34053672000715L403.5090144230769,274.2668389279651L406.84435096153845,269.154283051532L410.1796875,266.2985733624322L413.51502403846155,270.1841951987072L416.8503605769231,272.3632681220151L420.1856971153846,270.6360427200321L423.52103365384613,266.24206458540226L426.85637019230774,275.89035923244586L430.1917067307692,279.30433351057513L433.5270432692308,283.152839503641L436.86237980769226,292.6723182509856L440.1977163461538,276.57698667672497L443.53305288461536,279.1685774340666L446.86838942307696,265.2314735744231L450.2037259615385,277.8375793193965L453.5390625,278.6396951082511L456.87439903846155,288.0055018564935L460.2097355769231,295.71570172442694L463.5450721153846,273.56273729206873L466.88040865384613,285.85623182997887L470.2157451923077,278.34737690886095L473.5510817307693,280.87096475396265L476.8864182692308,282.49551681069374L480.2217548076923,280.83654003763803L483.55709134615387,282.10810594141896L486.89242788461536,276.33219924888937L490.2277644230769,281.9913041198046L493.56310096153845,280.57569012870437L496.89843749999994,278.3806885225078L500.2337740384616,288.84735497216093L503.5691105769231,292.13972433315337L506.90444711538464,287.79956035961834L510.2397836538462,292.19068986833355L513.5751201923077,274.6568589012438L516.9104567307692,291.6984446643911L520.2457932692307,280.4484973100508L523.5811298076923,285.73769400989346L526.9164663461539,286.30631456530784L530.2518028846155,297.44386977625925L533.5871394230769,286.02204976653496L536.9224759615385,288.2846314094655L540.2578125,275.5219305425714L543.5931490384615,290.27024878562594L546.9284855769231,290.9304850781417L550.2638221153845,284.4335362876747L553.5991586538462,278.24476091043323L556.9344951923077,278.0914304196635L560.2698317307693,298.11105136173614L563.6051682692308,296.4765773835912L566.9405048076923,289.56125638917473L570.2758413461538,276.5397560122758L573.6111778846154,281.69364494233946L576.9465144230769,283.4012280237056L580.2818509615385,302.23215455228194L583.6171875,302.44911787286816L586.9525240384615,284.6885309325953L590.2878605769231,288.2659367306103L593.6231971153846,294.28891788870743L596.9585336538462,281.64072193966814L600.2938701923076,312.26364138215035L603.6292067307692,287.82050856173316L606.9645432692307,287.1899379077129L610.2998798076924,296.8929626791064L613.6352163461539,287.9517809102677L616.9705528846154,284.18130648456014L620.3058894230769,283.46527994206576L623.6412259615385,298.1837198355251L626.9765625,293.53661130753335L630.3118990384615,294.20497026843367L633.647235576923,277.4562009524689L636.9825721153846,296.74185695899746L640.3179086538462,271.76115129868026L643.6532451923077,296.125979276394L646.9885817307693,286.43321335555726L650.3239182692307,280.87690992229625L653.6592548076923,278.97622627815133L656.9945913461538,299.4235968248185L660.3299278846154,301.331641710613L663.665264423077,298.83116761779473L667.0006009615385,285.9703602338668L670.3359375,294.9415524410577L673.6712740384615,310.55469554977213L677.0066105769231,290.1158355503817L680.3419471153846,290.1174602697558L683.6772836538461,298.6058773330806L687.0126201923076,283.5591691853949L690.3479567307693,304.1963812227039L693.6832932692308,302.9070113061196L697.0186298076924,308.1278093169165L700.3539663461538,304.25391220184116L703.6893028846154,297.6963515355588L707.0246394230769,308.2055861607554L710.3599759615385,284.8019177164859L713.6953125,312.25861504808006L717.0306490384615,290.81324728898727L720.3659855769231,289.9374996054836L723.7013221153846,290.8997824920829L727.0366586538462,292.7018843677273L730.3719951923077,287.14513238893306L733.7073317307692,313.67327773397284L737.0426682692307,296.06015807026205L740.3780048076923,317.53046925303966L743.7133413461539,310.7300900251836L747.0486778846155,307.5891072627794L750.3840144230769,293.70421181951895L753.7193509615385,313.1120384997202L757.0546875,309.4468993276415L760.3900240384615,296.9819416316324L763.7253605769231,302.1347477327358L767.0606971153845,293.0001900659457L770.3960336538462,292.998165827982L773.7313701923077,283.97299602454933L777.0667067307693,300.341846730806L780.4020432692308,287.82979312761665L783.7373798076923,309.97218795249375L787.0727163461538,300.63481770636605L790.4080528846154,303.9284500186005L793.7433894230769,297.0487526857798L797.0787259615385,310.8434190685333L800.4140625,293.36231250990727L803.7493990384615,313.5129718008707"
                                          style="fill: none;" fill="none"></path>
                                </g>
                                <g>
                                    <path stroke="rgb(204, 51, 17)" stroke-width="2px"
                                          d="M69.97536057692308,82.30249291984622L73.31069711538461,101.5739490478646L76.64603365384615,111.54178687752689L79.9813701923077,121.11387429522944L83.31670673076923,128.82096723413596L86.65204326923077,135.94900244437775L89.9873798076923,144.3019259951783L93.32271634615384,152.7946932636605L96.65805288461539,164.92877103919437L99.99338942307692,170.7031111933465L103.32872596153845,172.27761252601923L106.6640625,178.02650745673674L109.99939903846155,191.02216931179998L113.33473557692308,186.65644941464225L116.67007211538463,199.47501131147317L120.00540865384615,190.1189044294664L123.34074519230771,199.94951455760835L126.67608173076923,206.66839940138186L130.01141826923077,211.29688015641153L133.34675480769232,211.11162426175804L136.68209134615384,215.62137257573318L140.0174278846154,213.25942630982686L143.3527644230769,210.8419795298895L146.68810096153845,217.06989404807464L150.0234375,217.71670175555855L153.35877403846155,223.51097270248795L156.69411057692307,221.60833638697625L160.0294471153846,226.33230190839015L163.36478365384613,232.51371842164988L166.7001201923077,234.28124332078002L170.03545673076923,240.16688567553948L173.37079326923077,234.804690719443L176.7061298076923,229.1285466226228L180.04146634615384,230.93018465768475L183.3768028846154,236.4496601525958L186.71213942307693,236.87754240498577L190.04747596153845,233.85705623364532L193.3828125,240.594487188808L196.71814903846152,238.33703873816464L200.0534855769231,250.38265228628313L203.3888221153846,253.93471539449155L206.72415865384616,262.71725478214614L210.05949519230768,241.97059955645398L213.39483173076923,252.18717204744436L216.73016826923077,238.65816375704404L220.0655048076923,247.222310418701L223.40084134615387,257.9331951293156L226.7361778846154,255.07744678904677L230.0715144230769,244.58787149715005L233.40685096153845,251.32144304065636L236.74218750000003,252.5204919844815L240.07752403846155,255.72923741768466L243.41286057692307,257.13653954130774L246.74819711538458,258.8374357265266L250.08353365384616,260.3246056328722L253.4188701923077,270.1472157801258L256.7542067307692,261.56540310817337L260.0895432692308,258.48218510703464L263.4248798076923,261.52722907318804L266.76021634615387,270.3203237162747L270.09555288461536,258.3833643931433L273.4308894230769,261.76558604594476L276.7662259615385,260.85769821500475L280.1015625,264.7294754214145L283.43689903846155,257.806705371212L286.77223557692304,265.821606393245L290.10757211538464,270.28316741671716L293.4429086538462,276.85009522969096L296.7782451923077,269.7354806694934L300.1135817307692,259.1946813079941L303.4489182692308,264.1816382868075L306.7842548076923,269.43980962359456L310.11959134615387,263.04764674198464L313.45492788461536,271.05005554118856L316.79026442307696,263.31369056220274L320.12560096153845,264.9557570456221L323.4609375,280.18585379035204L326.79627403846155,270.2665878750067L330.1316105769231,273.7472269413848L333.46694711538464,269.8994515003219L336.80228365384613,270.7365792678873L340.1376201923077,280.17997533147144L343.4729567307692,271.4870768881237L346.8082932692308,269.85574435883643L350.1436298076923,269.19871109942085L353.4789663461538,273.31879319210935L356.81430288461536,264.6477630817631L360.14963942307696,260.00115061914244L363.48497596153845,270.6520951102287L366.8203125,259.4995245788829L370.1556490384615,278.6458549742339L373.4909855769231,277.14690861876034L376.82632211538464,268.3777240716512L380.16165865384613,273.4493969477516L383.4969951923077,279.48363023618185L386.8323317307692,289.9536957689027L390.1676682692308,304.45153995654687L393.5030048076923,282.1158581723698L396.8383413461538,273.62455818463746L400.1736778846154,259.4699871133407L403.5090144230769,270.4468361801215L406.84435096153845,275.4142724241136L410.1796875,269.5666995158344L413.51502403846155,262.60757713724456L416.8503605769231,288.9381308879491L420.1856971153846,293.0205594628151L423.52103365384613,264.67367033489546L426.85637019230774,296.43329872696006L430.1917067307692,290.1996360693339L433.5270432692308,294.9964855961407L436.86237980769226,280.89331753362825L440.1977163461538,298.05521190291296L443.53305288461536,272.51051867334934L446.86838942307696,284.38346022661045L450.2037259615385,272.3978932711838L453.5390625,290.74732786150963L456.87439903846155,275.65011834997085L460.2097355769231,287.1297101963738L463.5450721153846,283.37713584697366L466.88040865384613,285.2003808405273L470.2157451923077,258.3678883812435L473.5510817307693,286.1874845538048L476.8864182692308,286.60792660129994L480.2217548076923,282.1865204658202L483.55709134615387,293.9290670728431L486.89242788461536,293.1538017288L490.2277644230769,289.78795720268045L493.56310096153845,291.19542276071036L496.89843749999994,288.0867165712533L500.2337740384616,297.4451321420131L503.5691105769231,285.05789214965193L506.90444711538464,290.8357425433467L510.2397836538462,279.4730084679443L513.5751201923077,298.387536577352L516.9104567307692,292.5931160232625L520.2457932692307,276.79488561055786L523.5811298076923,285.4001155330193L526.9164663461539,289.40681427682864L530.2518028846155,294.5940826620428L533.5871394230769,296.33543226800174L536.9224759615385,289.70863838614673L540.2578125,273.6438528616342L543.5931490384615,291.2703965496317L546.9284855769231,292.630861208461L550.2638221153845,299.69488758768773L553.5991586538462,297.9971118734434L556.9344951923077,284.13049831185305L560.2698317307693,303.11587024226833L563.6051682692308,300.9525074048224L566.9405048076923,295.56527954515633L570.2758413461538,284.1327947417983L573.6111778846154,297.79690889518787L576.9465144230769,301.35790912610116L580.2818509615385,280.2137863144363L583.6171875,297.4093659965398L586.9525240384615,309.10962338328454L590.2878605769231,285.6750323680027L593.6231971153846,274.0099587809812L596.9585336538462,288.32118234965895L600.2938701923076,311.2148992160279L603.6292067307692,294.1062622027226L606.9645432692307,301.63322574658787L610.2998798076924,288.72326672368973"
                                          style="fill: none;" fill="none"></path>
                                </g>
                                <g>
                                    <path stroke="rgb(51, 187, 238)" stroke-width="2px"
                                          d="M69.97536057692308,54.28629383045897L73.31069711538461,54.420661228616325L76.64603365384615,54.21156452204642L79.9813701923077,54.44057153561303L83.31670673076923,54.00000000000002L86.65204326923077,54.44024514956782L89.9873798076923,54.6331579217208L93.32271634615384,54.10620457934391L96.65805288461539,54.61022590369293L99.99338942307692,54.75509765926719L103.32872596153845,54.50264839858343L106.6640625,54.471290035550275L109.99939903846155,54.56236605452898L113.33473557692308,54.78635472526071L116.67007211538463,55.15476187297431L120.00540865384615,55.00221284383361L123.34074519230771,55.366541199639485L126.67608173076923,55.22080019947433L130.01141826923077,55.12950882751964L133.34675480769232,55.32511013684076L136.68209134615384,55.23694347530003L140.0174278846154,55.20528029847039L143.3527644230769,55.59544353063891L145.2205528846154,55.38500377643882L145.2872596153846,55.448805946929724L145.35396634615384,55.641577345179535L145.42067307692307,55.30886964889265L145.48737980769232,55.39360333153834L145.55408653846152,55.53610339485823L145.62079326923077,55.06907359250872L145.6875,55.331515340742094L145.75420673076923,55.2652404035106L145.82091346153845,55.25586072698385L145.8876201923077,55.2533579878034L145.9543269230769,55.221111555874025L146.02103365384616,55.27099538134818"
                                          style="fill: none;" fill="none"></path>
                                </g>
                            </g>
                        </g>
                    </g>
                </g>
            </g>
            <g transform="translate(51, 378)" clip-path="url(#clip_1)">
                <clipPath id="clip_1">
                    <rect width="867" height="22"></rect>
                </clipPath>
                <g>
                    <g>
                        <line x1="0" y1="0" x2="0" y2="5" style="visibility: inherit;" fill="rgb(0, 0, 0)"
                              stroke="rgb(204, 204, 204)" stroke-width="1px"></line>
                        <line x1="66.70673076923077" y1="0" x2="66.70673076923077" y2="5" style="visibility: inherit;"
                              fill="rgb(0, 0, 0)" stroke="rgb(204, 204, 204)" stroke-width="1px"></line>
                        <line x1="133.41346153846155" y1="0" x2="133.41346153846155" y2="5" style="visibility: inherit;"
                              fill="rgb(0, 0, 0)" stroke="rgb(204, 204, 204)" stroke-width="1px"></line>
                        <line x1="200.12019230769232" y1="0" x2="200.12019230769232" y2="5" style="visibility: inherit;"
                              fill="rgb(0, 0, 0)" stroke="rgb(204, 204, 204)" stroke-width="1px"></line>
                        <line x1="266.8269230769231" y1="0" x2="266.8269230769231" y2="5" style="visibility: inherit;"
                              fill="rgb(0, 0, 0)" stroke="rgb(204, 204, 204)" stroke-width="1px"></line>
                        <line x1="333.53365384615387" y1="0" x2="333.53365384615387" y2="5" style="visibility: inherit;"
                              fill="rgb(0, 0, 0)" stroke="rgb(204, 204, 204)" stroke-width="1px"></line>
                        <line x1="400.24038461538464" y1="0" x2="400.24038461538464" y2="5" style="visibility: inherit;"
                              fill="rgb(0, 0, 0)" stroke="rgb(204, 204, 204)" stroke-width="1px"></line>
                        <line x1="466.94711538461536" y1="0" x2="466.94711538461536" y2="5" style="visibility: inherit;"
                              fill="rgb(0, 0, 0)" stroke="rgb(204, 204, 204)" stroke-width="1px"></line>
                        <line x1="533.6538461538462" y1="0" x2="533.6538461538462" y2="5" style="visibility: inherit;"
                              fill="rgb(0, 0, 0)" stroke="rgb(204, 204, 204)" stroke-width="1px"></line>
                        <line x1="600.3605769230769" y1="0" x2="600.3605769230769" y2="5" style="visibility: inherit;"
                              fill="rgb(0, 0, 0)" stroke="rgb(204, 204, 204)" stroke-width="1px"></line>
                        <line x1="667.0673076923077" y1="0" x2="667.0673076923077" y2="5" style="visibility: inherit;"
                              fill="rgb(0, 0, 0)" stroke="rgb(204, 204, 204)" stroke-width="1px"></line>
                        <line x1="733.7740384615385" y1="0" x2="733.7740384615385" y2="5" style="visibility: inherit;"
                              fill="rgb(0, 0, 0)" stroke="rgb(204, 204, 204)" stroke-width="1px"></line>
                        <line x1="800.4807692307693" y1="0" x2="800.4807692307693" y2="5" style="visibility: inherit;"
                              fill="rgb(0, 0, 0)" stroke="rgb(204, 204, 204)" stroke-width="1px"></line>
                        <line x1="867.1875" y1="0" x2="867.1875" y2="5" style="visibility: inherit;" fill="rgb(0, 0, 0)"
                              stroke="rgb(204, 204, 204)" stroke-width="1px"></line>
                    </g>
                    <g transform="translate(0, 8)">
                        <text x="0" y="0" dx="0em" dy="0.95em"
                              style="text-anchor: middle; visibility: hidden; font-family: Roboto, sans-serif; font-size: 12px; font-weight: 200;"
                              fill="rgb(50, 49, 63)" stroke="none" stroke-width="1px">-1k
                        </text>
                        <text x="66.70673076923077" y="0" dx="0em" dy="0.95em"
                              style="text-anchor: middle; visibility: inherit; font-family: Roboto, sans-serif; font-size: 12px; font-weight: 200;"
                              fill="rgb(50, 49, 63)" stroke="none" stroke-width="1px">0
                        </text>
                        <text x="133.41346153846155" y="0" dx="0em" dy="0.95em"
                              style="text-anchor: middle; visibility: inherit; font-family: Roboto, sans-serif; font-size: 12px; font-weight: 200;"
                              fill="rgb(50, 49, 63)" stroke="none" stroke-width="1px">1k
                        </text>
                        <text x="200.12019230769232" y="0" dx="0em" dy="0.95em"
                              style="text-anchor: middle; visibility: inherit; font-family: Roboto, sans-serif; font-size: 12px; font-weight: 200;"
                              fill="rgb(50, 49, 63)" stroke="none" stroke-width="1px">2k
                        </text>
                        <text x="266.8269230769231" y="0" dx="0em" dy="0.95em"
                              style="text-anchor: middle; visibility: inherit; font-family: Roboto, sans-serif; font-size: 12px; font-weight: 200;"
                              fill="rgb(50, 49, 63)" stroke="none" stroke-width="1px">3k
                        </text>
                        <text x="333.53365384615387" y="0" dx="0em" dy="0.95em"
                              style="text-anchor: middle; visibility: inherit; font-family: Roboto, sans-serif; font-size: 12px; font-weight: 200;"
                              fill="rgb(50, 49, 63)" stroke="none" stroke-width="1px">4k
                        </text>
                        <text x="400.24038461538464" y="0" dx="0em" dy="0.95em"
                              style="text-anchor: middle; visibility: inherit; font-family: Roboto, sans-serif; font-size: 12px; font-weight: 200;"
                              fill="rgb(50, 49, 63)" stroke="none" stroke-width="1px">5k
                        </text>
                        <text x="466.94711538461536" y="0" dx="0em" dy="0.95em"
                              style="text-anchor: middle; visibility: inherit; font-family: Roboto, sans-serif; font-size: 12px; font-weight: 200;"
                              fill="rgb(50, 49, 63)" stroke="none" stroke-width="1px">6k
                        </text>
                        <text x="533.6538461538462" y="0" dx="0em" dy="0.95em"
                              style="text-anchor: middle; visibility: inherit; font-family: Roboto, sans-serif; font-size: 12px; font-weight: 200;"
                              fill="rgb(50, 49, 63)" stroke="none" stroke-width="1px">7k
                        </text>
                        <text x="600.3605769230769" y="0" dx="0em" dy="0.95em"
                              style="text-anchor: middle; visibility: inherit; font-family: Roboto, sans-serif; font-size: 12px; font-weight: 200;"
                              fill="rgb(50, 49, 63)" stroke="none" stroke-width="1px">8k
                        </text>
                        <text x="667.0673076923077" y="0" dx="0em" dy="0.95em"
                              style="text-anchor: middle; visibility: inherit; font-family: Roboto, sans-serif; font-size: 12px; font-weight: 200;"
                              fill="rgb(50, 49, 63)" stroke="none" stroke-width="1px">9k
                        </text>
                        <text x="733.7740384615385" y="0" dx="0em" dy="0.95em"
                              style="text-anchor: middle; visibility: inherit; font-family: Roboto, sans-serif; font-size: 12px; font-weight: 200;"
                              fill="rgb(50, 49, 63)" stroke="none" stroke-width="1px">10k
                        </text>
                        <text x="800.4807692307693" y="0" dx="0em" dy="0.95em"
                              style="text-anchor: middle; visibility: inherit; font-family: Roboto, sans-serif; font-size: 12px; font-weight: 200;"
                              fill="rgb(50, 49, 63)" stroke="none" stroke-width="1px">11k
                        </text>
                        <text x="867.1875" y="0" dx="0em" dy="0.95em"
                              style="text-anchor: middle; visibility: hidden; font-family: Roboto, sans-serif; font-size: 12px; font-weight: 200;"
                              fill="rgb(50, 49, 63)" stroke="none" stroke-width="1px">12k
                        </text>
                    </g>
                    <line x1="0" y1="0" x2="867.1875" y2="0" fill="rgb(0, 0, 0)" stroke="rgb(204, 204, 204)"
                          stroke-width="1px"></line>
                </g>
            </g>
        </g>
    </g>
</svg>